<mxfile modified="2024-06-12T15:37:42.816Z" host="app.diagrams.net" agent="Mozilla/5.0 (Macintosh; Intel Mac OS X 10_15_7) AppleWebKit/537.36 (KHTML, like Gecko) Chrome/125.0.0.0 Safari/537.36" etag="glGeRedWBsZ8YsBTGpX8" version="24.5.3" type="device">
  <diagram id="Ht1M8jgEwFfnCIfOTk4-" name="Page-1">
    <mxGraphModel dx="1152" dy="904" grid="1" gridSize="10" guides="1" tooltips="1" connect="1" arrows="1" fold="1" page="1" pageScale="1" pageWidth="1169" pageHeight="827" math="0" shadow="0">
      <root>
        <mxCell id="0" />
        <mxCell id="1" parent="0" />
        <mxCell id="OnwEWeLBaUcrGl3t1ZlW-3" value="AWS Cloud" style="points=[[0,0],[0.25,0],[0.5,0],[0.75,0],[1,0],[1,0.25],[1,0.5],[1,0.75],[1,1],[0.75,1],[0.5,1],[0.25,1],[0,1],[0,0.75],[0,0.5],[0,0.25]];outlineConnect=0;gradientColor=none;html=1;whiteSpace=wrap;fontSize=12;fontStyle=0;container=1;pointerEvents=0;collapsible=0;recursiveResize=0;shape=mxgraph.aws4.group;grIcon=mxgraph.aws4.group_aws_cloud_alt;strokeColor=#232F3E;fillColor=none;verticalAlign=top;align=left;spacingLeft=30;fontColor=#232F3E;dashed=0;" parent="1" vertex="1">
          <mxGeometry x="160" y="280" width="760" height="480" as="geometry" />
        </mxCell>
        <mxCell id="OnwEWeLBaUcrGl3t1ZlW-15" style="edgeStyle=orthogonalEdgeStyle;rounded=0;orthogonalLoop=1;jettySize=auto;html=1;startArrow=open;startFill=0;endArrow=open;endFill=0;strokeWidth=2;strokeColor=#808080;" parent="OnwEWeLBaUcrGl3t1ZlW-3" target="OnwEWeLBaUcrGl3t1ZlW-20" edge="1">
          <mxGeometry relative="1" as="geometry">
            <Array as="points">
              <mxPoint x="150" y="399" />
            </Array>
            <mxPoint x="150" y="278" as="sourcePoint" />
            <mxPoint x="200.00000000000023" y="399" as="targetPoint" />
          </mxGeometry>
        </mxCell>
        <mxCell id="OnwEWeLBaUcrGl3t1ZlW-18" style="edgeStyle=orthogonalEdgeStyle;rounded=0;orthogonalLoop=1;jettySize=auto;html=1;startArrow=none;startFill=0;endArrow=open;endFill=0;strokeWidth=2;strokeColor=#808080;" parent="OnwEWeLBaUcrGl3t1ZlW-3" edge="1">
          <mxGeometry relative="1" as="geometry">
            <Array as="points" />
            <mxPoint x="158.00000000000023" y="239" as="sourcePoint" />
            <mxPoint x="200.00000000000023" y="239.00000000000023" as="targetPoint" />
          </mxGeometry>
        </mxCell>
        <mxCell id="OnwEWeLBaUcrGl3t1ZlW-20" value="Comprehend" style="sketch=0;points=[[0,0,0],[0.25,0,0],[0.5,0,0],[0.75,0,0],[1,0,0],[0,1,0],[0.25,1,0],[0.5,1,0],[0.75,1,0],[1,1,0],[0,0.25,0],[0,0.5,0],[0,0.75,0],[1,0.25,0],[1,0.5,0],[1,0.75,0]];outlineConnect=0;fontColor=#232F3E;fillColor=#01A88D;strokeColor=#ffffff;dashed=0;verticalLabelPosition=bottom;verticalAlign=top;align=center;html=1;fontSize=12;fontStyle=0;aspect=fixed;shape=mxgraph.aws4.resourceIcon;resIcon=mxgraph.aws4.comprehend;" parent="OnwEWeLBaUcrGl3t1ZlW-3" vertex="1">
          <mxGeometry x="200" y="360" width="78" height="78" as="geometry" />
        </mxCell>
        <mxCell id="OnwEWeLBaUcrGl3t1ZlW-23" value="Lambda" style="sketch=0;points=[[0,0,0],[0.25,0,0],[0.5,0,0],[0.75,0,0],[1,0,0],[0,1,0],[0.25,1,0],[0.5,1,0],[0.75,1,0],[1,1,0],[0,0.25,0],[0,0.5,0],[0,0.75,0],[1,0.25,0],[1,0.5,0],[1,0.75,0]];outlineConnect=0;fontColor=#232F3E;fillColor=#ED7100;strokeColor=#ffffff;dashed=0;verticalLabelPosition=bottom;verticalAlign=top;align=center;html=1;fontSize=12;fontStyle=0;aspect=fixed;shape=mxgraph.aws4.resourceIcon;resIcon=mxgraph.aws4.lambda;" parent="OnwEWeLBaUcrGl3t1ZlW-3" vertex="1">
          <mxGeometry x="80" y="200" width="78" height="78" as="geometry" />
        </mxCell>
        <mxCell id="OnwEWeLBaUcrGl3t1ZlW-24" value="S3" style="sketch=0;points=[[0,0,0],[0.25,0,0],[0.5,0,0],[0.75,0,0],[1,0,0],[0,1,0],[0.25,1,0],[0.5,1,0],[0.75,1,0],[1,1,0],[0,0.25,0],[0,0.5,0],[0,0.75,0],[1,0.25,0],[1,0.5,0],[1,0.75,0]];outlineConnect=0;fontColor=#232F3E;fillColor=#7AA116;strokeColor=#ffffff;dashed=0;verticalLabelPosition=bottom;verticalAlign=top;align=center;html=1;fontSize=12;fontStyle=0;aspect=fixed;shape=mxgraph.aws4.resourceIcon;resIcon=mxgraph.aws4.s3;" parent="OnwEWeLBaUcrGl3t1ZlW-3" vertex="1">
          <mxGeometry x="200" y="40" width="78" height="78" as="geometry" />
        </mxCell>
        <mxCell id="OnwEWeLBaUcrGl3t1ZlW-25" value="Glue" style="sketch=0;points=[[0,0,0],[0.25,0,0],[0.5,0,0],[0.75,0,0],[1,0,0],[0,1,0],[0.25,1,0],[0.5,1,0],[0.75,1,0],[1,1,0],[0,0.25,0],[0,0.5,0],[0,0.75,0],[1,0.25,0],[1,0.5,0],[1,0.75,0]];outlineConnect=0;fontColor=#232F3E;fillColor=#8C4FFF;strokeColor=#ffffff;dashed=0;verticalLabelPosition=bottom;verticalAlign=top;align=center;html=1;fontSize=12;fontStyle=0;aspect=fixed;shape=mxgraph.aws4.resourceIcon;resIcon=mxgraph.aws4.glue;" parent="OnwEWeLBaUcrGl3t1ZlW-3" vertex="1">
          <mxGeometry x="200" y="200" width="78" height="78" as="geometry" />
        </mxCell>
        <mxCell id="OnwEWeLBaUcrGl3t1ZlW-28" style="edgeStyle=orthogonalEdgeStyle;rounded=0;orthogonalLoop=1;jettySize=auto;html=1;startArrow=open;startFill=0;endArrow=open;endFill=0;strokeWidth=2;strokeColor=#808080;" parent="OnwEWeLBaUcrGl3t1ZlW-3" source="OnwEWeLBaUcrGl3t1ZlW-25" target="OnwEWeLBaUcrGl3t1ZlW-8" edge="1">
          <mxGeometry relative="1" as="geometry">
            <Array as="points">
              <mxPoint x="359" y="220" />
            </Array>
            <mxPoint x="168.00000000000023" y="249" as="sourcePoint" />
            <mxPoint x="210.00000000000023" y="249.00000000000023" as="targetPoint" />
          </mxGeometry>
        </mxCell>
        <mxCell id="OnwEWeLBaUcrGl3t1ZlW-8" value="Glue Crawler" style="sketch=0;outlineConnect=0;fontColor=#232F3E;gradientColor=none;fillColor=#8C4FFF;strokeColor=none;dashed=0;verticalLabelPosition=middle;verticalAlign=middle;align=left;html=1;fontSize=12;fontStyle=0;aspect=fixed;pointerEvents=1;shape=mxgraph.aws4.glue_crawlers;labelBackgroundColor=none;movable=1;resizable=1;rotatable=1;deletable=1;editable=1;locked=0;connectable=1;spacingBottom=0;labelPosition=right;" parent="OnwEWeLBaUcrGl3t1ZlW-3" vertex="1">
          <mxGeometry x="320" y="122" width="78" height="78" as="geometry" />
        </mxCell>
        <mxCell id="OnwEWeLBaUcrGl3t1ZlW-32" style="edgeStyle=orthogonalEdgeStyle;rounded=0;orthogonalLoop=1;jettySize=auto;html=1;startArrow=open;startFill=0;endArrow=none;endFill=0;strokeWidth=2;strokeColor=#808080;" parent="OnwEWeLBaUcrGl3t1ZlW-3" source="OnwEWeLBaUcrGl3t1ZlW-24" target="OnwEWeLBaUcrGl3t1ZlW-8" edge="1">
          <mxGeometry relative="1" as="geometry">
            <Array as="points">
              <mxPoint x="359" y="80" />
            </Array>
            <mxPoint x="300" y="62" as="sourcePoint" />
            <mxPoint x="381" y="20" as="targetPoint" />
          </mxGeometry>
        </mxCell>
        <mxCell id="OnwEWeLBaUcrGl3t1ZlW-33" style="edgeStyle=orthogonalEdgeStyle;rounded=0;orthogonalLoop=1;jettySize=auto;html=1;startArrow=open;startFill=0;endArrow=open;endFill=0;strokeWidth=2;strokeColor=#808080;entryX=0.75;entryY=0;entryDx=0;entryDy=0;entryPerimeter=0;" parent="OnwEWeLBaUcrGl3t1ZlW-3" source="OnwEWeLBaUcrGl3t1ZlW-24" target="OnwEWeLBaUcrGl3t1ZlW-23" edge="1">
          <mxGeometry relative="1" as="geometry">
            <Array as="points" />
            <mxPoint x="109.99500000000012" y="-115.5" as="sourcePoint" />
            <mxPoint x="109.99500000000012" y="210" as="targetPoint" />
          </mxGeometry>
        </mxCell>
        <mxCell id="OnwEWeLBaUcrGl3t1ZlW-36" style="edgeStyle=orthogonalEdgeStyle;rounded=0;orthogonalLoop=1;jettySize=auto;html=1;startArrow=open;startFill=0;endArrow=open;endFill=0;strokeWidth=2;strokeColor=#808080;" parent="OnwEWeLBaUcrGl3t1ZlW-3" target="OnwEWeLBaUcrGl3t1ZlW-29" edge="1">
          <mxGeometry relative="1" as="geometry">
            <Array as="points">
              <mxPoint x="420" y="260" />
              <mxPoint x="420" y="260" />
            </Array>
            <mxPoint x="278" y="260" as="sourcePoint" />
            <mxPoint x="359" y="218" as="targetPoint" />
          </mxGeometry>
        </mxCell>
        <mxCell id="OnwEWeLBaUcrGl3t1ZlW-30" value="Quicksight" style="sketch=0;points=[[0,0,0],[0.25,0,0],[0.5,0,0],[0.75,0,0],[1,0,0],[0,1,0],[0.25,1,0],[0.5,1,0],[0.75,1,0],[1,1,0],[0,0.25,0],[0,0.5,0],[0,0.75,0],[1,0.25,0],[1,0.5,0],[1,0.75,0]];outlineConnect=0;fontColor=#232F3E;fillColor=#8C4FFF;strokeColor=#ffffff;dashed=0;verticalLabelPosition=bottom;verticalAlign=top;align=center;html=1;fontSize=12;fontStyle=0;aspect=fixed;shape=mxgraph.aws4.resourceIcon;resIcon=mxgraph.aws4.quicksight;" parent="OnwEWeLBaUcrGl3t1ZlW-3" vertex="1">
          <mxGeometry x="600" y="220" width="78" height="78" as="geometry" />
        </mxCell>
        <mxCell id="OnwEWeLBaUcrGl3t1ZlW-29" value="Athena" style="sketch=0;points=[[0,0,0],[0.25,0,0],[0.5,0,0],[0.75,0,0],[1,0,0],[0,1,0],[0.25,1,0],[0.5,1,0],[0.75,1,0],[1,1,0],[0,0.25,0],[0,0.5,0],[0,0.75,0],[1,0.25,0],[1,0.5,0],[1,0.75,0]];outlineConnect=0;fontColor=#232F3E;fillColor=#8C4FFF;strokeColor=#ffffff;dashed=0;verticalLabelPosition=bottom;verticalAlign=top;align=center;html=1;fontSize=12;fontStyle=0;aspect=fixed;shape=mxgraph.aws4.resourceIcon;resIcon=mxgraph.aws4.athena;" parent="OnwEWeLBaUcrGl3t1ZlW-3" vertex="1">
          <mxGeometry x="440" y="220" width="78" height="78" as="geometry" />
        </mxCell>
        <mxCell id="OnwEWeLBaUcrGl3t1ZlW-38" style="edgeStyle=orthogonalEdgeStyle;rounded=0;orthogonalLoop=1;jettySize=auto;html=1;startArrow=open;startFill=0;endArrow=open;endFill=0;strokeWidth=2;strokeColor=#808080;" parent="OnwEWeLBaUcrGl3t1ZlW-3" source="OnwEWeLBaUcrGl3t1ZlW-29" target="OnwEWeLBaUcrGl3t1ZlW-30" edge="1">
          <mxGeometry relative="1" as="geometry">
            <Array as="points" />
            <mxPoint x="440" y="202" as="sourcePoint" />
            <mxPoint x="602" y="262" as="targetPoint" />
          </mxGeometry>
        </mxCell>
        <mxCell id="OnwEWeLBaUcrGl3t1ZlW-43" style="edgeStyle=orthogonalEdgeStyle;rounded=0;orthogonalLoop=1;jettySize=auto;html=1;startArrow=open;startFill=0;endArrow=open;endFill=0;strokeWidth=2;strokeColor=#808080;" parent="OnwEWeLBaUcrGl3t1ZlW-3" source="OnwEWeLBaUcrGl3t1ZlW-30" edge="1">
          <mxGeometry relative="1" as="geometry">
            <Array as="points">
              <mxPoint x="720" y="262" />
              <mxPoint x="720" y="262" />
            </Array>
            <mxPoint x="740" y="255.10000000000002" as="sourcePoint" />
            <mxPoint x="840.0769230769231" y="262" as="targetPoint" />
          </mxGeometry>
        </mxCell>
        <mxCell id="OnwEWeLBaUcrGl3t1ZlW-44" value="AWS Management Console" style="sketch=0;points=[[0,0,0],[0.25,0,0],[0.5,0,0],[0.75,0,0],[1,0,0],[0,1,0],[0.25,1,0],[0.5,1,0],[0.75,1,0],[1,1,0],[0,0.25,0],[0,0.5,0],[0,0.75,0],[1,0.25,0],[1,0.5,0],[1,0.75,0]];points=[[0,0,0],[0.25,0,0],[0.5,0,0],[0.75,0,0],[1,0,0],[0,1,0],[0.25,1,0],[0.5,1,0],[0.75,1,0],[1,1,0],[0,0.25,0],[0,0.5,0],[0,0.75,0],[1,0.25,0],[1,0.5,0],[1,0.75,0]];outlineConnect=0;fontColor=#232F3E;fillColor=#E7157B;strokeColor=#ffffff;dashed=0;verticalLabelPosition=bottom;verticalAlign=top;align=center;html=1;fontSize=12;fontStyle=0;aspect=fixed;shape=mxgraph.aws4.resourceIcon;resIcon=mxgraph.aws4.management_console;" parent="OnwEWeLBaUcrGl3t1ZlW-3" vertex="1">
          <mxGeometry x="840" y="221" width="78" height="78" as="geometry" />
        </mxCell>
        <mxCell id="OnwEWeLBaUcrGl3t1ZlW-5" value="" style="shape=image;verticalLabelPosition=bottom;labelBackgroundColor=default;verticalAlign=top;aspect=fixed;imageAspect=0;image=data:image/png,iVBORw0KGgoAAAANSUhEUgAAAu4AAAGgCAYAAAD1p+JLAAAABGdBTUEAALGPC/xhBQAAACBjSFJNAAB6JgAAgIQAAPoAAACA6AAAdTAAAOpgAAA6mAAAF3CculE8AAAAUGVYSWZNTQAqAAAACAACARIAAwAAAAEAAQAAh2kABAAAAAEAAAAmAAAAAAADoAEAAwAAAAEAAQAAoAIABAAAAAEAAALuoAMABAAAAAEAAAGgAAAAAGfbEtMAAAFZaVRYdFhNTDpjb20uYWRvYmUueG1wAAAAAAA8eDp4bXBtZXRhIHhtbG5zOng9ImFkb2JlOm5zOm1ldGEvIiB4OnhtcHRrPSJYTVAgQ29yZSA2LjAuMCI+CiAgIDxyZGY6UkRGIHhtbG5zOnJkZj0iaHR0cDovL3d3dy53My5vcmcvMTk5OS8wMi8yMi1yZGYtc3ludGF4LW5zIyI+CiAgICAgIDxyZGY6RGVzY3JpcHRpb24gcmRmOmFib3V0PSIiCiAgICAgICAgICAgIHhtbG5zOnRpZmY9Imh0dHA6Ly9ucy5hZG9iZS5jb20vdGlmZi8xLjAvIj4KICAgICAgICAgPHRpZmY6T3JpZW50YXRpb24+MTwvdGlmZjpPcmllbnRhdGlvbj4KICAgICAgPC9yZGY6RGVzY3JpcHRpb24+CiAgIDwvcmRmOlJERj4KPC94OnhtcG1ldGE+Chle4QcAAEAASURBVHgB7L1ZkGTXeef33S33rLU3NHYQIEGAAAmCIsFFJEFRpBaONmq0USMpHJIcHocd4UeHX/xgv/jFj46YsGcctjwxHmubkSiRHM0gNCTFRSBAgNjR3eh9qaquqqxc73r8/5+btyqruqq6uyqrqpfvdN+8+1l+NyPrf777ne+IaFICSkAJKAEloASUgBJQAkpACSgBJaAElIASUAJKQAkoASWgBJSAElACSkAJKAEloASUgBJQAkpACSgBJaAElIASUAJKQAkoASWgBJSAElACSkAJKAEloASUgBJQAkpACSgBJaAElIASUAJKQAkoASWgBJSAElACSkAJKAEloASUgBJQAkpACSgBJaAElIASUAJKQAkoASWgBJSAElACSkAJKAEloASUgBJQAkpACSgBJaAElIASUAJKQAkoASWgBJSAElACSkAJKAEloASUgBJQAkpACSgBJaAElIASUAJKQAkoASWgBJSAElACSkAJKAEloASUgBJQAkpACSgBJaAElIASUAJKQAkoASWgBJSAElACSkAJKAEloASUgBJQAkpACSgBJaAElIASUAJKQAkoASWgBJSAElACSkAJKAEloASUgBJQAkpACSgBJaAElIASUAJKQAkoASWgBJSAElACSkAJKAEloASUgBJQAkpACSgBJaAElIASUAJKQAkoASWgBJSAElACSkAJKAEloASUgBJQAkpACSgBJaAElIASUAJKQAkoASWgBJSAElACSkAJKAEloASUgBJQAkpACSgBJaAElIASUAJKQAkoASWgBJSAElACSkAJKAEloASUgBJQAkpACSgBJaAElIASUAJKQAkoASWgBJSAElACSkAJKAEloASUgBJQAkpACSgBJaAElIASUAJKQAkoASWgBJSAElACSkAJKAEloASUgBJQAkpACSgBJaAElIASUAJKQAkoASWgBJSAElACSkAJKAEloASUgBJQAkpACSgBJaAElIASUAJKQAkoASWgBO5YAs4d2zJtmBJQAkpACawSMC+84MuRI6498MQTseM4ZvWkbigBJaAElMBtQUCF+23xmLSSSkAJKIHNCRjzblmW/arEUhkkWYlX9d56vRn2u9Xu4nKjs7A01W6vHOr2exNxGFXTJHNnjs5cqZUqK9PNieWJ2elubXqmVZ89siLTQSh+PZJ7H+9D2Pc2L1GPKgEloASUwEERUOF+UOS1XCWgBJTADgiYd78/sXz+0ozT7c2GrcVD3fn5D63MX3myvTA/1VtZKceDgXvUNceRtYclwI98Cab1MuzrFPWeOGKMI5GTObGIiUSc0ECk45pB6shAHCeaffazf+tXqq3mxPSZypGZq41jx69KMLkiTz/dU0v9Dh6a3qIElIASGBMBFe5jAqnZKAEloAT2gsDSyy9Mxcsrh/rzrWPJwsJjaXf5g60Lpz7sxMkhJ+xPmEF/Qga9CRMOymkcOSZN5T63uVqVzX7kjZOJY3KvmeJC+s1kjitYZ5fKwXkvKCeler1fnZhsO1PT57yJyTeyRuOkGwQX7/3AR98rl0ot+fjHlyHk0yIPXSsBJaAElMDeEtjsN31vS9TclYASUAJKYFsC5q3vNMNLnaNX584+NH/uzKdal+afjVsr9zndlVkvDKdMvDLpZZmUYEYPBGvkxm2a0+m67iU0tm+dKNI3+/E3kov55UEirgsR73li/LIkpVKSliqdpFxayXx/efbwQ5eCieY71UOHv9+4/6E3p44cOSfPPntVrfFbM9czSkAJKIFxENjst3sc+WoeSkAJKAElcBMEzN/9YLazsnxP2O8c67z8nd+Per0H2+252fZKeybKwtnAc4MqHF8q0ORuCnEO9e2ZVNwsFSej1wtkNxYmD+e3S3CVsQkaf9NU8ifRHRBJ0DlIHEcSdAlCWOMjz5UU6+VeN3PLlVZ5amJ+8tCxCzP33PfS1P33fac8O/tOqTJxzvnMZ9qbZqwHlYASUAJKYFcEVLjvCp/erASUgBLYHQHz3e8e6Z468+GVU2d+funixY/0W+0jKxfevLfkmlrJk1IQeBIEgVTKgZQ9B07rmbTbfTi0QLBDuNM1xs0Syew25bZIrVbftlKjer34I+COHDSD/Cgs6FaopxTvsMDTlSbBsuD2UB6c5WGh90ol02hMLdWnZ+aCyanzbrP6avMLn/s/ZHbm/Oxjz61sWxE9qQSUgBJQAjdFoPjNvqmb9GIloASUgBLYOQEbmrGcHR1cmXusf/bcL/ZOn31+5cyZh9tXFqYH3a4zdbhiRXol8MWDWIeNXZIkwVDSvmRxJCkt7TCX050FRnCsYWWHW4vj4Hpc3c/8aypXWNl5orC0F8fsvvV7z29z0TGgaGf+zNy4EOlYMtTD3tOswxqfyiCJJU4yQRcC52GND8p9E7jt4IMf/cfG0dnvNB944DuT9z5yqvbMpy+pG801j0QPKAEloARumoAK95tGpjcoASWgBHZOoPudbx2/9NL3v5h2B5+QuSvPpotXHzKLS0el04GLCy3niUzNNuEGYyCwM4hlg3AvRiII9yQOYWFPpFqt5cKabjNQ7j5EuxXxFO+Q7v3lwWoFC3G+egAba8I9t9AX52wXAeUGMPXniaLccMDqcA3hjvNVryIRaoYuhMQQ8HSpyXBRRAs9ru5VDifSrC+Ujhw6PXvP/f/5yH2Pfmvy6AOvOp/97HxRlq6VgBJQAkrg5gmocL95ZnqHElACSuCmCTCM4+JbZ59cPnv6uRPffuFr0h885Hfas6WwKw2I3claRZoTVYjyspy9cF48WMB9/EJ7XiCOV4ZA9yHQ6Soj0h26shhY3jMoZoppaGe7hulbypV8kCkruZlw93BtZn/9ce/IXwHr/AIBXnYrwzwTCHGIcpSRohNRuM7DaQYuNMjDx/3wsfHgPuNgseZ/rOe9pnQg6OHQI+XaxNyxYw+9c8/7PvD1ycce+pvSkYfPOU8/vXTTAPUGJaAElIAS2DSwgGJRAkpACSiBMREwL74YXLxw+kMXX37pNzvvvvupZHHuoSMl734fwjbAoNKSGcC6nuDHGK4wEOsU1KEPi7cprN6wqkOMOyMK28Bkzn0XFzOsY6G9eT9THupxvTUdGa62yMW9uXBfPbS6wWKK6DLrr8nzs77ww3Ig3VEYo0Ey72EtUO92UpKMrjVoR+qV4EITpIOgeqlXKp+Jff/1X/rN3/2fnZ/9J2dXC9UNJaAElIASuCECxe/9DV2sFykBJaAElMCNE+i+9K3jSycuPrNw8tRvw5f9M/7VhaNBNKjU4gG8xVPxswiOLQk0L5xOXERwwUKxbKRiC8ldWmDJhi6m2GbiJwU7PrHGwoNWvOfCOhf/G0U7L2LKxftOhXsxgJWWeZsXBHxexyKUe97ZiEOEkcTbgRSuOyneFEC4y8AvST8oh2HgXnjsmY//f5UHH/nzYx85/qrz8PNrfj22jvqhBJSAElACWxHI/xJsdVaPKwEloASUwE0TMK+8Ul+59NqT519/+1fm33n3Z7OF5ceqUTg5jZzqdC3p04mE1uoYlmmKdviKw38lwpLS4yRp2EGmLNgKY1rXoZWLH2w/Caxgp2XdHs/1OC+3KfIxIeqWiWEjr29x32htL8rPhXphk6flPy/IdiCGZbohfOJxQwrxTss7BXwMd59eyZcE2xDxl+oPP/y92Sef+peHHn7/i43nvnhly+rqCSWgBJSAElglcG3ogdVTuqEElIASUAI3S6Dz+g+PLf3gP/zSwtkzv7j4zjsfjS/N31eBUb1WCiSwxnNY2iG4MwcHmeBawgGdebIX4DwkeiGIsbb2da6Hxzz4mzPR15znivP24HU/ePX2KVt1hcmvWy/aWW5Rl/UdiqJ+gRsj6g1j0LB7wpjz6GBgUK0buxKiR7BytXdPmvS+lHS698YX5v7m6p/9q2/NHH3sdY3/vv1z0bNKQAkogev/gisjJaAElIASuC4BDBB12i984/3LZ9/74tXv/t0fxSsrj5pWq16KU6kHZSm5cIoJ+xINOjJVn4Typfimawws01DGFMu0ttPSHaS5y0khhLmmCC6Sg8GoTMUxni+upcju+8WZ4o71a16z3qK+dp59BtZnNBW7RTnMvfC557mi7GLteX07eDWx/u+Q7qgvJ25KXLjN4OZlMEmcQJKgIW7zECZweuAn97z/g//X9FNP/CdHre+j6HVbCSgBJbCOgFrc1+HQHSWgBJTAzRMw771XufqNv3pq5bXXf69z+vQX+qdOPYG4LNKAW0il4mMCJQhW6PQ4oUinSwzEri0md3XBIYhwRJEpXMULBTysSiHUi5oZWLSZ1iz1a+I5l+xlnN2NXaaoiC0GIj+vJ0U9EydfYhx5hqTJOwA4T9t6cR6vFijaaW0Xvh1AVBoHg3EdWN3p3jNdrkiWeIiOM5Bu7+K97ZXOVGWld6TcHjxs/vRf/7Xz67/zal6SfioBJaAElMAogd38so/mo9tKQAkogbuSAKLG1BbOvfnxpVff/uPOiZM/HV6dv3emfcGpYMbTEoQ7xWvM+OawuHuIjx4g7vogyoVxYa32rNU6F8fUw6mXC/McaBGykRb6PGUuItBg01Dxo4S1xOgzkOxpdXho8594lrutxd2DkzoSy1hLiBE/POBhUGzeMWBUG17B/bV6uBVGeKdwh8sM4lS6mKTJQacFLyUQUtKIX6mLh0miQuTTBooUlakGE1I6dOy97MiRf8ye//L/+P6vfOVN5qxJCSgBJaAE1gioxX2NhW4pASWgBG6KgDn54mRy+vyTvXdP/+HyiRNfii5fnPXCnhytVGxI8zgNpdXryAomTwpqTTk0cVimpycRp/2itVbnhdHfHQNSIYCt6B6pwaoFe+hznu9T9COuCy6mVOaxQoRblxbsB6sGc6rqjeJ9vcgeKW5kc6jQh7fSk95FzPiiPgYWeJtwWXFs9WbUy8Z0R+04GRTlP9tlOwsIBM+JpUwvhL8/YtLD799HByeO8SZi0JP2pfMPtxYXZDB77L/+ydf/9P88+lMffOvIkSc7q3nrhhJQAkrgLiew8Rf9LsehzVcCSkAJ3BgB8+ILhy6++J9/++oPX/5n2cLlj1STKPAg0DP4sNdq8GFHKkRtboum2F6fNwXtaLLCGwcKIT56bv32hhvXn8TehoKuOb/9AXYKtkuFf/tW16zGk99wQdG+/PCwjoBCVxzGqeGkTuwUnPG8s42jR9469uGn/uSBJz/0F87zv6HifQNL3VUCSuDuJKAW97vzuWurlYAS2AUBivbWuVOfG1y89FvSXnraj6Mg4KymcIXJpGRzXi/Sdyekd1HVHd16Hd1+A3kWonzzS9mRGdrsRy5gFBq8fYBPfGUQP+C2Wo3w4kWzeOTovHnrO991Hv9Me+Ri3VQCSkAJ3JUEVLjflY9dG60ElMBOCZj3Xp46841v/VZ46exvDk6cesYsL2OopZEAEwwF8GXPhgNRi/zzgI35HgUxBf1Wwvj6lvYi173uCOwu/y3bV1QfbwRWPeJtUUNK4EPnmokklnh5caZ9Insuy8x/G0fGh3j/exXvqwB1QwkogbuUgAr3u/TBa7OVgBK4eQL0aV95483nzr/60tfc5cUPB4tXq1VESvH9AP4t8NOGgDccuDk0t9+4EL/5utzad2wv/LfqvBRyfqLsSScKZWVubrLbTz4VRcbzvIox737/285jz63c2m3X2ikBJaAE9o6ACve9Y6s5KwElcAcRoGif+8krX2i98fYfJlcXni4PBtWq60oNMdp9Ro9BmMM0Q7hDCPjVaU83af9W1uhNLt3m0LWOJusvXrVnrz98i+xtzqCYjRWTVTVrCEbvSr/VlnBhbrJjgk+2gkm3bEqueeGF7znPP79wizRFq6EElIAS2FcCKtz3FbcWpgSUwO1IwFx8sbb047c+tfjaq3+8/M47n6zFYa0K9Tnhe+JnmPkU0VJihD2k57YL1c6Y5qPhEcff5ltbmF+vvTbCzHZGebgclUq+TFSrCCOJyZyWl5q9E+8+d9U4pfb83J+al1/+v51nnlm+Xjl6XgkoASVwpxFQ4X6nPVFtjxJQAmMlgFk/3cVv/MWHF1959ffbb7/z8XTu8uQkhGUD4QwbsLJnEOwDWtmx7WBmUBjh4TCTi/hcm14rsovoKhtdaYoBrZtbpMfarD3N7Prty63r68mAFjAy9VdWECbSl2bVl5pTl34vlWhxvtHKso9kCxeDmeP3vmFef/0HzpMaKjInpp9KQAncLQRUuN8tT1rbqQSUwI4IhD958aHOmfM/1zp55rn4ytwM47RXECe9Cr/2so8ZUSE2E+ScwfouPuztCGcYw++dKdehEPRrQzHt8Vv9oxDeW9VzY4fjmutusOdBhx+K98Lnnfmy7KjVEn+yIc2JpriBI/0sksVBKN3W3EQ/an8ALkv/1Szve/fd7ziPPZbPFnVNJfSAElACSuDOI6DC/c57ptoiJaAExkSg98O/v//c9174jdbLr/y6uXTpwQmozAmvLFM+ZzgyEiF0IWOQu1wgzxNY32OIz/yHdb09mdcXKYPFfrN0g3p3s1tvqWOjkXRGK1a0j/Z2kFs9lR/PrfAkU52oY5bVVNqtZcywytlg8XajwrEEPlzfs5lXXv72pz/oRsmjs9OXcfnrqxnphhJQAkrgDidwvRFOd3jztXlKQAkogc0JmFdfne6dO/P55XMXfiVcXHzUT1KpYxBqo1S2NxSWYlqJM6s8eWR02Zjv5mJ941W3wn7eJrZr82X3dVwT7Wt5jfAxPro5np2MKcVfKS7GhdR3IxyN8cYjPNadv/jslXNvf7H343+4dy0P3VICSkAJ3NkEVLjf2c9XW6cElMAOCJhz56oyd/FDy2++/dsrJ088mV5dLNWiWOquJ1VYffMZPiEooTVTh4ISYSBdWuE5idBmorSoxIg4LQ7peo1A4eRvw/IEIOlYxuSbQrRjpKo4TiTT0pfu5dOPXnjlxX/WfvOVLyBM5MRaJrqlBJSAErhzCairzJ37bLVlSkAJ7JTA6dff337rjd/tnT7xjCzMNWpxLDVY2n26wsQJxCStwUPhTmswJCZdZnCEUhPr7QT6dud2WuE76T7wyfCnyU3AGOIdgj1B58hgoXAn5Wl0oC62F2TxZPx0szrxtZmZe05iEPH3HKdwxrmTeGhblIASUAJrBNTivsZCt5SAElAC8K1+r3Lu1X/86tJ7b31OFuaPNbNYpkoYiAo3mQiDTtvdjiQIHZMvGJiKX9HEw9RLEJYU7Z5Z82VXnDsj4MBVxslKuBnDejEeIIGbTOxRyMewxYc2ok89jcVttYLumfeeaZ08+ZX+qz9Ql5md4da7lIASuI0IqHC/jR6WVlUJKIG9J3D1nasPzb31xvPhhfP3V6O+TCMs4QQWD8bcOEHoR4SRSRAKMraCkgI+t7wbJ4U1mMI9RiVVvG/7pK5jGPcQG99BeE0xiJGPtxvWx50vKmznKAPjDFZ3X2aBOVtcODL/7hs/t3LijU+bt95qbluunlQCSkAJ3OYE1FXmNn+AWn0loATGR2D+rZeOv/X9H/2auXL54YluVKtxUiWITDeBtRceMAbuMH6lBtcNzJQKEUlBWXjFeBCRDqztNpSi9YaheFe3mK2fztZ8yJIjYxOKd3SHIrzhQF9JvJRvNeCWFIUy5ZYEczTJXK8jcyfffrxfq30tmJw6ixu+t3WZekYJKAElcHsT4K+iJiWgBJTAXU/AmHPV5bNXPnbulVd/R8L+8QBuMWWodUZ+zMJYkgjWdLjLVOt1akpYgl0IebjJ0Ld9qM+tzKToXE3rdoZHb/2fXbZru2W1ebve2IQPxDpDQBYsOdSXdeGaQ3/ZMUo55gBvNSbh6+7ircjK5YvVxZMnnumfv/QFc/al47uulmagBJSAErhFCQz/3NyitdNqKQEloAT2gQBnR134m//nF0698PX/vnP25LMP9pIyvTlo+fWoGIeJgn0/kmv9u63RGcXlFaB4LbZphc4TB20ON+0qv3bdodHTw+3CU2X9vRDIw/P90gBbeS75m4Q1FjkXTDaFxOsLJnkU9lxkuxDeu0keBqdasY63GnZQ6rBmznBd8hxxEDA/ihHrPQ0l8R2pN6akfuy+E87R2R8e/cP/4b9x7r9/cTd10HuVgBJQArciAXWVuRWfitZJCSiB/SXw3muH+/NXPuX1eo9gkiUbqN26vOxvLdZKg2AdTetFO8Xx+vN02xlN1tVk9MCG7Y2CnacL0c5tb+QCyneyuBEeI7cxmx2nje3LOxGoBAtAzyHKGOUdCQI+wJaHfT+GyO/2ZmSp+ohcWZ7GWRXuO34CeqMSUAK3KoHdmUVu1VZpvZSAElACN0Gge+HCU60zpz6HKCXHZmFpLizSN5HFWC+lELdinILcivL1wpyW9+KajaL9RirC9o0uvIcCfd0yvAYBXeybB15v30BgvTFZwb6h87DxmpvbZ3vzpXgWnD3VJqxDCHX8h9+7L4EP6Q53JXcQSrrcngnn5u5fOXXyE+bddzW2+81B16uVgBK4DQioxf02eEhaRSWgBPaOgLn07uH3vvnNzy2fOf9Io9OTajmQASLDWBG7iUjdu5qM5rwm1Au9OnqWLiMbreqj13mF/8roTdttb2ini6guTBTNubWdEXPW9nluYxHMouhE5B7qvGpnaWPehXjPuxYYV4BY+sYti+uhJPi5M74+/d4ThOocpNHx8MTbv1yaaZxD6d/eWQ30LiWgBJTArUlALe635nPRWikBJbBPBFrvnnt64dR7Xxgsto6ZGDOgwuViM9G+UUzubfVQD6hVLrkTy/o1DxdLYQX3ofWLZZ3lHDnc9P5wgKgdJIptF2EZHSxcw+6+bdNHOxDbXrjtyaK9W1yE6DIYl4BZVB0Id8xVy/CcCMU5yCLpJ6Fz5dw7PzV/7r3Pm7ffPrRFDnpYCSgBJXBbElDhfls+Nq20ElAC4yBAYbdw4uTz/YtX3leOEikhgkw8gLWduhGJ1mYK9v0V7XTlLoTr5mv+cBeLrSg/qJix0KWEEW9uZuHA0tGFg0sZR5150XrPuOqu3c+Ps3S7v1p4zohVGAcrA0HOpUgb/evZdiKieE9hbYeMxwGIeB/x9hFzv3P10oPL5898vj1/6YNFHrpWAkpACdwJBNRV5k54itoGJaAEdkTg6ty5jyyefffzzsrikSm4XdQwd1LW7YrfqO4ov7HdtJm/OIRzkdI1TWvFtT0+csyGqCwu3mRNgV0k20cY2edxWvF5KBfMudtO0Znhecart3mwTqgruxd7lQrRXnSiWI7LoO6oUGZFO+qHtY/Oih8EEpSrstBuueHlC492L539uJl/68fO4cfbe1U/zVcJKAElsJ8E1v4S7GepWpYSUAJK4IAJmOUz0ytzFz/cmbvyUBCHziRcLuoQgC4t7gdcN0QqRw2KZViZETHPiZ/sbKKoafFGgEK6sJqn8GbZdhnezzySTa619nzbURha1rltC2AhW9MZh7WdrS1CSw5bnq9sz4FdBCzoZPEhwd4uBqNUXSwBJsWquYHU/YqUk1iypeV7wvnFj0lX1F1mHUjdUQJK4HYmoBb32/npad2VgBLYMYHl1088tfjjl341u3T23nIY5S4hiFIycegQtF5kxXthSaZWLSzOo5bfHRd+nRt9REox8OOOU3huY6FLCMW0wUBM+nXH8MX3vQAW5hLWJYh3F9emkmKG1wgTRyUZ7sc9SYZjPI68UnscbiXonNSrVZuPgwmlOKkUlxLcTNB3gQc7OgMIJUMxjJsQvQULOg0uILh0R2G+2KY7D49bHe+gkwFGtNTngRoLcluL/O0QuGZtcO5aZ2Atr5JXoXxnbB2xf8RKZRuDhj7uprOMQauxhO25YOmtH328frj5y+bii//COf6x3nZl6jkloASUwO1AQIX77fCUtI5KQAmMlYA5h1lS3/jBw263e9yLQ/EhRjFfpy3DoULP/1trNg8Won2sldgmM4p2A/EKj3IUTsE+9EF38ZNN/Yr6pXQXwTpJjcRZLBFE+yBCZBVYm6+GLSvcKdKteKeATyDAsU9BP9GYRD7wXYdgR19AfIh2H3nTBYVl3tuYsK4nHi3bBmUadAawoHcAQY8lYCW44LyVzFitJr4pyFmuHtrTDdZjLTng1kTdQnCQXv9wutJ9QgbuYVxxZu0q3VICSkAJ3J4EVLjfns9Na60ElMBuCHQu3p9duvQpZ+nqsUoUSoWiFaKW/toZlCyMzFumNQvwlpfs+kQGgWwjplBGexTrGGxKczjWlPMpxCk0OyKoQEubCII9kW44wBqziELAz/cGVqDDkcRa3CnYaXmnaOfSivL86XJixTvyDiji0UNhuXW/CiaeVHG8hOO4xcZNp1uKQQegYoU7a5AndmyshF+voYvTe7Om69BaFWwZeFeAQ67MoH4tvEWJW8vNwdW5J5KFhYdwgQr3vXkSmqsSUAL7SECF+z7C1qKUgBI4eAIQrkHn3//Jl7pnz3xGWovVCoSuH0ABwkc6oUsIrM/U8AeaEghoWL8p2imkjRXvnsTYzqCiQ8jTGJb2Aereh5W9A9HejSDgMQkRXWVSv7wq0jNYv61LC3x8CuG+Ugh3uMQ4cHNhSEU7iREs1egbyMXFRamVStIsl6VRKUvFhwMNF5Tt4drMgTWbFndiw5Z1lxkC2y/tvtVbEIr3JtoaoUMTdpdl5cqFByfmFp40ly+/6Bw71j3Q56qFKwEloAR2SUCF+y4B6u1KQAncZgQWT1TnT77z+ejS+QfdXlcCN7FiNIGZnQZcs3Fmo4NoHsz6DjoSsIFDGfuwsMOHHfUI8SYggdW7A+EdwZ2mB0t7OwxlBaK9DwtzCCFPy3oDkVVoJqeIpk+6jQKDNYU7U+xEds1OAQqyS4Y1J3biFeeX5qWOCC1TtbpMZ01p1Mp2v1IpSYA8Egr/oYuMda4ZvqKg1d2qebveu4+i7PUlrA1pLWMCrSo6JctxT9oLl48uX7nw0eno4l/iehXu66HpnhJQArcZARXut9kD0+oqASWwSwKLUl4+f/F+ubpYZ/SRKizJgQcpCCt3DA1rBzxS8SJtZdXNz+7hJ03Y+ahPFELXGIEPOwQ7/PEjCPdlWNZDCPcuZgvthLH0INgjvCVIIPYxWtVeW9SOWt36ylsZTz1vpFRq5KfpGmRLoHaHcM91vbQ7LYk4Eyn82WMsYVqXtFkVt1QRzy9hltI8Rw4ipdi3Q1oh3gvhX5S9n+u808Bnhs4HOjMlDN4NAG55aTFYvHjpyWOLnftQn4v7WSctSwkoASUwbgIq3MdNVPNTAkrg1ibQXZzuLy9PlXp9CaBaa3BD8eHrPRgOCGVkFg6tHGr3a9pCPV0I3GtOjumAA3+V3BAONxcUGMN3ZwCLegdLF/VrwTUmhoDvxon0UO8Q5Rrc48FKjlGmkvTz2lsxjnOjLvvW9QbuLkyZDfk4PM9Bp0Ph7pQr1l2oGzEyDWLsQKBTxAv0foIiSvSnQSqiv9j7WOTw/v3yNLJ9GxRbPA+KdqYEHZtys4ZOGTpj7b6sXL5yqLuw9Ag6Lf+I9g9raS/VDyWgBJTAbUVAhftt9bi0skpACeyGgLl4sZa89+59WRg3GSGF0WT4I0j7cQAxGlKgwkpbGtqRqd4p8yhM92NQatG2XLjnkVloIafPfUSfdgj1PgagDmBRpuWdnY0I51O40ziYMdSFcPfgo28QLpKJ9bbinb0AJH5yP0LbmdgmQxch5OEgPyZe06g2BYzgEhNKGiY4P7CMSk4Jqt2V6Xpucef9q2I/v93mcZAfHL6bglMNnZMAlUsGHektr0yHrfbD0r4wg7pdPcj6adlKQAkogd0QUOG+G3p6rxJQArcVgd7Jtz548t/++f9U7Ub3VMsMh4hBjFkHzuMQu6Yi1awktQQCPsh9wIvGjYr2vbPXFs4eIq32slQmJySoNaQDUX2x1ZGz7RVZwlsC+rk7iPoCJY3FQScDWho7HICKEDNw+UHdHZjFkfIZVqmoR1Q1NulRw5SXONzJD9lPaHUMVkUe5Zq9s4NxAN1BKld6V/GWIpMPPvKgNCsVmQRDJ0GduivipYjOg85DtVrGm4A8s42W940W8pEid7Q5+izotMPXFHhvIL3aIVkxAWLTl+XR6aos9duzvR/+8Kvh5PTLKOgbOypMb1ICSkAJ3AIEVLjfAg9Bq6AElMA+Eei5x03sHreWaKtlIV2H7iIMBWkgUJ1sTUDvU62uKaZUrUCc+zZCTA9RYjoJfNozxFKHjI4h1v2hBd0t6o4cuE3x7kAdj8j0a/K+oQMGISBHLqQAJxUeo1d8CIt2Ge5FCUJFBqgL48A7qB8j3iTJRrk+ktF+bfKx8k2CjZgDPc+3Elk4nYbxfXi7gHmk2MvRpASUgBK4/Qgc/F+o24+Z1lgJKIHbkAAFW9JqPxL3exM+rMY+BDpnA+XASq5SaLk8bCLMzQecSk24qsDthf7sy92+tHo96UEsW192zpjEVIh2rke387O7+mR8lkwCu6RwIeJsqHAsAiOs4Zazgmg8nbAvfdSJs7a6mMGViwHICOZ6quLNlDEt5KNW8l1Vcpub6cKfQrhn6Ey4EO8Ooswk/V4z6a4clyuv4nWFJiWgBJTA7UlALe6353PTWisBJXCzBM6eneyvnH06Giw0apgF1IOydDKK9gBiNIbQpA8KFmtqLt9s7mO9vlRpSBQNpNPvyXKnI93+wPqlZ/RxQSeDwpphGCmOV60vEO8uOx8U8eyPbJNsf2Wb8ymzgPB1YXlnmcYaqPMyMVOVtAYD6ytfwUDYCqO30OJuEG0GQpkztK7WaZsy9vKUg7cBGfz/M4b6RAfIRVuSXns6bi89itlUGVJHw0Lu5QPQvJWAEtgzAirc9wytZqwElMAtRWD5zMP9hQtPJf2loASLu4eBqK7hTyCdPyBQ6SYD0W51u/3Yu9oXAzpHfedZ2mqxsGLHCP/Y64bS7Q4kxEBRvDCATz4EKdYU7Ux5PtzO7dv2cyiy7QU7/oDbEMQ/88sg1DOAYQQZvpVARaSH+nhwkakCX9V3pFL24DoD8e6WEG9+YP3ud1z0GG504U6UIMa9D47oW6CThnCZnbYftZfuk7g/jSKujKEYzUIJKAElsO8EDtowsu8N1gKVgBK4+wiYudcb8cKFjyeLc/c6iJTiw3XCRxQVWtzhNGOtyikHNuIXkev9SoWAZ3mroh3bfYxA7fZDacOyPbCiHVLdRdQYdDDcPCDMULTzzqFot4J9fT48u5NkrD8L4qEXeQJJCgHPOvIYI9p0EXJxpTfA0scMrrBoo1NhbDjKfGDsTsod1z1kZRCFJ4O/vZ0RFtsR3Hv67dYkfHwOj6sczUcJKAElsN8EVLjvN3EtTwkogX0lYMzrjaR/6hPJ0onfNK3zx8tJG8I9shZ362gCqzsjkliXEKzpz33Qyc6GCtFOcRzCwm0wCJQTH7k2HAx983NvmI1dDIrqXHTvtgXMmQvdcfBnwvrWQJjDgs23E9aXHWKdrjwduPEUvu4Ow1GWyvbyzdxxWO/Rzspua7nV/Rgya0No4qHC6k43HgTcAc+k26+kUTScfWqru/W4ElACSuDWJaCuMrfus9GaKQElsAsCxrxQkUHpaNp+82knPPfVrH/2ozK4BLeJZUjRw5Tq1jxtYGHPo7nTJYRDVQ/entHFDKk9zOrK2VERGwXCHeIz8BB6EVVGlBlb92E9Ka+tZdyK9l0AG72VfvJM8HGnfi9ceqyUp9mdbydQt0GMJYpQT1i30cEQWN0d1BUn7e0H9cE3ExyywGfLuPVsTYa6plFcTeOsflD10nKVgBJQArsloMJ9twT1fiWgBG45AhDth7rt1/4Lac89X0+9e9KF9x5fuPKT8iBekIkqQhli4GcMQRf7gSScVCijGwp9xyNYZ3P/bjbKeoyMtK6wFhdCduTUzW0iY1r580GmtGsjAgr/wTocIyRKq9+RNizaPZwJU7wRQDgZj7MwQRR7mNUUlc7LG7qycId6mvVCsEPEVGdYyPwS+1ah2MSaxzezho9cgppReKN+cI9hsu3Gjbwvhjj3S7D+x7gK0W5aK32ZqIUyPTGBOzK4+LRlslQdlp/fn9eObzXystfqZrPfwcdq43DvkMVqLuCHsQET1WmplksIXYnBsrErE+U63NvjqYuvvPVPjDn3dce5v796i24oASWgBG4TAircb5MHpdVUAkrgxggY8245Hrzwq3H/xG94YfsRSYJpE10VEy1D8Latj3jmTFsRykGXduKioQDOhflGIXhj5Y7zKoZCz1bdUyBN4aJiQz7SEk7LdiFWuT8i3vM6jIrandWKBCDTV8spxH4huOkqY+tjXXfAEPVNUC/OOOug87F/abNnhU4LOj+2A4Y6WWcfVJxBLR2TVEwWzcrigI74Ktz370FpSUpACYyJwH7+wo6pypqNElACSmBzAsZ8sy7hq58ctL//R0n31Efgy4GAIoiJ3luATFuE5bUL6zHCP0LvWhcU617CWOS5wGOunMBoq7RrS/tWGW84HkO5x7Ca504xeRQZg/jtFMy5LM+lNZoBG/f6xDru1kufHRjbVqxhwLdl5KI9L9Ea/yGFac1PshQRcDA4lbOlwp3H9TiXa17L9TUb997Wz8mKdNQaIh0iXuDnnoIJrk/CShb2JuCIv1tE426M5qcElIASuCECKtxvCJNepASUwK1OwPT/9iFpnf8Zk575qum/9lMmOY+w7HTpOCJO1MWC8ICYdMmHsMyGoQ1TOI3nFne0DrHdKU49LOnWmnBfMAwg2iN4q6ScxRUuPXSRgQOMlcOMT04xXRjdiwrlRvDxCGZyyCV6nrstbyRrBJWxFXAY453CPUbUFrikJIjn7iGiCxxq8hv37HP7B+Qg9I5BOE0Ec7dvBnx00Hx0g7Ksg6BCi01x51W479mz0YyVgBLYSwIq3PeSruatBJTAnhPgjKjS/zfPZf03fyXtnf18lp15WpKLkLlLiOE9SRM6BnUGEHLwjoAbhxs0JIXPs4EVlot1NeE1cKvwoH49mJrTA5Z1fXQyIljdOYcrZy717SRIsLbT9ZwLf7mp1KmwN6Rrj2y44AZ26V7CePEu8s9ddngTxTJzBzua3FEvdiaojWP0MmLOolouSwkTMgEwbziwxImoEAsS9cQbAHR8fC+VAJGEwrSH6DLLZenGjCyD1zCalIASUAK3FwEV7rfX89LaKgElMEIAg1B96f6/XzDhG/9lMjj78TQ8f59Jz0vgdCAqI8zoCbEJd2YDUWlCDETFgMrMr1sxTHcZRiY3sM7aWUKRrwc3Glrcc5E6UtA+b0ZwPWGsdBiyEdgFgt2KZMQmR/x5dFRW9Tq1O1PhLmPdW6zP++56HuwPMAf2EayrjGWS9xVYHl4FiAvrOkUxL0qiGAs6QqgAw1Zi1Kq97GA+WHlwwvNPUZ8AvRwP+y56GFnahnCvVGWldb9574XLzsPPDw6mjlqqElACSmBnBPg2VJMSUAJK4LYjYC3t4fnnk94bfxx2X/tS3Hvzviw+Jak5DZeYPmK1NyDCIWlhtk5DiOA+3E9CLHShoPXYhjqk5IXyhOWdkVRcCGOPAxpxST5QdT0W644yFMvrz4x3L0TIR/qOs2OR0Ukb6tmKchST0dptHVlQ7U3qydbtNuXttxHc8zKGGbLptvl20CfFPTkaSejjjsXlG4t9HZy6saXD1uN50g0KT90KeBcWdwcz4xp8L+KkNZO1T31OsoVPm4sv1jbmoPtKQAkogVuZgFrcb+Wno3VTAkpgUwLW0i5/+1Qazf96HJ5/Lh6cazjJJQizJQyQZLhEWtyR4LfOmOJZGEG4hxibiMCLDqyvpYr1NLGZU/1C4OciGFJ0HMp301rf+EGK8xSCOMPES9aqDeHOQbPW2r5FNhxgO65EdszNZmlBDnNmzwUHR63+PGNggSdnexxW+PHVZFjuNatRD/zi5Fqpjq04uj3Wt4h1xvOlaxSt8Gk0kYanft+kvaelLDPGfOe7jvOZi0UuulYCSkAJ3MoEVLjfyk9H66YElMCmBAbv/egPHO/Mb3vemz9dcs4HpUoHGh3WVcQ8NzKQrAr/7B5mR02bItVIatVAnFnMu9Oi7mxi8aUMH3LfDCDwYYmFVTuVikSI6R55ZVi3N48UOEZtvGm79uugFeVbFMY2cnAuNTrXtO9zm0uReDyBdqanDNdcMGzARuvhNv7vcWKtNqa1Cnp4lkETzxt++hHco8Iwln4Z3xGnJZUEru3Z4UdN75VHpTTx06l56EXT/d//hdQ+8g3H+djBOudvbJLuKwEloAQ2EFDhvgGI7ioBJXBrEzDhNx/vXfi7X3Ll6tOZaQWO6UAx9mBUpWMJrb70zKaIWxNydIWx0WNGmra5CN97yTlShS03XcQhty47uIJWbIwQRdvg276NNZtuKrQpjyONivT1+Q3zt2Fm1s6wvi7CVdr6sb4HnehXRBcj66mPNb8TEPGsn4NJpXwnBCm8gUnDYyaqfjzzp9rBoNkC62/jmlugAQcNUMtXAkrgViWgwv1WfTJaLyWgBK4hEHb+7VNR642vGTn1KWPmZk1G6+kydDlD/VHfwnpu6vC1HgwtxNRgkLx2wCaEPcQcxX3h355LNAo7ijwut0YqI/xjiga5EMGGfvoQ7naQKKpHkYwDtqIU2IXve1Hzke5KcWhH69zDffNbKYCZCtcYH/HbfZ/DWVFfPIuDTnzcfPIcmuowpCZdofDsKdodNxbHa+Nsh949EofhEd9kX8YBN5C/yNCmf0D7csAH3RAtXwkoASWwgYAK9w1AdFcJKIFbk4AZ/LtHw9Yr/zztv/clk56eNWYZQnwRwqwP0d7AugvLO6zSEGQIJ4NGULohrCEGKdLrmuKdQhee4/kpNpOC3WrQUdF+8AbXEkRwgkG0NrIMRDsFp2E7aDGm1X2DOi+kPAeVYogoWzb2NGqH9tgBsp0KhNBEXcp+IGVOvoSLTBKNveybzZAGdrwDwKNl6EpEv4E7lN0jGoYN8tmxQ4QZzKQbyQo4xzMVx3zZxSxXXhTBv0r+9mbL1OuVgBJQAvtBQIX7flDWMpSAEtgVAdP91vGo89rvx/13v5SFpx9xncsQ3V2Ish4EJEQ7tTZEO8Ua445T2FLb5pZ2WOFhZWXMdjuAc+jKwVsMhbAV74UShqi/BYyt1ZKdLkj8iPHU2dFgyEpajFHpItLjqJLG4SIVLSn2d7YuxP9obiSGBD40+jvDevnYLmEi0hI6SwEuzw44hrutI74LrC07OUV0IGyCH7o16AQJIsykDsZCcFomw7c2sLwn/pQbBT9bcgdl03/pDaf60TM2L/1QAkpACdxCBIpf51uoSloVJaAElMAaAdP5+rGo//bvhf03fjWLTz4i5gwsuy0Ixx40bG5fdmFldz3IdriYeNZlg5Z2inAOPOXsqDDBIpqM3WdYQKtH6TaDmT9pwUZxPJZb5XHfAacK2gItjFlIURcbGQd1posPPl2YuOkes7GW1PHORr+ZHbZjY94bs6FApxuPjX+P7RLi5VcQAcfO7ZocvKuM4ZsXvqlASE16/tvFinYIeevRg3MAxklePbeB7l4Lb20uwm3m5OSg9+Ynwt6bv9ad/9bxje3WfSWgBJTAQRNQi/tBPwEtXwkogS0JmPbfHI5W3vrDMH7jN5L4nSetaPfmIbpSa3j2GCEGwhGSFf9pBrY7sKbm0jMPkUjRDvE+FOyQ9PgH8Yu74NxhRbsVwvZWSviDF54BzNgBZohijBzOYkqZThFKvxTbzRi+NdhMYBcWZtw0/jTkSvcYEqTVPQD2MkQ7vZMokFO6ysB15kATHyjeUrDTRteo3NKONy6Ew+eMWVU9CHd2OPiVSRAXkmMlMjBP0u6R1PveHwX+QzODlX/3J5WJX377QNuihSsBJaAERgiocB+BoZtKQAncOgRM+6XD8eDlXwnDM78UR+eeyuQirKVLGFhYFQ+K1VqY4adMHcaBh7RG24P2CHZpreaIVQpfWtztGtt08aBghwjFSERs2TuH57FH7V7kwc0DSHQ/ob8460xxbN1l7BsEtgUn2QSmoZDOd4pPEhlH2jofWqtt14fO5EicoDbA6Fl2Mhy+IcCg0INM9L8HNHwvOMSW3wv4uNvODupHfog7T7wlbDp8s4HtNOlBtKMFcE+KvXc+iHb8lp9WYjP46z9xKl85dZDt0bKVgBJQAgUBFe4FCV0rASVwyxAwS3/2YDL4+z+I+m/+Whyffjo178E3+SIspBgECZGYYVAhfVsM4rELFsPIIUiZVfQUazXpU7KVYqk5gZhDJZk51JFsLpHucow8IDitbwx/AimGGUqSiWKV84EWytgeHP8Hyh7WeOj2Qjs6fNgh0ksQlbPNBvocqGsnxeBJTBoEJe8GJdvREMSrt+J9mENROdbcWtvpJmKj5BRn1q/ZbF67VeJ5JgNlC3lrMWHPMmLMe+sig9joWRxJFYp9eqIiE9USYuZjYitwrFbLuCYX9GslrZVo+yN5Ebv4JL2Nzyh/gsw0cBHD3y2LF2DuVAj4br8tPVmS6VpJ7nn0MHoaHKwMSztQsm/HAc0+rPQeBH6p1JdBelKi/uKjibn6BzVpo8l/9785zhev7KLCeqsSUAJKYCwE8r8dY8lKM1ECSkAJ7J6AMd+fSOLTv5skp75i0vNPO7IAQQhh5URwHaHmwqyoVl3SWRlHMq7hXT2MLZ67wsCvGcIsdyuBMoOiZbhCz85EShmKk0Nxu+omQ/EOVZkPaN19O3aTQz0oS80vSYV1Rl0Z7tIkEMPWipyL/CJ/K1fZFg5eXdOuxekdrXPxXoh2ZrEmvLkXx4iDDgu2jw6FHZQKfxkOWM09UcZUCRa0Zdoo2nnhWh3t2xQ7IBnfBnTS6Cpj+AYGpnUHot1+OdixK25Z3chzcb1FNAYuWdncw1l64SsSnftsPlvvlhXSE0pACSiBfSHAv4OalIASUAK3BAFjXgzS9MRn+/HLv2HSC09Lipno4XvsOisQsHUaSqG5+LMF+zQt7YYuGVhDNDLsYxE5Jg+diHM4JoZxu30pVTGfZoXzqsKSTN1ul6HtAiKU+xzQao8MRf1BQWmWyzKoQLyXS1IOOVFQKgk6LvRJoasHZau1rm+oYG5p30zUbrjwurvFOwfraAKOtL0jWS4Z6jOQAANoy7Cu17BUygHcTlA3uiGB5fDq65Yy/gtYSzxL1IXPM8Hzh/cL+nYIpRlgIHMlEL+Cjh7awyedCUOK8h4cQ73Z8WG3ww3QiUsuW6+qLCx/JAlqv+87zbM49QMsmpSAElACB0Zg+FfrwMrXgpWAElAClgAsuE4SvvGFKHrnjwaDkx+K4nNwc7gEIUXhHubeIfZKBn3kTxcXDt/0rFCkq0kKDUavGTuDKNY4ggMhdFkmlTpEMMSwYxUvRdvakot2m7kV7/nW3n+yA1GkkU2pwPm6VilJs1Kxopg+5XSdSeE/ng4V+9q95EAhn69H8ynyvtl1Lv3z/Ip7KWp5hPZ+zk4bIOxNvVKVRrUqVYxM9VEvD8LdEfifHGhCDTGVUooODr8PKcR7Rks7fKy8CmakreM7g+MZLfC2E4TrbYNzcvy0b3akgqiRi5IOznhR753n0viN3zXm3z98oE3TwpWAErjrCaz/Zb7rcSgAJaAEDopAHP/rj4bhqd+LBic+GaXLbpq2IREhAiEIrWsLFFVq2hCwucDiihbyFKKcYpaRZKwgg3S0s47i143GVBtXHKb6SqMs5Tpm0rTX5ddS7Bdy1K7p+24Hsu4thbzu15bBltnW0dcd7ie1elnq9Qo6HKg3jMI2Wg5EaOHOk6PIZTZzsz/oY3pbQJZFKlxwaFFnv6GONwLNagVL1XYsOJCWnA0i3zDizEEnxIuxb2MysLCdOb58KcPtqAqLOzpwtMAbcuR3C/UdfqXybwPa56UdRPXp2zc8kq5IPDgz2++98/NR/+Q/NebP7jno9mn5SkAJ3L0E1FXm7n322nIlcMsQoBgadE99NR6c/mQ/On3YwYBMG2cbtk8f7jCcOTTDAELac+k2kjs00DUGogsDJinArV+zlV4+gxJKCeccaUDEh4jXDTebZkVKdVpj0RlgFqsJcnfoArJ66IA3ogH8+NHraEAcT8G/vQs3jnAQo615WnNk4b6V62gsGSFhvXqM+ztMFOkGFmmWRSt7/n6CXahMJpsTMomOUAOdCsacz+IYExjFEuCNAGdV3ftEh5atewgOwjvCuch20hgCkmRMGffUcE8j/w6kiOufIoY7v1f8rtkvk80VnZOYk6eyk4fDJpQwnpO4W35f6tR+y5ikBZeuf+k4HzvoVwt7j1lLUAJK4JYjsB+/sLdco7VCSkAJ3DoE6CKTxktfjKMLX+j1zz886F9AXPBUyrSSY3BmyatAviNCCH3a6fkCl5F8EClnQsUgSTdfMgxAZLKuM1D0Dga0Mlk5SxNFDZMzVZAH8uZVucDlFUxwvmEvwCCyOzXhAaewDTEZRVL3fZmq12SyVpMa3FEQbRwvBIa9DivQeQBCfXR7DHUv/jBQvFsXmeG62J6dnJCpRhM++BV7PokTSaK+pKhbHppzDJW4bhbbPCiMlGXHhx04G8vdR71KWKpghXEO4uHtADpwtLQbpzEsifnxjQKFewmyHW9oPHzvACPFOIt+dFb6vZNPDTrvfFXk7BPXrZ5eoASUgBLYAwLF7/MeZK1ZKgEloARuhMC3PpCZpS/FydWnonhRonAJk/lEEOzwo4YA8zHVpYcBqfThdmB5xhz1yBRyHC4txkYLwQBU695CSzOVGKzvVrhjG9ZUG9Obv3RwPXHgO26jz1CBFomCfZisaId4P+iU9PtQiwhNiEG1NUSYafi0bMPNA+3DuEmwgAWcLMAhX/A5FO/s1Ow+5U5ENp9hfsWIAO7W2ZGAaGd4TqYE1vYEVvfMxs23h/bpY7O28ntSFA8XKk68hfCQdI9xIeCtcGcnz7pFUbivsVv9JiB6D/3fHXScECcS7ja+xNESXGbm/XBw5YlMWj9nzDcfLkrRtRJQAkpgvwis/k7tV4FajhJQAkqgIGB6/+q5qPPmf5f03v5Clrx7yDXziHgIlwu4yqwlumoUiUK1SBvtDmv7vjcB4RVKDDeHFGFFKm5V3G5ZWm/Hcvn1SJZ+ksiMf0wmomM4XoJ6g292RSTMetLrdRCBBjsHmNwwy0NX4o0DB1l2EZt9cRDKVQj6ThTKlfYKBld6kkDYx+jcJBCWcAyxnRQ4hchEacJuO7iPYpoLOzBmKKwLWc5OjIv7udiwk1C8Lo75cE1K++A3QAcCorwcODJZrclsoyET8G8/MlOFCxPebSA/n7OQwrJtO1Vkhg5EPq+t3dkjinzWxXeBnZjiG8Lj6JwtGKkdKkuvtCinByckOeLKA8+V5MGPzYqP7V7KkOx5h48i30VnzbMdQ4h12zHKOyQ2UpE/kMStgXEHlvdpjLOYwsDcD58KGo9+s1z/yP/iVH/7NDLTpASUgBLYFwLq474vmLUQJaAENhIw5jtN6b78WSdbecLNOoc8TJkET26IQM68yVQIs3wv/1wT56NH821en593IMQY5s+BL4QVrVRnsJyWMDCxNuXKir8CEUa/bAxA5F24lsKW/tsUsQedDP3LrdUYchp1c/EqoIRRnxW4y3CwZdCjHz9qyzrTOgwLso/Rqw7eKrDdySCy7bHtyDPKhftwe5i57bAYMmL7cTHFOymmWdfmW4aKDTCos46Qj1O1KhZY/0tlorRWbRv+kUoXN+famXfvR9q+nAADHDKDqavwfD1U1q/B5QrhQO2Uu+lop3C0rsPnzmgzmAQrT6SSuwvZrgG+Rw46lsasPIIwpZ9ITesT+N6cxTMqbhjNULeVgBJQAmMnoMJ97Eg1QyWgBG6IQP/K0ya9/DOSLnzQQchHR7pKCyUqAABAAElEQVRwicFAUmig2E6qlOdS2FLX8qTA2kon8TjOw3pKGzJdZtIE/tfwZ/aCQCqTgTSPVmSh0pakx0GHFKjwa4flOrdKI2Qgtg865cKdLj+Q57C4BxTtiOneQNNKWSBdzFoawtrdg2+5SSDy4VtucI2La9kJiVKEz8SayQp/rhlnfXhsqLKRPxxgcJnDwQNM7ARw1e/Av9uXeqkkE4hsM1mrywSEO63tVUxihdGoVrjTfSa3tOcCl3nZlGcz3NnrFTseeOqrZWaILx/IwPRkgBl2/YaR+mwmzSn448NVJkIMeivgt9PadKPBd4fts/0iMkIzPAy+xfRTGCA9D+71x0186Rc89y9fxMGTe91KzV8JKAElQAIH/xdKn4MSUAJ3HQGz8uezSXzmy5JcfiLJ5hGIfVkCh8Id4opRPlYV4NAKagmNbm+HDGISEUMosDj5UoYQhTGEJuYIEgeRUOqHqlKfWJABBn8O4BqDaZng/h5Y1/kMQeB9twJr9lZW2e3KHeM5viHgYu3gcJuBIC/BXaUBf54Egv3YzLQM4lRWen1ZCQdwn0GEFA7ajTDJEN1eRkU79inYecgudI+hCmXuKCKjMoVItW8c7HG8mSj70oBv/STCPU41aogek8dq59MJcH3uckMXJnSUUE87ABjUcqs7D+3/OIH8K5N36BivPQx7Ejp4o4LeztThKalN1iDcI4hufC+G1SNifquGOHImQwb5wWEHcXgdw5N6eCsUp0tgDUd/7/Kz4l36JGZVPeM4zxevimw++qEElIAS2AsCKtz3gqrmqQSUwLYE+unCZyW79IUkvnyfJAsQeisQkxg86A2gl/CzZAegbpvFtiezrGMHIrpwIUE0dFjde2IwcyYHpwawIDeONiXsdmWA2UgriANPnUk9B+0rJbiCHLhwh/mYs8DSHYauGWgMOjaoJNAEUMf3NCalF8ZwnfGk3EHwQ1zP/YRvF+BmY03QJASljn6LFe75bi5ROeCXiUKbgt0ma23Pt49NTyMITyATmACqgUmryiWG5cQ5+LtHSYpoP9gedizWRPtaTHS60hxcQj3KGQY5I8qNn8jkZEUmZxtwk6rgOXOgKpiOVs72NvJOIUOKsjNiJ2caucaRNprLzg++IOgM0L0IUSHxnZl7NBnM/VxkDr2Ey98YuUU3lYASUAJ7QkCF+55g1UyVgBLYigCsk4dal//+S8ZceMIkV+DmsQQ9CmGN6B+UTa4TQGyvGS/XNGCxRZHFpdi/tqTI9BHMD24vEJguZwQydQxSDVEOLOleJJP3NWVpoS/JPHzBIZAziPckQvkQrwFNt0OL7LU579MRH8KQ1QYHurNgRCSio6ATAss7216C+PTgz+5jEG0F2wwb2fZ60of1neKdIQ0pyFMsXK8OTh3uA0wu5nEvXWvo1k8rfRGD/QjCPVZwkPmWsTDOueEES+zdINoNo63kEp/PgJb2NdFudfCeY2Lp6+S35UViTAO3LwMMKpUqOhmzYDSFQJp448IoRAE6JAkGLW+VbP1tp2TYN7HfteJqdlhivJXp4duHAcLJfDmJzj0XeNM/gygzsLp/uVtcqWsloASUwF4QUOG+F1Q1TyWgBLYhsPRYEl58xnXmprPsKvT3Mq6FkDINCEQIeERIgUkTAikX5tdKdB7PBexW4j2K6rCc9yHaYWH34c+eckIdREjJWvBZhtC9Z1JKp2FbrUK4Q3iyrLQbWou7KUGcHnByYUmnnzsFdwahzImQDKLjGFjeqVfDFYwJQMSZOkRo1ashikxJepWSdBF1JoIL0BT80K1wh+97jPsTLCks5YyzzjzLASLpUPwjDx8i3ocQt2E3rZ+8I1NlcAOnCri49JeH4LfPBNhZBfts2OGhYMeusRNkYY26rXo57SNDK7aHoh21kAEs5LEH1yuEaK9No22YeEvcASzpCLFZ8RAtx2K0NVwv//NvFL9dPG7zxUfeHeBBfldgvQ866ALC4i4LeC6T70uima947Zkf44pvY9GkBJSAEtgzAirc9wytZqwElMBGAphxclLkrY85ycoDmdOGsZYuCHSPadrBhVYw0cLMVKyHAj4/mIv5XLjzCK8tjuVXcB/GcyvQXahMj6KSulOq0J59CFfEhJ88JC4n44H7DP2WKd655tykBtb5g06OnfWHLYHYpvWc/i5oK8U8/dU73b5UKlUJag3EUy+LgTtLrRTAvQUe2IinXpqYsgKdop1CPsYg1hgDWiNY4yneq7jHhoGE8A/gPlSC8C9zGwKeVv1s+ap1jWGYRftHAm8g6F2D/gRq4Uuflvci4fnwCVDkHoRoL6qRr3OJHeENTuqFUq6g/lV8RzD5Eidi4tsB2wgId6bhN211YGtRf7aH59ZEffE9y/P3/AYGquK7ZFp4JlcxvmD+qSxbhq/7t19znJ9eYt6alIASUAJ7QUCF+15Q1TyVgBLYlMDgyg9/caX7xtecaP4ez+/A2kv3lSZEEIRSCrGVMH42JstZJ9ZHsyqk1uixa7frzS4EKmRan9HNmwiliPzh9+7AOu1Pwl2m35MHnjgiXu+qnH/ltLQGLbnv0PtkOq7KyuWWlBr8aaR844JE1wlrfs3L37p++eW7/eSERkxWXGPg7GoadmamJmExZ4JIH8Qtu0mRWYforkPAMwwiE3SrIDxMvth5V+1hdFLWJxvWMcZbDy5IFVje6dONroIVtfY8dK91YILVGfZ8mwex4EUAjfe2c5QrXTJbk7w2w5v8sKiZy4aKFpFj+hiU68FyXirxLQ0jB/FtCYbOsmdRXZC53rJM3e/IscdnpXnfYZFZtKeBeuHtwWBp0XbYbMeweKbDzgefN4tkXHrrL2XPw1UIHSbkjO8QPpB6iLrDOPriwF3GXJFsMH1Pkp74pZIXnMCbjr9EnYZX5tfrpxJQAkpgXARUuI+LpOajBJTAtgRM7z/eO1j5x8+7pv0EphSCtIOlHS4Y0F2rAi2XezejeTa7FkqSrh02UYDliRosw2ysLhS9Cbri1mBpnkJMGYSINBgAytCBDgbFuuhFXCvMWckip/1YUyZuSMUbCByGS/4wMa74aMXyEx7V9DZp9JaN4nj1NttZybsuFOZbXmdt03m5FNaZ9cNfzWVHG1uVVVjEHZcjGPiY2YHAM84iG3rdZZB7dADdMt461MCpiQg7VVYB1nE8X4Nwow6i82zMv8BZfGtYTtFJyAkgC9xky8SmJw20umvDjDroDBhsZ8nSh9Jo7ue9zl+8iUu4aFICSkAJjJ2ACvexI9UMlYAS2EgAA1IxevL0l8Vc/Iwn803HW4TwQShGxMVmvHWIeeiim/05KuTWxtK4bwMV2rzXzsLhmQKOriAU7o2KNI8FMnlvVdpwI+n1l8SNMFkPwiDmOW+WP49tL4rXytvF1ohI3ywXvqFYS8OdoRqnuFwVm2sXrd9ad/+oSM0vS1gA/lPAIlan3Wb2sG3bC6yEZR5DJesgjOYqlg15ry94PHuc3ZULU2Z99/GWBvHsWV8nG0i5iUHGMwhdeRjfqTr9pjqYlKoDlyJ03CDo022GkNo2D1naNsPanqd8zVIxLhhlYeZYvH2I8Z1Kk0W8jXAmo4H/WTervGHM35xynF/YegTsMEddKQEloARulsDN/qW82fz1eiWgBJSAxL35DzvR6V/MknMf8J0FqCsId1g/6ZLgZRDt/DcqVnNNtg25QkxtcclqJ4DOHR2UR9EO/YmoIoIQkBkspH7dRVjIqkwvNSRZasmg3YHnCSzwHlxNhtLd3nQAH7SiD7XjpqWPtn61GzE0I1M3e6tic9Pbr3vQWpyHDCjVC42+ZoWGnMczGtXodCOx93EA5y5TbrnfPBNy8ejKw/JhcWckoAxvStjk/O0DnutMRaqH8UZlBi5FVfj5wwofJeisIT69h0W6kNmjlb+mKE69xL4ILlr3XeQgZ5SPkx4i/9CBxjB+fsqBqhhDELqP+qn/JQk/8Fe47IS9WD+UgBJQAmMkoMJ9jDA1KyWgBK4lAGt7Y7D0o59No9MfM9llRB+8CtEOf3NIHfoOUxflop1SCWJsnVCyh276A7bQEb0F8cX/zBeRawRlY3oemE3hbjHZlMkjngxmMYDzMvyWe5GdXROybKTMjRXK6zlywR5srrlzbMaD4ReLVMjk0eswQeiuEuOZ0+uExRQdg1xM8+0Is8ZRrgs0I9vrOmA7rAU7AFsl1olx9x1UxIp2PA7DA5g4y/Uxc2ypLrV7XKnOYrIk9tcCONNgMG2WwR8eA0rXWrS+BDah6IzwjUJeBR4lBxRimWNANcZM8JyTlfA9ZsQZfpPhLgNLv0kcNzXVx+J0/kO4RIU7IGhSAkpgvASK3+Tx5qq5KQEloASGBOLe5ceT+Pznw/jsA2l6BZbSFmRxhIWTI+V+w5BMVhhRMO4+8WfNDqvEmgKcCwVXLszo4sCJdFJY3qWcSIA4383DNalOYBBiCaET8SYgF2n2lgP6yNvAdlghzLcRI4sVixyUObLkUwfRCozjuHy7hQJ1dNl4rXUnQtkp3IpSxHPnPrcxAgD5c7HSFWywtj0GdjTgvjJcdgtttBOyMa+84wALOwX8cCyDgzp6GIFcwuRa1WZVmvdOS3UaQh6iPXMR8hMzQhnGcUdmBu5QoymX5qNHyKZoK9s5TKuVwncJ1nuBcHdMBe4yPgY/pwinifCjzhKILNybpXOf7nS+fqy4VddKQAkogXER4F8HTUpACSiBPSOAWO0/FWaX3xcnlzGAEBE94LpShH9clUV0ZaGLBUT17sR7/pNGgZlbVos1BWbeROM0oYEzG/wxRlQbmXCkdqgsFcT7NjWEkuTEPUzWwppv7venC5HOZVWs2/aM1iI/v3rd6Kkb2KYGHV14ixW1xZrnh8VT4FPY83o79pNIi2TFbC7aV0U8rd+7TLYuwzoWWVGwc8FhCPa1SnByKAevGIKKQTQgRMSZxFy5x+qYIZf1YHSeWJwK7q1CbOPaZHCt6znLYyrWUPrYWyvDnuQRwOCSdxqQP66jcA9weSnAxEwBot24nYox859O/UvPGvP6MPxPkYOulYASUAK7I3DtL9Pu8tO7lYASUAKrBIz5h3tT6TyTpiv3J5z8CL7lcDRePZ/LsGKX/sPrraHFmWvXm103+nPGbSxW4OXbFKBWZ7IUrykRZs+MXAi7khG/iRjmEzDJliHcaaGF5Z8iblTcjm5fW58xHylU81A85n2ItfbRCp8vebmFgC/E7fVqw/zyPNeupCAuEpyY6MhkF1r3rTWfTuWUzUOxvv7Z5azH4SZT1GFVRBcH8tLtHtu76saPohkx00Ws9gCDT/0aXGSa0MuIT88Ali5mOsWwBXztWH+4zUT0n7k2Fd+o/DtS0Fhjnt/Bfbx9wEWFtZ/TzjISkQervo/vk4Pvj8jKk4ia9HwoFx68tiQ9ogSUgBLYOQH1cd85O71TCSiB6xBoz73wO2H/R8875t1yw1+CLoZVdACJZDghDn5+3GpuzUU+KSO+ZAj5YUqI7c5wkZsnSie6a1ybKL3y4wGi1dhOgFWnSd4dMD2I1VyehZ2GVH24OcCUnDlwcXioIdOT98nKkQty4rVFue8KBqn2IY4T+MGXG1KuwiIPl5skNph8CJMiQawxUSjbtOriw/wh4tBLYP03imNeS2G42XGeKxLdOzam9TzydvCa6+W1MZ/R/Y33FmXU4mJr9Op8m/W/1oU+d57hFRvzvDaHNW7sTI2mXDTDRk6+YEqnnCDFTK94nEGGcQu8gJ0aDCLGdLHSrfRlsT8vnWxe6lN4c/LMEWkgPn82+RY44+2NB46cvCpEPvlUUigOFvcMSn5DKqLn5Gb3tQmmGLUeEwDkVxf1RacgQThTzj3A7xlratJAMtZL5iU8++MJU1n6p97EUs8s//X/6kx9RSdl2sBbd5WAEtgZgfyvz87u1buUgBJQAlsSMP2/esA47Wcdp/uAB6snBxM6FEF0pUD4wFGBNyrgRre3zPymTxSKK7+REW2ME8Cf3ZEkiyHCaHlPxJ/ABEaHYgjzUEJ3gKNY0j6ikuAaCPYs4yymaAXqz2W0DRRwTHtT/7ze+/XJdm237F896DfPP1ND1sPtDBbuMB3IIOrYGVKDJkT7DN6aTOI5I4oMO0/D6aL2+XmwXMh4vsmR3gMYsPpTEoQPY0eTElACSmAsBFS4jwWjZqIElMBGApGZe1bM4gcwGLXk2NCPtLRSQPvDNcUYQjWuptxaXQjg1cM72sjF3la3ukGAAarwaYflPzKIKOP04N+eSuNISWYfbIipYybOEo/3ZZD1JIwh3hEvPKOzN+rvD4W7ByHJkOeFgL8TRPtWzMZ5nJw2Y1V0FuzTowa2KR/0Csp2j1+hDC9rellfegkiAZVCmThakYn7G1I6DEs6np21tNtpTvlugN+rYmEW4/qzR0t7njNzZSpy9jwGiu+ik7f0vihrPWZP6ocSUAJKYAwEit+ZMWSlWSgBJaAEcgKYgGZCovmPiVl4SDC5kg2/aN1J8JNjFRt/erhAha0KNJyi2ELEl7El21G49mfORzx3z0U5NqZ7HxZ3DCqEUG9gkOrh+6akPAnXiibcP8oQ67C7JzFEWoQ3BoknPtxnAozShEuzjeedu99QwhUpF5jFnq5vnkAh4K3LkX2GDLsIdxSgTfE9in0MMrUdrj4mW3IwiVZdph+YkPIhvM2pwj0GA52NHey8UVqzLqPP6ubrdu0d+fcrf+rMG2Mm8MbGxSBsky4dl3jxadP6xsy19+kRJaAElMDNE1Af95tnpncoASVwHQLJ8sIzcTz/qSxemhIbO5tDHZkggE0MUQOxA6u1Gc5+yTMI3AdLPP3RrxXaPL/zxPy4DD2zoQr5BsCFH3XguXayJdbNC6qIRFKBIK9JfE8FVl36sxuJW6gbrO283YVvtAsXGxei0IGAZHQadjwYZYQRV6z/tW3ouMUh8r6LEic44jOzKME23x1auPEoY3BP0PEqNT2pHytBuDeldAShY+qYxdRBPHXbSbTfthFq+feKn7t9Ouxr2rqN5J7nym82B6mGiKAEN55kqZ5GC8/F1Q6t7j9Yd7nuKAEloAR2QCD/JdvBjXqLElACSmAzAoi24Ubhez+bxZcfz9IliPEehC6jqWOWSShcuqfYwXzch/wxsMgPdRbUEO2qY7S4W8F+bS05GY9A+LkQ54GPWTQh5B24xYgfSQk+0lMP16VxX1nK9JuuY6Ap/WFQW85IygGp3PXQFmsZRmtoD+a27SCsztp6bbl65MYI2LcZ4FlEy6GlPQH4MMgkxPMKvQ4iAWVSRwdr6sEJqd6LQc2TzHuAqDG5+1UhzvlY8vCgN1b2jV2VRx269lqWivlUMSjWhatMllyVOLrymKRzH0aEpeq11+sRJaAElMDNEVDhfnO89GoloASuS+AfDqXJmU+m6bljcJXB1b2hROfPDf3KrcyFcZr7az9BVgRDZTH44HjSMG/rasHtwkbKUJDcxTFEB3EwSY9AaKUMVem14R/dkcb9Fakfh3DHrKou3GYMwgwaD7NvQuwbuPJQvDM31tUdCvhCZFqr+3gacMfmwkdiH8uGFpLrasfIjiPIL6AFPcWJBM8gChLpBisiUwk6V1VpYEyCHEGGFYT3xJiJOKR/eZH43Iffg+LQPqw9DGzmfAViljEu4uq9Jr360xIuH9+HorUIJaAE7nAC+/+LdocD1eYpASXQP5Q6V45l5ipQtCBui9B6+LmxUUEo2vKfHusWs6rgOJX8uET79k8BLutwqYA/tAdvQR+Wf8x8SReLFG8HEg6YPexJMINBkU1Y0isQ7og4YzyK9hhNQIQcK9hz6ztLWvsh5VbRQdi+Drfy2UJAb7Xe67pvjNjDYRH55E9GIjyH0MNg4noq5Vm8ETmEAanwc0+8ASLN9CWOG6vfos0t7Xv3HSuevMvOHSMXGQxQNW307TpPJEn7UbxxKi7Za4SavxJQAncoAfVxv0MfrDZLCRwEAWNe8LOFH/181r78gBNchlEbvuTUSZgePoWIcQXWUU6MA3eZNU9jhoiEWF6VNPSHX5PCG9uxvewqzo6srQ8L92kmx4LUdGFZh2dMYt8GQL+zI4Fwj/BqF4dzXdIH/oGGHK0dlmqzJxdeWpD5pctSR+jII/V7JRwwTnsuC221ocdgIMZ9dJGAkC+Kx/bGtOpSsyoviyvyuuV7qzCKk/u63iziy04qMCpT2W52BNiy4WgDdITW2mxjtIMeD5UqDYThRKT0qC9hAis7/iVlWNSDHkK4hzJzbxWDUWvSPIrcvBVJVloSOsuYfCmT6kwk2QpLyGPp5/XmU+FDyf3k82M7/9z86eQPneeSpIHBz124U6EjgTjzreztx2pu7Zcb7n96Dacv7LxkvVMJKIG7nYAK97v9G6DtVwLjJLC8fJ8xy0/BZ7wBG6j1A3cRt92B20AejxuFwe0hlzj5ZyHdKOooGMcz+2aedyHU8yYicypJp43yKa+2SehwQHlhJlUHM6oaxHZHzPdl+N4vDaQdzWPyppptG+aTGiYMSmT97d6w7OLUpuvNrmGdVjPc9K7b7SBF+Kh4Z/2v10Je3+m1MBsqum+YZNfHM0gzWtkxQVcJEx5VQ2k+eFRqcGVyp5FhBS5MmFTJIMZ+hs4XYnji4Mbnuxlv1mZvEsdAwAMfjmGISGTHTwzwOqn9lATLD6FEFe57g11zVQJ3BQGaITQpASWgBMZDIF18JsvmPsyZTwMT2nCJLoJuMxoLfE2GZTBUH91OMFB1tVRrp7bifiw/SjYUYGHVHxVttO6zHnl5a+uiIqwR6gW3GYE7hlS64mNCpskHfZl6ANFkYH1fiS9K4nfgmoFY71DrGLJq82OHw8XgVQ5a3XnaKDh3ntNB3slOTJFGjOq2YzZqzS/OFevinl5/IBF7RSUfrkqepCWI8kok3gQs6gj5OPt4XWoPgPsMnnEFLk4Yo4A4M3aQs32ZYzPa7Ju02bGi1PGt+cbFfivoMgMXHgOXMXRoH4nN1Y/irRReO2lSAkpACeyMgFrcd8ZN71ICSmADAbPyV4eS/mufyKK5R3y4nLgI+0hh7FihDMcSq84ootdCPjJ0nhXPELzjlayjYr2o6FaibfTaXHFaCy7q5pQhy6fL0kSkGDcpyaDbk3aHAyTRKUlc8a1Yh28NbuMbhtx9hlFzdvPTOl4SRev3e128QWG5G4X5aF1Gz62KeqcKpAHcZRCuMwsZKwaWdleax2oycbwipUN4ZojXbmCFj+CCBXs8ogJhMiy3hG8c3LJwx0EmRknCpLziY8OH+5Th2In06vEsmf+cBEf+I+r2xkHWT8tWAkrg9iWwm78ut2+rteZKQAnsAYH2YyZa+Kk0XJjwGavd0LAIqzVEbwYB4yBGO90guL3mVJK7mBQ+7YW0HpXSO6voaA5FrlwX28y1uIbHim0eh7cFhDhimCBc5EDKcPrBhtQGvtSXfbhxwPe6DUHGgbZpCZZVzMKKa2nudSEZHQg1tvluTqsCfIcQ6k3E0oe1uocZa3sIF5piNtTGrC8zD8C3/cE6cl2AW8xAkggLRDsjvrs+XGe8GuLzl/EU8AxW0/pnu/47sHrRWDecBINS+Z3H7Lwu3GUwOBVzAbQkThYfd6KFJ1GYCvexEtfMlMDdQ2D0r9jd02ptqRJQAmMlYMyLgWSLT2bJ4kNpvAyxQgs64rNDqTspQiraaDLFzw3N03RjoXW7EFU8h8VeN46qMW8uTEUZ+Z7tPbAHwTcBq24zFNprS4IQJozUnSGCTFqC9RYT+3izqTTvr8mhD9RkEMSYvTOBuwy0O6uN7DjkEt7Yw7YOy9pyVdRtywtu6xMWr2WSN4PW91H3mdHGFd8KHiueWlCDewzcX3ppW2LMaMvoMVP3N2QC4R/dI5xBFbPdpl0IYYQXxYBnz3ek5JVh3Q4w7tk6qYwWse/bKVzDijdN/CY56FykaEsatY4lUev9xrwL731NSkAJKIGbJ3B3m4VunpfeoQSUwGYE+meOJunyU1m6fDxNVjBhEcSTnRV1KMtogqWeQuIRO30NLe+rwjm/jtZ4K/J5biyJUnBEQVqFPSoVcXoTDZ3C2mujzWOUoXERfgZvC6TewIQ/mF211pCzb1yEMIPPewoXDYST4YyvvD7vDKwvcutmbKjb1hfedmdWkQL9qCtMId4Li3zxJPLvxFozQRWi3ZEB3nSUJ+ty6IFJOfQghPk0xLrbEq/CeXb5bBw7hrjk41kg0zQxWOCiZf+ybcx1Lf+934JctxAQTtR+lzh4Fu4ycWvKcZYeEznfRB0wAlqTElACSuDmCBS/mzd3l16tBJSAEhglEHQfMtL9UCb9imGcRSvP+fNSLKMXc5u6BeEUhwpvVejh+kLUbbxjnPsM5LjdYjsWqJxjB7nSxQdWd7jNuBOeVOBnnfo9WIT7uah3MTAS4swmvDHILa03Wtu1lq/dcfv/LG/2DEe6T2tN3WSLfateiOHNcYDY7ZgVtXlUJo8+LKXD9yOe/oSshGBch4tSDUu1LX4VEYt8MGMBMcYf9OmedaOlbVKBMRyyxaPHwlmCOaaDblcZBmunZuAlUe8YNPvUGIrRLJSAErgLCajF/S586NpkJTBuAv3+pU8Mkrc+kJZPQ+BikpyIMdvhLkD9xFkuh4m7BpZqDyIGIUOGR2ldH5eFPc/SNZVh3nnOFFIsgWv6HvuroUdYozzRMkw5z+SX6OqADkiEgY4wndoAlj5itDcwqVTakc/+80/LuR+dlwvfPSXLF1OZrRyRyeo9Eneb0lri5E1sMwZLWms8Nu0bhNwPnu43Bh0C6+uP4l1cE8DnJoC/vBX98I+PUNbtkIqOF4W6ZYtKc7tVcaWM5jYgshsRt+H6got7cHsZYOZTxrt34IceYICvm1UwqRIibxpGhqnI1aAuJixJOPmwtKYh1KcacjHDoFTkcXiiIYdmpuVyCveYdElchOb0+nDJwgBWFxbtsteE0KfTEr9fGztAo/u7+77xW7L2zSmeVP7tsSw4LmI4yRjBVNHWkixKPDgjUZo8LtH7nkV0mdOO8/ywx1fkoWsloASUwPYEVLhvz0fPKgElcB0CxvyHye7K944bE84KI8kU1ufr3LeXp0dna6WHjo3QCC11rVyjmCskGD3z7VyuEIEUg/h5tKZjyjTeidlVeTli/fnmijQO9WX2QU/66AQ43Y4MwiXJ6PQecFAu3WfsxSOuIvTNRv4Z/bdpiS0S7PsQeRl6Doz/fbsninmniBJk0WLILtZcKO7ZQTLo0eXhM/N9tjnBzFcxlr5flUvOjFwtzciSPyWJ25Agrkm9Z2S25ck0OldH/L6U0DkrQw5XvI5US5hFFT7xZYcTeXUl7SL86DWJz3BUvF9zwVgP8I0O/duLzg0frYPvCp50MzPJvagJvyjLYy1UM1MCSuCOJ6DC/Y5/xNpAJbDHBAaDSccMHoCFukLB7NC6zOUARahnQ1GutTsbWj+pI/NqcSsXcYi8brchtSG0KN6hvRNY7OnDbqPDsD0Qnhyo6sBajivKQUea93jih5PSdjvSPdmTcGEOrvCYbKqE6CbWZQZu/byVatWWhfKwTZE+2oWwfQMcYbKX2hrk+7f652jdWdeCbzk1UoJSZ/t5DfszMZqd4nvBzotNWPN6dogY+jEBl47XkLY3JZf9e2SuNCtz7gxmT4W+bUOiXxGZjKsyiYGr99UMbPNNmQomZabWlUPNUCZLbUSUmYN7OztFox0jW8jwg2Xnz3306Li3KdrzdnGdl2dFPFxmECZ1WtLB4xJ2Z3BShfu44Wt+SuAOJ6DC/Q5/wNo8JbDXBOIsPJJl/eOG7goQnbSoHnyiMXMtUTqxWlZCMbygAyUJq3BuUM+FFbdzKzmceMJcuDsU7h4Eu8/ZOSHFYG2n+Izg4lGaaErzoZKUBlfFLPel1UJ+CXyuA0ySaUU//d3RFbAifmhVt4Nx/3/23vzHsuS+8ou7vv3lVpWZtfRKNldREqWWZiyNPSJmRgJsyDBgwL/73zH8szEDwb8YMGCMbP8iW9Bii4MxJY0kkhIpkd1kN7vZS+25vv29u/lzIt7NrbIqs3qprmpGUC/vFvfeiHOvqk987/meIEKvaHxNYNU27i1Cq/89r+XoudOX3oKvB3QlZjZT9Q3FDPIfpkgCdpRBfFmQ+86SXHNiAd1ehC0zjlbMICbS3twye+lVs8NvGGANuUC6tM8MtrOG6SaR+YBrt4IVs9EamBc3xubl7ZHJVgPTjfeR0BQ2lP1oHJ8WxnR8WVzknZwJehoyRCmzwRfDcHKdw+/UdfzSI+AR8AhcBgFP3C+Dkq/jEfAIPBKBMJ9uVYvxminlXy5i4ojwI094GgeC4Ym7KBHWRYO1rAJtc9wK8B1htuySvZJziG5J0uBC8yJ5JBeGsn5EOc2/mDlOJvm0JMJLnLiP68m1hunvNdG3o+3fQyqUTRgTtGGosFRdjxGDGxBA3GCtlqSHEfIdDXOWUgqReHTvbhbWp0Us6dqnUETYu5n6IM03SnYGO3OSRxdgtyD/Qf1s50xKhKSqwue8QO4yj1pE2tGzRxvIY7bMnY0XibhfNfeTLTPEn30OXkKnOSdZlV97uEJOwIG52tjHqWVgWs0D024yd0DjnknBuKOpSynH1NluHr2ZTwthPXsN0kTc9ZXFTdKVmTwfbgfR9IZrlf/rEfAIeAQuj4An7pfHytf0CHgEzkEgq0bXy8oR91DaZmsDeU7Fp7grR0ihiLa01ibAZQTSJL9vFUvaRN6JvDs/eZF3Dlgh/DIKnCo0zHEi5wX/Ss4hgrMoNRO8whcBP8Lzsyw3myRUpqskYL7ShVjOzeCd0MwejE05R8MNIZW+2UpwWOomIfaGIusBPt+R2hYpN1Hb9WBHTI9d7o9WnptSa7nV/JSot8qCd0FfMjLgnPNTicBZWn7Jkgp812dE1AfIY/aTK5D1a+ZO85rZa900A5H2ZIPzEjCP7JRKRXkF/3a+akTXzWK+Y+L8ntkf3TfjRYPnq/0dkwT6WqKZU/XMj5GsEVYbPu1iv6joyasBdbG5H+AiyVU+2gjjwSvycw+C17wtZI2RX3oEPAIXIuCJ+4UQ+QoeAY/AoxCoqr9qzQ7+ersqRz2Dq4ei088Ab4fotSGGYoe0B0otBxNjlLiIRZ+NuLNZR945bsPiS7IsrpWTIGmImhMrRrXfMpOwb8amb4bVOnu6Zm82M6OMGDDke7uRmuSlNhKOoZlMDk1+uE8yJRMBiZhbQq6IK+xV8hikI2EotxkizSHt0ihClpOWYrJqyaYopmXvLJ/tYgc8NFGRZZW61ZXdAT4QbiX05uo+vxjS3qDPKTsLNO256Vhs99Ir5gER9ltIZD5sbZtx2TOzUjOkMhMq/0v5OiISrAFPXIJ3+4rJkDNNZrkZT6dmOh+anC8cEdgyF5NeQ4pwFMBPv5wk7IJCLSm0Ysk7X2+y0UqUTl805oE66Yn7039E/o4egecWAU/cn9tH5xvuEXgGEBhP+iaYotWddxCKQEwyE4mkfcZNy4l2W10xf9WWAA21yJMSBkXlakonEl9JVgPJPgp6c1y8T7NzVmWfXnXMvFoz03LTzMw1M5XjyZSJgMZD0yZqv7KRYf+YEf0lGXMVApngOiNvd25cgYdBDlIXG4mFvAeQVkvollF+cU1XXKTatbDe93wtRVqVC6CkX1lAnnSTARprExnrMwYkO6uQwQRdm5S6n66anQa/5ooZ8zxmPCtc2cEQrKirBFZF6itC+BE69xlfPiqsJifTysym1FyAecYvVLS9LvWTrre1rN+Ak/s+2XU9T/veabB2qnBvRmtlNWuU5YwXaird1t6pKn7DI+AR8Ag8BoHj/6I8ppI/5BHwCHgEzkNgMT+4spjf/2KR7RERnVt/loBMxJMRx7PnHZPUs0eOt8/SneMjp9dEwY6LyJ3OhLLPWIflBYwiEohzQsQ2gjBVaKk1q6Z02LA8/ujnNPAiWhnWgnm1agb5AYTxpinTl83ErJp78555/8GG+XCnZ3ZHobn9dmpWqon57S/1zMY1IsjTt00z2TNbv3nFbH3hBfPX/8vfI9bpmE7OuIb7xkTXmbqJrxE4zrCsJNOxjaed0rtrQAGTt7F5mycQucP05WxR5Fqk/7MsZyPtaotL7nV5AjlEWxHmBUAX5AckjIpE2lMIeyTivSg41jaHRNp3Whv8iLT3b5rb7Rtm1MBV1NwwSZgQnUciQyKwRlIdZEkRRFj5Anu7melg2B4jp5mau+YQ2VKYxKbV5voLTXbk3iC9h5ZAq338lnvV3I9VJPNZPsATSz09SYH4klDovXKDM6nzNWC0miuWVbhvsvw6dpb7N8lq5u0x7/HzxSPgEfAIXAoBT9wvBZOv5BHwCJyHQBpmV7NweiW3UhQindgwKrr9cYvltB/hIo7mQoCJusq2MYQ8OicPljC4sBqZgsl7cju5JkQwhYJh7WgkrYkghbiahCV5tulXzYyA6N7Bmrlz2DQfHrTNh7ub5t5gzQznDTTKiv+iz4aAL4IxUXbSDpldVQS9bGJNeJ3k1EP45t4MLTz2kpDxlEFECjZS0DgK6RJTa5IpcucI+VIM/hH6/6ycki217eLcVjYjyRLkXaRWfZyjQ5+SjDpM1pxfe3MNTfu6GaZE27GEjKmnSL0GA+6Z5iyJVBN9176S6+va4s8LtrUu6Y2i/BE7HzVw/Kjv1UfCtR7dHJ3M3ZFF6X00DDf4ptAr+P+do8N+xSPgEfAIXAKBj/9f2EvcxFfxCHgEPp8IFMFoKygHG0E1gCzN+CnR0kU5P90ei7WdpWHH29BjCKNIH2QZC8YQSUogxleRMApzzCDTAcmmlWZYhbSXwarJCjTTOYmn+br52exlc7C/am7db5sP7kfm9v6K2Zu8gPb6BgSxb5r6ukBEeFrdInH1AxIoSbgMJybG8rAg6rv9ZYjorYk5nE/MFA12k7aGNvLPxEDotF1xzFNts9FZ/dUqRaT1WS5ugPFwCwWxSrbUtlvyzWBGJi9AQ7Td6ftH4YY5xIP9QXPb3GHGWSWk3kfffpBg/xjjGpOTAwBe+gYhTOxl9WKBowh6wSBrAeYSPjFmMrOYyLycZ4QxCcXHE3DZ5nzif+xz4r7ujdNzdGX5+Nhw0Xda79499ujLi4YW+nxQ8h2nqsarJpwr4u6LR8Aj4BG4NAKeuF8aKl/RI+AROIsAyZtMIjPphchGwpKoKmxZRPTTJp4iSEuOeKZJimIjy4hnNjLLdEiWLAXoym1yKEbiFVHvFK/1MtqEYOIdzqQ+IyZSOpjFZn8ak/C4Yr5z+4qZjFbM/qBv9icdXEuuQgxfwWTmJhMsxWY2nJlmeI9o76FBlWPlICVkvlKiKdaH6196ieuXZnAwNvPR3ASzxKRhG/La4u78s2ujsSJ3xwMQkTxHiGnr+Z0709dnd1M++Qyd6CYxcL426Bdr0ERiqSkbZtJYRyaDBKm1aW53tsx9yPsBsplpvMJETW0cfHQ2T2/5PjnC66LwevYl17W2nGCWQOQXEHmRdrkABbqHjWo7Wn0+Ssdk+/zjF+y1gwgb8F+Sd259dAqDV95Be9QuFWFXUQ0i7prEq5iYspj0q2L6shK8g+C3praK/+MR8Ah4BC5AwBP3CwDyhz0CHoHzEaiq7yb5wbc3q2ralX+7eElFRqZWUZF8qkWyieNSrzuypKgvSmconSNnapNqVBA6uZgUuMQ0O18lur5uDoiw70xScw85zN2DwtwdFmY47pnv33kBdrjBeUxyicVggQ67CLbRyGPniJIlkYabMHIRziHZc4ikXGsEANQMsplcS0xn0jTtB1gZjnNT7KHpJnkSc0lXb+khX5M7EVOXRsvlLNk77t1zuaaJphjEKJcgFmlnGTGbagECcvwZM3A6hLw/sPr2q+aA9VncBUcNayQ7cnIhRbY1vJGbDBmqkF674HiOe4xGNyCnJRNlhdxTEf146Z9vsT31ntRI1u9Lvf3RlyevpNbQXFvqYYH2afBhWwrZl487e0yBA1NVLDpVOdvmjeGzD9oZXzwCHgGPwCUQ8MT9EiD5Kh4Bj8B5CCzioFogk8lYQmFE2mHNlZV+iKp8ekVE9yRpOnknm6AqyYpIHWROriQl9otZ1TOLaoMlTjFZ1xxOV8ztUd/cOuyYW7urEPcUOUxkhjPZPr6CJ/gKGnjc+hIlvTaQ1zTMbJ6brJya9Qg9f3SAln7AcuIIGQSt0kyr+iUT01iPzOpNyOg4xDqSbxMHCxMXM8hng2EF9HTJ8mqSJ0IXWOzUs+dd5w7JphsB5D3ha4d+GrLMkRfNg47Zk3tMa808wNZxt7mB1p28g7DpBlzgMhbv53xZO8qdx2KDhaSsRivIOSzdsmR9XZG1ZswnnpgbxLx/CUt2LYvQPfmmnFyv6zz58vRV6icoYu7K8tHaZtrgPFXsMTb0NpWagKqaMeRY9OmIiLsvHgGPgEfgUggc/fN2qdq+kkfAI+ARqBE4LJqlmV7Fkw8Swud/3FlEN0v80qFPda2PtKyp0KNOVnS6rlPTJbdHlJ6ExcYUd5iUyGYLh4+YCZPakEY82MvrZl5cMW++E5g9iPut0Ya5NcBDfISbSdbHgrCLJGbDNBtNIuycLwIZMWEOF3V6bU3qI7nDiAEBzjARPyLugWXhomS0jIFCzqyecadp1q5hNznEuvBwaKbIa+bkAaRhB4KuLwJLMnfUSdG905Tw6NAztmI13mptzVSX7WPsYoubP1cyGXFsPSEnbRnHiRmGLQj7KvKYNawf+eqRYrWJRCaokBHRfXm2D5XMamdLxYGGa2iYpv9Y2Rlo2bb2niwVXU8h7ynnNSD2qcg7P83SerK4d+UY20cP+06e9eh1bk1xV60hqN9H11rupa8Oy6JjNMsNzMTkS6RcSKuKYtaJzaGbGayu7JceAY+AR+AxCJz55+0xNf0hj4BHwCNwEoHGoh/M8pZzyhChla4ZvhJ2IVZISD5GqaPRj7wEbEmEyREo/XX0yVEzBAnVDSbkaULYuySdQsbLVTPGgm9avML6NfNPP7uLdn3b3J6tmfuLDTMqrpm8ycCj20PDnpo53uCuM0gbIFnEdU2QJKbFMXi5qQb3uKXkMSLxmmiIrw2EgyuYq9owWRyaPlr4aAVLyNXCNJojM4bgy5e8lDWkosI2+gqF5FbHpE9dEcU7Jn1sPHdFBL52yxEiwiejk3OkRpa8p31cZLr8emxrUNWCfEuvTvf11QFsJZuBtoMp3UdmoyIZkUOG7ACAdlIcPnBgK+Mi7lSiqqtNfXvW8Z+j9+rsgeMql1rTgKUevJw9wd7DXl9vgp7sqadLo/T/K7kb7AaKuJcrZ6/htz0CHgGPwKMQ8MT9Ucj4/R4Bj8DjEZj++Lezgx/8xiy/i41iYLqNBWQqMDMcQWT954qj0o+/0MNHpWtWEqnlcFwiVHKpLCdJXLR0iIB+VoyIniOv50hoGRxa9DhFDkOUO2bmzXzNHEDKHwyQxOz0zfv3NvBiv2L2RpD44Neh3C34YB8nmBVmPZWLCYRPk79O5THOMIQLW9KJTEazf9oJpnQvyGMTF5Mioy2LHle5xvZbJsSbPGKmz9bKwMzxKMyS+ybaGHN83bxUbZlec2x23s3Mnd375tXVL1hLysWEgQHh/ACT8zDC8hA9eInVJBL6ZVHvTrNMp4H/aLjWV/2kljV5PRl5V4sncQYRp0/0rSRynuOfv49rzLvdL5v3m6+YN1Z+CbkMCcHJBrwV0p6DASfO6KqdvIloNdkE/NCysz9ktKRZWBcMeoSyDV8DXcC5AQmpJSx+BoaDBlF3JnXKYPEaPMZE+xvkMcT4vOvLkJ0ttxyZMOW9ybTkho0O74oxw6GGnszV2h6ZZo56RV9aeN/csz9GTO3MNcdTIzMhfYi4f5xxr4yvL6zrceX0XwO6UoMwtiu+/qDxoW18UQAXLOgZ3H3ILLtvvmCCF7/C1b57fAe/5hHwCHgEHo2AJ+6PxsYf8Qh4BB6HQJhjVi6mQjkKZT7uhCc5BjHV9PBLSYm9PqTHIMOBNxNilbqAaGw4hrRhtlhdh8utmtmC6G2+Yu7tb+MU0zU7o555cNA39w9WzP0heurJdTMpNsw8XocW6gsBkhhrI6iIuTwilWyqSLqCoOeR45pRawkje6iokTjWpPjFM/GQnXxHpHylYZI1nN/vQ0QHhZlCGu1YhBZokijGAbBTN3FPVSETge67ct49zmvXsvpTWjwu4mybgM5fVo2ahCkTkQ0b+LYTXce73S4T+binTHhFvZDIOgM9OezoNdLAJJScxOpujvuqewbIaISwSwyGzIOVUo+PBg6cayVTlkDr/RF+TsKk2VdJOKAuE2E1OMaXoTLE6UZhfj6BhMhuAuRRIbr7+ZBJskg8LngfCmbBdTIs959L2752g3ewg5aea3DzKj+kPlH/YI8vMpB+245axLV8KHpx1a8TRW8dHfca9xOY+FWPgEfg8Qh44v54fPxRj4BH4FEIBAojyu7jBBmxROlRJ1x+v2QkkBqIFDRNmgjpSeBX+JNwNyL6kN3cYNEIQZxXWAgig5nMSXKc4VgyWTU/3Ouy3jQ7g6bZHXbM4axnJtKwBytEf4m2srQFLuUmCIK0Q9SsxMcOGLinGKL6Ju53Uu6wJIPiXKfLCRyakLmyg1wHJxkyAeIrsWkMmAl0d85yYQajgYmwpoxpfwqBDRg8SIKjSHJBZHY5Gjp9+edoy0XilW+gZFRIO97shzFfQBgwHbAcxlhsxkiZAvnsIH8RxsJ7+bj1VUMJzyL0J4t9JHoPGOiUfBJRboUm/cLjh2pK/BRZJtpu+TADAK6h/RZb1SI5tqy6JqQN04yvMyi9irm+0uDJn0Pa45ZZFCQPQ+qrCNIejXnMmb2y06zzn0yuXXC7kqh8STS/zDOTLHZMi/09+HwzHZhyzjtqG37inTjZEa5oRynu/384yxePgEfAI3A5BDxxvxxOvpZHwCNwAgGcY8gg/B8JXcq/Q3TqJEE5TbZOnHbp1dzqvGWjx7Uh8QFMUEKGBcHJnGh0Gt7Af71nDiBZh3KIGTN5z1DR9RRSvGJ+uPuimXFsSARePu1KTl0QCc/CVYh7B5931xRFxEPkKRoGiDtK9qBIvu1PTSZdVf6qX9pJgaS55XLbbfFXOHAMX3Euy4/IrqK5a8a0tmPTvccd9yKzNxxC2oEPaU2ABCSSBznXVtKq7AOP7sPas1pORt1F1Ouot1qfSpZiMWJghX59GK1C2K9Y8j6I+TKCBCWH0CuRNxIttjCKzIIbP6tf5zoi4Eoktc5A7Be69rK6GYM6TbQUBFNwZEIsflqP5KzI8RC/9JiIvLWNRGKjUVGBb39ece/8pnkwbtkvMtOgizqKgcSsxWltkzYTZE+KhU/h6mPIuwYHet4aLTDI4vmoTYhwIO28L8Uck9GmudqqzDbjwXUScPHFsTXUN/vK2PNtJzmmwYV6oh8lkH+lLx4Bj4BH4HIIeOJ+OZx8LY+AR+AUAn8IiyLaXsFIznz+P1XtI24QjIYsQYGJmFY4vSjwnkPK5pD2hcGuMbtq9mcb5g6e6/fGffPgcNPsHLTNvb3QDA6xeFz8Kjp3iKEmWkole2BiHghXjj4FJb61HlESpJIERe4iIvouOss9NRZZ8vLHN7+uVBMybbt9zNdK+8eO8NmsSSLv/cp0tujYqGkOdwdMyqROQt64d4WQOkIGYicpoq/PSzlJ3k+2uQmZLcBggURmwhcOkfbdFL/2ZN2MyD/IIdCVdOx0v5A0STxcgx2+poggS9fusITU84oplq7xjKhuzlL6Eg24RNZjzWILWWdaLJay2xxbp5nA7ie6vryU3I4KCLa+0BzwVebd3Y559wETbDGHmByFxtMex4i2p4mZHO6oQUT1ybPQFxhdxQ6q5BdPjkNXSbO8X7yoKRH/9UZkXr2K3SdelK1Wk7v8XC3VK0xxBF3/b8IllkXvm7qtl40H74tHwCPgEbgkAp64XxIoX80j4BE4icBVyMZ72gGjqgmropoUu+1WP+pfUR1d1cpYIDhKEIRiQ7o7kKtVLBxDc3/QNu/tbZgPDrfN3uAFsz/CpWQIURyvmHlji/OJjiYkJjbwJqG10pRHSoIsppD4DsRJkU/uo/2s66dIqO5L5iE311ItqUvdKp2lcvKY21P/1QyhBYSvkKQHYooJIhoK/u8q0XVsD9u3kVOQDBkc5JjWEAnGNYU4M0SWsRDhZ1HFRxc1rG7Do2t9mkdEojWYOlu0T8ciBkWaRGmK9eUhpP1+45p5kFwze8kVyPsqEhmi1fRB9ZVpoKdbKtq+vKD05u4BQNq5np6JRVuheTbEpUO+yuCDzqakMu5ZaDIm1ReZNgz4bCR/2aYFXzVmfHWZ4eV/e9w17+x3zT/eXTEPJht2Mq4ps+di1snJsUlIJtZNpHNXsdIb2uQkPLjjjMi10EvJbXD3N9s9pFDNubmBP3uGZj8tb9Emnat28Zxd41mlMU5HpMuq0NoAuCrk++ch6ir5vx4Bj4BHoEbAE/caCb/0CHgEngCBHoRD8UMWR0X0Sr+PX+ToIhYXwQIVj3RSDNxJoEk55Ovtu6G5u9807zBx0u3hthnMX0QCsYqrDC4gnVWTQNilg8agxWTKNWUpziRxBSmiEGQRdUU9IcvozHW/iHU7kZSaD4l0pIslx051U/zqoa8MgkNY6DeAiPe5Pw3A7aZi0iWTjZFsEFVf65ugtWLab8l1hkmZFjmTOnEcO8MwQqIB04whflB+rnNeUWOe/eKi7U4iswNhv5/cNPca123U/RDiPkZLbmkq5DggAbQm3lZCwnPQ87DDKlWyuKrPLuquzUrSF+vYohRY/U/JsJJRdXhcXd6SffsobF3OzPHdnwVE1at1Mw22mC13i8m3uuYDPPzvz7cZGOpHrkTE15kUrXqqHAgNJlzEP9A7wojAvScV0ppDHIU4vpiaaXlg2gy4JsHMFMnYROQ0VBP9p/XM/y/YAW39XPWeqKiOPaAdz8fDVbN98Qh4BD4zBDxx/8yg9zf2CDzPCLRg1LFYxxny/sn0SdFn/c9qhIlWKrgpkk04FHbTwFIxMXf2Gub2LlKZyQqSjHWTMKlP2mrhBU4dzpmhL59nU7OY4gnOdoJcJkTcLheRGGmFmFIskohaIcLz3fLxuvn0ypEqGyqt97LUttpBeYi8s09thC1KkqOgccWIoyjnSCow4OHUqIUmG5lFskoKJTrqMp1bu8Q5kgsNUmLIvsi743Jn7/188DrhuOAZzNC2SyYzwG5zH9tHyWSkbx+xb0o/NXBKeFB6zip2cKZ1ztc1BEMp5r0sJ1Y5KO98lz+gXAKJZpT74Ig7bi8MnjB45FJYgyKdyWmPZmydI7OamTUzXsh1qGcG2RYuQ9dwmbluItoYyaefR7WzO4W0N2ybRNpDiDnjLLY14EMOs0WuhMZbAQMEklr1HE1jx0RM3BU3+VrDbLkacSr6bwehdSfs8tRzlZUNovjv6Y07deDUKX7DI+AR8AgsEfDE3b8KHgGPwEdAYBoPRodbi+k0RllANBlZRD5BXSB1N3IPOMgx5Tp9edG00wxFW4681cuk7EPF0CGEExtwjaoRV4WcQZanxUtmq98xb37QR7W8bfpXvmb2p0Tds8g0aEuEd3i8jOR2Y8LtjC+kR8ZFW5zQEr6wcA58lhiKIC5vfyzWUJvVLn5HHVEl1WAHZE4/kUk7+ZJl/WKcitBKO78w5Ea6bRIxkXRD3jk7g+3N3zc3fvMVc/CTA+Qyh2Y8HpsEXXUDjXdIsuNiiuZel1e77PW5zrLoNk+j1CT57P2OVB62HfpasUASFJoZkeoEE3ylD4ucx+QXjOIXzaD5ktnrXTN3+i+aIeS4TFomSyU5ARp7EzC1wm8kKrYgf1HkWjaN7NdPRX7oVZ2w5rh80QAAQABJREFUzOAoREM/nixMzuCng5VL2Vg3EwZ0g3JK4vHAxAvev3DGo1d6M5F0HsCMaPth/jIJy6+aP//+Ie/RNiT7FdPsbDPIwMsdcq8Zcq2XPwNAoLcDPunwNWGWXh4NM6ykh9dqOGKYwKRdPe5bzH9mKgaIcTQwo+mHZpXBgtxtQr0n9j1ioYEG74dEUZJG6V3K5otkPBhvdJpMr2uFN/z1xSPgEfAIPAYB/avii0fAI+AReEIEhuhKYOtQkSc88VLVRW7q6LW9g3gOd6qJJHORQouw8uMXkACpRELxQE2iFEgrrWi41jlNp54qED9poVX0V5zMbnFxCS9cWTL55daTLhRltcSbu0uio6uqbQXSmRDSFqSQyi6CktXQLPYykw/H6KzxmMHdJMGVZCGS91BRKx/qzUO1nsYO3A4p9Arw3BBNXy4URSfiTKR6nPZwksECMmGGVKwgx9g/zqIGX0aQtPDWYHF/ouhZL3G3D+LEoYdWNWwqzWqXkRCDnXCxhgvMVbBm8ID95mCBzSb69H5rjS8X6M05X5aNM37jYt2M568Raf+ymaNBn1Mvw/u/IOdAUhs9L/vMGCDY58c7yGcl+24o+m9fKTVVbbLt1JqOq+147zNSU3KsvuY8vtSdtH2WjRCIrOv/l3zxCHgEPAIXIuCJ+4UQ+QoeAY/AeQgouHx6v4iISMmShJ0++IRb4jFEJ2vWqyWsSjNoKlEwh6QVzJBakGSq+WtEvm3UXC2irlTPtshmUfIVmmoj5bbJUK1lJFf30KQ+kl64dnOeOlbUEWCd+3B/HFmj6pJH18slrbMa+pKwsuqpiiWEXCovYazJgug68eENosXXiVHj6z6cDk02hPgRdW8gtyBwfVR0bZ3v7iF8lzc9qvHJrxz35/S19QVAxdp0qlFLPG0b2auE1DnR7cOYGWsbV0lK3WKJDSS69kNF20nW1QDGacV1HXcNEWdXlljzfPR6CX3bX26glF2bHMrehj7z6Ci5BBkTau1PIvPB7hBLxw2k71tm1gdDRegZJBX4tY8XiTmcr5q96QtE3K+gdScCb15AOrNGmxkA0gz1Qfag0twrx0ETQoX0J6It+kJgmTUDDA0KNYurW3Ii+wJrPUm0HyehlK9DR+/SqXeH9uo95ton3ikBwC/W0hePgEfAI3AhAvW/lhdW9BU8Ah4Bj8BpBCxzO73rE9oSabNRd5EzFfEdt8Zf9jHVfUV01y0dyRZJjrCIiUpcWmzTNCOnThJhgnYdkXXWjy7LypKlSkdvCRUnpeLxttJZ0n6yFWeP1ZfqQfZG1q2mgPGJFIqvFcHQ2guGtLGBtWWykZruC0z8czAzhztTk41KkyE9KSG3NUFWK1SWTXQbJ5BY7njqiwaSKFk3Rri3yAzFJoiyzOnbDA66m8pJ5qq53dxiHWJNxH1Cv+pHIL24HqrIsSv1A9EBEWMN0BwOIs3SlitRVEVYLMbIUAA2x1IzyzvmPfIIckTnnSY6d2bO/TFX1itgsyQI8efo0EeLFhH5kC8bM2Q1N8B6AwlNW6+WtaVUe6yLEffPlVQsSQ7HaDY91ZWoQRvUjgUheCdjoh717WRRIu9E2xM83O17xH63ZPHIUiqYz232WfjiEfAIeAQuRsAT94sx8jU8Ah6BhxAgw9OGqh86cKkdNV1zVOz4FJEoFRE3cecI1qZ9AUpio0ioLdA9EkoDOxmOm7BI7CfGdlEWfIgebJKimJvIv7XyW164JsBuyfCAaLtItbiwSyKsWyYeVbdGN6331+vHLT99TR0X0YPOcbp+YTWkL0SQFf2nXyJ/OTruuIuF4NXUtK81TPP2xEyGEPcM4mt77q7zzP61ciNHZi2xluWlBh3KIwA6JaM+aGzaaPsBcpk5s8MuYL4xfUfgAiZ6usIClJHYCBMNAGoiXyOvp2CdXThe++wLk3xMxgOPpCraZsKsuCVAzyHOKVr3LMtk4sNxPNlx6knEvNGa52UPBxgi9Az4AtyHcpKVdR/7lliXIfeM9YGmkkcoR/Rs9VMfT5NxiLvq6XnaXAd7kq0Xkcxw/HbovLqcv1dXqWv4pUfAI+ARuAgBT9wvQsgf9wh4BM5HwHHq849dcq+oUk1nLDdanqcotSwCrYpF+46ojc7QD4pno+iaEIc9yCIC4qhKjrS+4AFEnzVLqnWurgdDt2daQr8UWVvmqDZQARLmrq0o6nlFx88rR43jGvTGRmq1r8tgAGcT2cvIOMTeXZH3HBLJAIOEzmAF4n4lNf1rfEEY8KVgPyPJdmJ6ti2OOOqO6uPZKLz2f1ZlTsamMNIEujGk2T4DPQf1FYceebfvQqL3Uqdvn+Mioy8aCaQ24blJkqLzC9spsAIzRa7tY1h2ytFZkXnVtE/I3kebPFk7+21BQmlZXLHe6RPkKzOSkLPgik02DUgKTuIUKTzfBkIN4MCY+tzMzOe8vNyuYIgnCQ5V+FLjJukSI89SPNxZir9HLC15V3vVRmtFqfi7ttUT5VswGRM/DUsqBi+PLHo/dI3lu8CKXhSQ8VIZcPDFI+ARuAQCnrhfAiRfxSPgETiLQAYNtjYfZw+wLWLy8UoBY7KTIrEUbbPUWExOYU54jjTRNqEQkiSXD+vmbS0CEYerssLosC3RPpEuOXzI5sWxJCVSirhzLYVXIV+WOHKOI8ckjIrJ1UV1bAPqHVrWBOzkvhPrlZuxU1fH/Zs2EGcm4l7K7YZzC1xRcrmeEBFuroVmZQud/m5uDscQ98N90yNiLYKps120l9ay+bTIe33Ps/dzZBqaCeut48oFoyt9TVAMfRxhsYirzCBas7r2IUmqcyLfqqNinxzSlYgIt7P45DwOObQhyPYqbLNPM9ueLGqTJdAs5f6C3ToWn0TfsfjMrFadQRyJsAXvwaLdAm/yIGIi7ZEkLHpbeVd032BCHSw6eW8CBhKB5D4WZw0C1U4uSsd1L7vOMRX7xFkt7QGXRcFbyvUYKmpQQCS/IveiZN19OdDT148zNQKw766udKpf3JLRhmmooi8eAY+AR+BCBDxxvxAiX8Ej4BE4B4EcYiUx75lyipScOXb5TUknxG9EHG0sksi1kaUj29IeW4kCpMnFYxWt1X0ttbLH5PJh2Z9IueVdml3TzbApUiXPdN3AcUM4E6cHR8QKDTVT139ihfaKvFe2LWojA42y66LuIVH3VsN0+mjd+UhwkGTYFGZMAkSSpYVSf2wHTjRnSQZP7Hnaq71FBiHXc8DDkKVmC9XvAAnKTrOLg4w07fim4+VeaMBCN+wQTFhAdCV7UqKp0Di/OJzqZ+qwADmLCc9njoWmPPlxqmEyXCbaoi3kPUQVEhho+hTBkTT4Co6HPNcoZ5gx50sHk2ExPDK9TpfbLqU+aoWFWPdUJJ3oPtfTYM5ZVrJr+Rj0XtpXh106X0V9c1F3iLsi77ynZ5+Yrehq6wx+uo8tjBAESOH/W1wj4pceAY/AYxHw/1g8Fh5/0CPgETgfgd9ZpBtv3FpEK4PxpMTDY26aRKkVWC0zTSrkGJYIkGYkFUlTMqHdzbo1OYcElTLIJnBfIm2xpNwyniGT3XRNApeJmJjIKmKgQhmRTEVvF+ipiwjdeJIgk9jhGkxPjy1khX65RMcsj+wY2YMrJDHaFW0ny3guPMx+LOCI+JNlYpApK5peUi7uizsj3E19cZKIGF19Sqg3LQrTI1LebeJnQxbropiY+SwlZgoZ1EQ8I6K5kHGVCG0+niS6CSQQc0LBorY1OD7i5nPuh+NK/IVVcyUdkTx523w4vgfxXDNxFnI5jpMIarFJkGDEnCPZicWVbw5EvjWRkVqoSLParITYqIA82kew7A816qJnoOs9rmg6Iz07SWGmjJwmhLYVVU+4gRJTp9GMZzQEZ2QmzFY6amyYt7tfMW/3vmLuNq6Z76//OgmcDSuL0XRXKxn9x1tdiBTCHstIFenaXazebjp8hJhtu+qruEGPhlIugZg9eLfjiE9HqNiSQEUHiatj6CI/mlUItDA5LvynTo+BgYTeFV6mo0PyWtf3F9lUugak9AsfdlWpeJYMTJR0i6Ced5L3iUGAlEwVWARYUlaNQ2ZNnZhpY84d0dRzWznrSPpjDUZ5RiH+lyGzxap1Gi0y5QBN4Dm14rKzqtbvM+2TLx4Bj4BH4GIEPHG/GCNfwyPgETiDAHmp5WL876aQu6U25XSFHLJjI5YQxBLma2POkBVr5yc+tozWKvFQUoMyHDlyatlVBJmjiOA/qigibyOXLOz6yYqPOW9ZTa41rtDAkyR2Gdq1EXk7oJB2XrUVp2diJO4lElaGh5DoEdJ1ovjovQN+pZ3Cc4bLCdH0GRNHCQNKHckXGdXldb0KQpjkED1IvyYwQpyDpIMocWvfRETfq5Eqou4WNmqg1rWkppT6+npwstna74rI6ukjywMfbeEabIm0iKgdhLCvCdPVrLP8NXMmW5ogkTlEz76Drv1ec4N2u3baZ3imOUuIP1p7zp710LNXhTM3PHvOZbZr+5tlXQ10lACtcYKunuJcZHMmJJS3g0C+3ui47beENzwHpFnHvp4anLLJ+VZkwyDTlDjaVC1GBg2mXz3KvF7e0S88Ah4Bj8D5CHjifj4ufq9HwCNwIQJhDomEjyhUKRK3ZCasLZak1ZJVdisqnMNspG1WtFJFRKewBN6Rd0t8lgQ0lvBZLOehUksVdEzk/WQdXVjbOveicl4dXc+VWMStzCDVkC906YqcKqVSqYiKRk/ne6ZRjvAQn0OhRc8iItDQe0VbZ5VpdwmgWj9vTqdjorGOA3dt68p4RrS2iwxoDPHHDQe9e7TKdED4ul+b08c3uSjNCTMSJkXal910LiaOwrv+Lxv8CS8sUbUUk0ECN4+tC4yQdV7q9QRFBUm3U2YdHaEtV0LqfnwVuc+WjTxLGlTpEwz917Bj+dg/uZaeS9rd5S+6l50xl6qPqhfYGU85Du72raAbWkaw94qwf8J7HPOzWRSaEtdOmKWHZIdZPGsNoOQJz8KWY1mQlUwVXc7lXajaPPzmfRKZL5q1qb6QX3oEPAK/4Ah44v4L/gL47nsEPioChRgnVFxRV6dngQaJmENeLGHjwiI7IQRLM7yL7Fm3GPEbisihNMM2OdESI+htzepdFf4eUysR+wuLosCXqHiKRp4igK5xsvQTGQuRt1gPcUs82dYSqc5kNEbtsjCzLGbGTnTVwRoa73UILhFyIvG5JW5qu0ireiG6JmyG/HpE4dkbjCxOtofIdMJmjMNMz2wiKTl4B1tFJDUV+y1ZhDwrWbNgMBFKXmTb44ilMBGVP+6Tjn+8oms5wuqIqOROiiJbS0ae0VSyIkqGHGYkj3ZkQvOALw30rdTkWJIlSdt+4vnVkfZLPJ6LG3/qmV1c/bwargfHR9Suuo2yj3THhYKENBYN+67K2F3fHvRs7cCUNSVSh3LMIRIvb3u9gxrQ1hNG6fyQgZ7OC5g0jJg9PyQyVZyj+ZpwUOM/XzwCHgGPwIUIeOJ+IUS+gkfAI3AeAmiDEXQnhKNFQCCa1p0DggPJqyO0Ok9kSDRQBFZqZS1FerRfpF2kUEftfvFmtq0mnr2PLhz7BMjbo67v2qLGSEOue0FcaZeiqGpfwiygYdphFQkE0eY8ReYCoQ7NAOvBCVr1oSN+EHT109FqpDYi9LS7mcg6UPppovjMABsRgS1SiB4Kit4iNXfhdbptktESaaoLTaXKzKpqMNesSATVVc8WEW61+uMX7rFksYoeq90BgxJrwUnLc+4viZOSUIf0f4BXu5JRF3ijS/rjSLsjt2qlGwaoZWwJx0/x2anvy6Zr9dwisdF5ZdlC+qlr6LlTy8KMUIhTlBit3uTM1qvvMPoGk1JN0fcEjGLIu/IOAqRQIZNs6QvF8gKcq68tU/v1JLOaebkY6QVRYmpq73Jem/w+j4BHwCNwEgFP3E+i4dc9Ah6BSyNA4uIEJ7uFI+6QNMlLRHYobuZRrbltEddABPUMqwxIcNQut1vMSMQIDvMQjXE7bLTWVq7r6h6fQrHhVziVJgeCXNdfFTTZjqKm/dUtqNYOVoTMxkmbA6xNSNdkoqEpOZJTSL3rt0iefiKBiuLLuNLKTXD/K/ByL8lSjNDEByQziuxGcdOkLchw4y3cUhgILBZIpcd809AMpZwrkTWsUgTSDSQssvbrhbujQ/LjIuKGWXXrWXJxvo3wnPRVhKtbv/SGGYareLVvmJ3UebYPkrYZkzRsJT1Hz1DP3l1LbdTHBqHyqRWwsa5Ej71B/XweriQEKzJVA/v1xw201GfXb/vdgYELfQQPEXwNPGPkMxKNqWeyKY0YvNlEWI6r77qmfaeXAzfVWw5hCdtjh2Ny/99iYeSLR8AjcCEC/h+LCyHyFTwCHoHzEMB+b1xVEaFg/TOi35J0s5RG3fIY2IqlKBDX+ujJa8k3WyRR3iIixLqGou2SiDjSL8bEqjjRsjgf7XrrzFKRXKurvoAaPjLiW9+I8yHpijpbsikfdn6V5CoQ8DK6ZsbZrrl92DI/uUVknAgr3xxMn4l7ygkOO6syCTnusSOuIu0QcdVrYZlYTrAoJJqNI41N0I1D0yp6pj9bNQfNKa4jRG0XA4h7YZrV1A56RAud17gIJbfQYOmhckHfH6r/8A4ruwEjPTVF2x3NVMtF30Mi7Qme7W1zkK6aBykzpKZbZje9gof7ivVyP24VV7Ks1f5x5Pfkw3z41h9vD+/OJ1H0vCRNEncH6aNSkpPhko1dv2IOprjLRDgOaTCzwGFnromf7DbJy+jYQ+RRereFQCn3I6QyFfUqZv6tSpvVnJpwJGsZXzwCHgGPwIUIeOJ+IUS+gkfAI3AeAlUUkIaZoPeAptlfTZogN/zPSkygLU4jrCVefVAWabxVKgiNxDMi/ZJhWC8ZS7xEEFXq69mNM39qgn1ytyj2eftP1nHrImaPKy55kbYR9VZVa1qoPtpALYKYCdH1Sd80pBRiUFJMsV8s2qYHDysm6L5F8m371QfJZbiKnXwJjoZ8YqXfMFNkzfkEMj9F5kxEHR7HjKmJ2cBO82ayBmGfmgbXSyMi7pLGOK0G4xLXR0uI1REbClZv6r5f0DlVvbCo3baztqZuoyeFE6QtA2wQx8z8uk+C7QEymUG8TpLqKj3r4rySIgOXRGRZNEjifDkI6SqfROvsBY/6u7zPJ0Ta62ZrqYGaG3jojnReg0reV309UcK1chqs/p8lAijwaVjv+gBbUn0RwcSU+uj+NTDla4kmaioL9FB8WSmt7zzmkUWIr6ZNXDh5a7/uEfAIeATORcAT93Nh8Ts9Ah6BixBoRelBmFw5GGqK+cUHWBvOzApRWNmN45MIiZlB1gjIS26C/7lcZeTDUaD9zYk8JhCakEhyyYRDGWQ1UMSZCXwaaYsJdrgG5MhF8lngXGITX8uGJZByOjkqlrARiyY86sgVBOskMz8itkdnHHPd412n1gpm25T/n8iYCHgJWRbvlE+6BC8x1096r5qDbM2Mbu2wLbfyqxxRVB3ZDL70bvIeRWI5iZNdYqci5UTldzO00XImESGUJhz3mGloDsDpPrKbnATVNbzEFyRChgmeNSVCnHxh/cVjIvEZ9XWmcgv0ZUPXOCkPOdn9Ux1jw0pVLJE+e8RtC645OZPyrI+obGcFpddxJevKCB99ZgcNmmbQ3DT32y+bvfYLfCG4ag7xcp+lPB90NRXPXM0T/ddf97S4MEXOPB+/uGuduo4dGJza88gN+9WGjrr2LavZ98jhI+FKKvcYkW+eUaAcbGpLv68vMRmbsmWfI2XKssxs9bdM0JyYQ97nBRhMAr6U6P21z13n8LzKpl2WfE06YMza798wK6vf+EfTuP4dY35n8MjG+gMeAY+AR+AEAp64nwDDr3oEPAJPgEAZTcsoHQaBRCKaLZLERCKPidVhyyBRNB2uYqUWLoou+iOdtpQwSTglksw5EL0Ab3RN9iPiKxtGavETcdcZ6IXRx9flHB5eH/rElqX1O6TNMGDru03LKlkB0hxFYB09Z8IltktIdBGQoMr/XDKiJtdZpS30AZInwmeJtCWWInNMwIMdZGwjtvL/RjctYgcpnFGnyW8/gfjhKtNGLz+KD02zSEwKSTco6UuuKaSETE08dX39hI1NqrTDGyp8xCI5iP1KYMHWvTQcYaIiiLtmSJ0zwFIy6jjukZzaJfqOqwwOMzqubj8UV7d9/4iN+TROO+8lUhuX5F2Hy2UCqW7vou56npIOseCnwaN08AzjIPKJOUDydOewwTNrmDT9Zc5a5jTomjzfADFVbTN5a2fHXAm27zc2bvxR02y+oXkRPo1u+mt6BDwCnz8EPHH//D1T3yOPwNNBoNkZV5PGg0AzZAZtcuzGljhiswJREUHFmtqySaQC8PGqQutLJNrGW/WHyLOisyF1SiQWOoUgr4kySDyJmtYUXbVPkCwXVf70OU4hHsXP2lNaMqd7QmbhYLUHODSOgYmcQnCYqdYdYbb8SzpwoqtisDZCqyWbFDsw4axFRfScXkf0vRBxZ0tHF5w/j3JmH70J7dtjoiNU08mBaecdIvRYSdrIrcQa+rYgMn26iGzXZP70kSfbsjaGGqVwNencoas8OxF3JeAmTPraMQcxianJutmNN6y2fRIpwZau8pOs5qhYTI62npmV83Bych76LNIudAsNxmDpICDpS51cXfJCxwzkIr4SiYwvkEndG/bMm3dXzME4N4cTnaNzGfJYki85mPI33BBoMQ/NF6MX7ve2X/rpdvBrzObli0fAI+ARuBwCnrhfDidfyyPgEXgIgWIYR53bSdgchGGrL1mF5AEF7C2KcUGp+jZqXFqdLxSmYkZNG6oszGKWIfPtQ364qCY5qsaQ145BoWGl3FwAugTJqbXSHEdcwI+9SxL8UHM+wR2OuNE4SNfx7UTkRUwVJWcdIqbpmFyCKDFmywR1AoRPoxC7Q/Sak8Tj7IVEaSVBabBEP2/JsWihaLwi/Cjg+T1Ir3FOijXk1KxHO+jHW6YDaW5SU0WyIAtdPajhnhKkuK8DGhWdos72nCf5o+tr9lsRePVPPNZRWRIwccAZJR1rAbmPFn8/XTND3GQy6ou42/+oPKNk/XIYMPACvgLira9F+oKhHIxAA1L3EC3SGsyksd7rppkWHXNvtGam+dR8eBibW7v6OqJnovOV7wEu+tLEgE3DtC5uRI31jfGL4bon7Zd7KL6WR8AjsETAE3f/KngEPAIfCYEg+NasOPx395HLjKIg7ougVEQoF9DLVuNLyErWoShNyBxJmBCXinXFIAu079MSP2t25kSXQ2Z7L9AGV/iah7iyhOiJF3mLaPQhxAc5ik1qFU110UpLJj9Si5/wJEhrbbmoqCkbNmIqYi6fblTutEgyIbnP0D/7g95i25gcTacjEu/INhWXheuyW8TPfVXQbsgxf6UyUlGyZwut+zDaR4bStwmPuSRJEGrxf1WTUwlBXzWLdmmb9nFvxfs/bsnUGK5Z0PYQ2Yw2lYSZI4kqSLCc4JwyQiJzmK7YCZimJKoqcVX/QYk1AZE9g8UzWpZPxLZO+OnZ1UXrOf78CYOvsuSrEAfkKOQU8csBkaw6WQ0ZYBaw/IUBj8WqGfDM0mkbOfuXOQvivnw2mmm1AJdE7kB4ue8PbptpdnURLq4oY9sXj4BHwCNwaQQ8cb80VL6iR8AjcBaBMEr2kjjORCoLHDVyopN53jO70y+YrNhCEtIjkRICBAssiEoqQp3jcT2dzkyDpL6YiLImqjEV2xjUrLbxJWkiQxjuQ6bkBy7i68ipfMxFhlzS59mWfMLb0pFb4q5JhxQzF2l395cEIiL50sZTrczl7L0huuj3aTVthyLaPiwJH4SW7qDrRw2v/tg+2S7yp64jy8kucpS5Je2a4Ega8hlRd1JEibbTHulRVHSxZREZLfmioat8XOouiUctS3JJvy6aLteUWUTyJZmZY+QyE5KRp2xL7qPuSvfNE+ZsJc8u27hs3zO1WD4XOyA7p2HKu9Dst5pgi87ZwRFxc1tTH40inhtjKIpyHyDuWEFOyhX7DJOya5rRDftlRoNMS94lrWGwGiAXY95ZO+BqJFuTZquze87t/S6PgEfAI/BIBDxxfyQ0/oBHwCNwEQJFmM6KOMorXF8KfvOsaebllvl/frIGgb9OKuUaxN1F3Mt8BUoHAYwnJs+IU0NuNdOokk+TcG5WurnZ3ijNRi8zvxL9FL6E7R6uNE5jLJrsfi4KflHLPt7xEGKuyZfqaHYk8i6iJhIOWxYlVXsQzVjuXBNl1zb20x9LXEUQRaMtKXc9sGSP61QMaCwxVE25sFhSDj6QxkWRQoibVoIyILI9SHpmNXMkGZU5iaqSF1nmyHkqYvDCR6sfP+aeEmnWNWtZkiL9SsgVaR8z6+uMZz1F0y5du2ZLzSDu9t70y0X/bUP0h/KMEniLn56nK8drGljxfBRxt1It/jMpAk4/hIqK8jIcPhB8CL2+flQk7IZxgsqrZwZT/adVmED3uXADmU3OM5OzkmL3m53+YqXVfjspjZfKCFBfPAIegUsj4In7paHyFT0CHoGHEMDQusJlpJRUggRKiSRmxZr5//7pisnyTSYZugKxm1vCU+aQeSLZOb7kUYhau0IlUMJbypFJsDzcXCvNC1uFuQp5/6WX3oM21hFoLmqJkqLtasFJwqrtT76cIu0QL0vU7b1F7xzptsKQJSdVTF5FLjQqInKunfJX0T+z+mnd1YshxjaS7arTL45LjsFh6anHdHEWpRBk9NNEtyfgq8i2EkPnHI9l1cgV62KvumxfJUH68rr18SddJoV0/EiZuJZ6rIi6klPn2AFNkYc4si4XGdl+Kh9h+UwguJWcZU7dXxuu30/ajk+zvmuR2q0euiKZjBpvcxiW75z2qJYi7TqsOnpOGsTpfwUHCmw7NbKLsIKMGdgoUG8L57iIu3TuZDLw7BL2tdvmQbtVvPG1q7JM8sUj4BHwCFweAU/cL4+Vr+kR8AicQSBKO/eKbncyzTfMMOuYH99JzXff6JsHyb/AKvBFq83GKwW2Q1SW5EUR2IR6VgJONFOzciaQ2Fl6x7w/xwbxnYFZ/fBPze+/tmKakMYQUl+FWEFCdmI8s5tYRcZwnZBJi1aZ+OeDYWImw6lJ2j3TxYavzHG2gV6F1jpRjRXDoii6aqPlbvOiv8GSeTmaXtfWtTDvplirRF2bdmlh6R/3WPJ2tpVIWxdVUqnZHHRv2Sy34C7o/PXTAECEfAN2WEIG99qrOPa8QPMhk0S5Y+7fLN/BZWYX6cWC+2AtKRtO7DQbyI0SorolmmssyG1hiMFyeTPWLDGlnc49xdVZtn65AXqcMgv3uQfzfGZouPliMkq65kGrbd7rbpn3uzfN26tfN3vxDR5Kx3Tplgh+RqJmJv97dNwxkws9tlz0LDSQOSrH7T/a9XFXuH/9VOpLWcjszsBcHSm5VB7+eLXr9vyUVFoPljRP7hyQ+bhBkds/UXWIezXj+9AMYk5qxnTEFxWwabR4apwYTrgm/vxxMDHXrq7c+uZXXvgTbwMp/HzxCHgEngSBk/86Psl5vq5HwCPgEQCBzt0yXLvLZEvfmJKwOc6QeKD1zfObEMrr+JmTZIq0Q4Q9E+0RubUT0WgVWkTSnnzdTSYfcyZiKtDEFy+abHFLqaomgvPXTiXMMUkyIPuI8C/QLCjRVVrvWu+tiKjVjCscqvVPtZxHJsXiHGO2E/Uc3d+yu6MtRd5tA48uYWn/ieNKW4X00T9pxTMSQWfBCppy95uFffYzoOFvAH6h1fC4iL36raTZ43J0kxO7aM8F+IRIdQIrxxFxlw2kmxF0bLXtXbudKa9Bybkct8+VUUGk2V1te45v93yuuef4yLZrIGjLaXydrAsIeAdDfnJRErnnAwbJ2AxUSd4usE5qNZsDXmUfbX8kwP6AR8Aj8CgEPHF/FDJ+v0fAI3AJBDbulcH2f8zD+FdGi8nmwSLGWWMdy8AuumeSKSF8Ipgi7pbMQuoWcB7L2SE2paw5LIlkZlQizlmYQdhXzRCZTRpscyyGAM3ggqLxN0yeEuUNN804ZyIgIstVxPkwILmr6D4VZDNAqnEBL71Ev568iqicE5YQ0bah7foaIuqnybsm7qHD/JYkvq66XMo2sKDvmiF1wheHARM2DaIJLjMPrNPMGtLoBoww4gtExZcMe3XNoooUQxMlnY2015evvwjU249ahkwoFPBZoCLp0iakkhg7jjTZEs4p/ObMnprh3S+pjCbdOvqCQL8tlb0oov6oGz+z+08TdE2adba4ia/cXiVQa5osvGfAEeLOoLOY490vO0gGuGv9jTcbkSfuZzH02x4Bj8DFCHjifjFGvoZHwCPwCASC4PXJpPrTvyCG+Nuj+cHvHkyicJhtWpIuMllBxCW1kEBYM48WMEel58msvbRaaDmoyNaQbeQWSv6bIwm5lb9ssuaBqRpT00uRx8RzM0MjP8hfMgflTbM/G+Pi0eKcBrwd9xkx9Zz7QFkD7mMNYNj6tMspfs7NavJu+3bq5jpyXCzto9/H5TSx15VsQigYzS1pXoEwjyHPfTzd23ZfW248DHOkl9dXCTHmgvoi7voe8XGKBlZKqNVgawHGUyWjhjjbMEPsJFy162pXZgdmjsTaQQGr8vN//svj+7BMA7YDUDHz46frhowVLjLKW0hE8EXcibYH+YwvRgvTSPOdK2vtH+yveeL+/L8nvgcegaePgCfuTx9zf0ePwOcKgZa5+WYQHPzxeB5+43Bc3Rgt1mFvfYh625IWO5u71SxDb9BiK4ousbWSGEts9Sqx3wJRMIsMCcKiuMkMlCNzsPKymfdDs431RhN/mum8aW6PVsy9acPszbDfK1bRVncg6s79BdWIvUalRMGnUM6S9vqWInH6AvDYcpann6B+Ok92kUr41D0WRLWnJKnKwWVCgmrt7NLBiaYFQSQ/2N1QgyOIoqK8H7dIA58za5CI+5jcAUlkJtaSUs5AzldehF5JqyLsEvXYWDttUNcdff24rXh+zy9zR9zF2zX5UllIKJaZVoLdacfsbq/3f/R6oBGtLx4Bj4BH4MkQ8MT9yfDytT0CHoEzCATB1/fe2f/xD6aL8d3hbHFjmrch7cwMWrM36YFPRJetPziE0B6G9SlAaydvIoFVEpMMO8kfv33b3F+7ag5Wm+YeNpFpNDLjUWzuDBKzM8rMwexFMyquINXom5R7WR0xEzoFkHZp4D9evPlMB8/ZdC4qD7Hvo5rO8/1oc7lyklCL3j662KC1OgUNLpDCzOIU8tzGHrLDr0UicIuk0Nj00GBERNxFmjUQkhPP6cTT8+4h5B9/f+Ub5FxvirPNiPsNSE6VJaV822UFmYG5ZDJ28GLJqSZ+kvkhfyHv9gvAebf+nOyzXyQe05cy49mBQyJsqKxJxmKi7V1ydtd77Z2t9daHjzndH/IIeAQ8Ao9EwBP3R0LjD3gEPAKXRaAIurcmefNguChw20BrDWHRT5aClZXKaAIfyWGUdKlAPORaYWm83KMC/2vrhIJCnGh8UK2aD3a/aHZmTXN3NzRr6RhxDS4e88QczlMzmXXN0GwScYe4N3pQVXmuK6opgiRlsRxBnkLRgEQ3PqfILed0EWk/se9oIAMGp4ob7Shurhi2jaATtp0jBxKBPsRJ5yBZNesx3yDQ+dvE3dprnK8X1k8cnGtebuUrJ66/HC5R76KCzSEDoBm+5IcMFvbTPkuRdzdw0LN0P7IX7P01eNDsrwyZHoHJRXd8po4fJZ/SqvP6c94+2wH3PKXaihl4hUnIHAVkWOO208IHcqUdz66shO+trXv/9mfqefvGeASeIwQ8cX+OHpZvqkfgWUUgNf29rIrfWhTRt5B2wBwdec8hnUxJQ7MVCVYSpRxKDPvqZFUIN7WxJYeqQriJ8oaQ9xGzTw5nbbM3zkwz3yFRlfNwoymQ35QlriqhJBtdziHKzPXsYIBrSF8dEAnW0OCplHPJu5s9lM8OJ5qg9hxvi5S7wj4btmbriGXrqIuia0InkfcMEj1FUz7EflGR7zmR8EWo2WrdNR0GwllgaB+/h8ilGxS4+z7+r65QcB1F1TVjq3WTkVwG2cwML3lF13U113SL/nIPbdeXgrp7j7/Nc3v06FEdYXC6KyVfQpynP++CngP5GwnEvZ2Gg04z+RlisvHpM/yWR8Aj4BG4HAKeuF8OJ1/LI+AReAwCL62u7v/T/uLf3hp/8F+8+e33vtbsXGW2SJFwiLWkLDCdBuwccs/2DOINdccBJsolt2CiHysEdv8cWXfyVGTwVVOiCS6TLQj6CO5DRBl7ybxq2yRNsUadNiOgKelCs0GiKsR/gd97gOzGlTrGfLLxuvaSWZ4i16pTM07VOVEeIsEnjnGN0/KUwDQS5ELLS0h7r3X3c1F3zUOqosmSQqQwARjEkHDNyCkrwfkcP3bp/yVHMR1Txiik0fJnJOTO+dIwKDeIws/xeh+bMHtgiiw3C3JVx7OZmWUjs7G+Dm8XgZZ0hSWl5LpaOztOqI/XdbRMNPET9x2WDTPga8hu1TM78U0zb7xkWo11JoVaw9WGqDJWnhqm0GOSL4n3Q1g1gVQW4UnP/awtIv0LGXionxqEaB9T7Oo2Z4obhGintPOnytnn9NDzOPO8jp7jqatcfuOh658+tcbw9N7jLYmGlCbcoM8JtpnzuXj6XXN9c/MHv/X6l/49GJz4/HJ8nl/zCHgEPAIXIeCJ+0UI+eMeAY/ApRCImsVhs1Hc77TM16DoUBelSSLn4Gz4KASPLUhkzrKExYrYuKLlSYcVklStMwpSERG2QNPbQAqRZFRMQFSwrWtZLrfkayU3cNfTtSw9ZSnyp/VjQsjGsixPtPzpDEmsq5xaniaG6ltdROLcHXQvV3ZneNdzoCavlsCKtC67OdyHlNsMViLUS5Ja59SK9G13Vm2Cq/VJt0hCpvFyD6J1cnul8W+Y3VFoVifoyUmE1GycIQSx0+6bVsw/65oF6AmL1dVzjvpTNa9yn74JWtdN2H7FhM0XTN7cYCZcNO+aZIj5pWS/T+NpHeRdfWVwETApkZ51qHyD+n86pofFDUTeqc4Xg2Oszmum9YM/eeAskbbvxclr1M9QjfrsSxprllTaQeJwkU15NnMGlqZot8z77dDsfPYt9C3wCHgEnlcEPHF/Xp+cb7dH4BlDoNtcDNY64U+315J/eb/QfJNzS7BF1CwptARODjAn/tkRIRPBsQTa7RdxlFBEbFiSDCZ5ssuQOqUSWBWF5hzLi3SYqiKPLp7MmVyzsvfQQZWTBE/bnGCJd31cVzpdRD4fX04MNI7qHverDijXkWbZzatfWM6L65q163wRUDMolgAvNfF2Mirav5hA+GyknMg0EiHZSy6IgQ85eR+JTLexbWazKXvuMZPqgORcNNQksDaR0lQNovKz2+7iH/Hv3ujQDFupGTRDfOO7Zpqs8zTXcPxhgqwFNpBgqq8MlT55qNAuxd35BMAT40lg36lNPQsNTFQ34LOIatuBCnkQp8sSjKOdR6Au95zcXta1IzcOc+3jcvY6x0ee5lor4csScv8ymyEDGzLompnVfnhno9/4fnrV7D/Ntvh7eQQ8Ap8vBI7/S/P56pfvjUfAI/CUEbhp+vubq4O/fXGz93t7dyYvScleIZuQtl26dRFUEeJYEydpRcTO6qFF3qF7obOGtIdECCF8/HUkXpp51uRtnltWrYi3WLDOFTlkW0xJlFIkkciwPdkS/4eBUJseKmLWyyLJiivH++pjWp6kisf7j8/pN46JKd2wxS45UctqpnayG8JOzBycaL+E/iqMSvroydUBVdGXBuUFKEIfJA3kMium6CMfqiZ0/b4x0yEzzELeyVSVTCgjSTdGgmNP5vw6ks6qLeqa01/r6qeP1xCUtI+7mlmrMlOel5Jjw2bTdHC2aRDZH2pgwT2sBacIOZ2KGVCJtGtIkyOdEf6KutvJoAQNF3eDK5e4qXufW3gXCNy7UjfoTMX6sN39UPT9TOVzNo8e7znHtOsRt31E7Yd3J3JVIhG7WIyZfGli+s3SbK517q9vNN54LSD87otHwCPgEfiICHji/hGB86d5BDwCpxEgklr95dt7f/PKVvWTH9158BL0DEpKaipRcklbFOS2kXIRUBFzEbslg1Iypoi4CJnisg0ri1ECq9OxHyU8ysHE8k3908UFIelKebWCHI45YqhrnSl1dFa7dQ6R4XOLBgIUXfFxRRNL1eU8Etgg+m37yp8SUl7g410WC0vQSwYa7TaRcXuiCLa+END25b/Giro35wfkAYAezDhcTlaVgVlYkB+A/eMuhLDPLJwD9DW9BrOX0vMEeU6eQdxzZBqt5SCgbuSZpWuz2LQj7zpck1U9q5XOtpk3keXIAjKMF8MgT6fo1ouUGWz5fNApWIe45xFfQXieIu4aQIXM3qpBWFNThdqL8pSWXxPs5nK9PJLKnKLg7hwuFZLHcFROPrt65/I51ZtPuqz7+qTnXba+3h4r3uL5B3wN6bYis7Wx8vaV/urPLnsNX88j4BHwCJyHgCfu56Hi93kEPAIfCYGNlbX3Xt5M/yQ2P/9dTZvEFEGQUqLkEDZLysUV9RNxFgmnOLItAin1O7WIhsfUV3KmI0CK1FJ0nii1NiCJBeRNBLTWymtdVVyyJP+02Xr64wYErDy6PJIInkOAuZEi+kqIPV2OdwQirmLutNd6ukOyRc4VXdd2le3QPygy5DcgMispjQYxkpuEcWAGB2P4L/vpZwIR1xeCBXWmXGORVZD12b1ssUhGcdYYZPNOUk1x3lmYBPtGieNDMK8j7XbQtMRK7VW67nGv1EaLrg5xxBHpcTQ0I3m4x9Nbo3B29zCfre2ORtdnw7hZlFPTb4B/RFv4wpEBRM7N5PqDPycXSUx3XQMX59Ev/bvW3c+th4G+KJxTliRdz/2onH02tm/HWB+NOI5OUB8/20IetUVVA84YfPr91u72ldW/vXmtufvZtszf3SPgEXjeEfDE/Xl/gr79HoFnCIGvXA2Gf/dm9reIK27zu67ZIl3UXdF3R2YUIT+pQdd2XRBcsAo5R+4hZqzIqKOVUDkIm6QysEsnubHbWhfZ5xoiiCLV4nRHIVVH4eSooomB6nIyudTtO26DtpOjuvX+5dLeh9shH1E7bbE3VHPrusY0sjFEnK8FER4ryJ0jTL2jOCqjKOQjQpzfuXdvAlHHXKcsorgo4Nt5EgVFEkU4aAZm66ubCyqmcZUv0iLI8iBM8wifzbKaNfNq9htbnT/q3u2tdN45/L3g1offXMyh0CSkNuLSpGnTkvtl49xCGNXtdXse/mtxpBaAD6oDY0h0Xbve+PEXrm38x05vM3pQrH31YJx8YzaprvSaUZEHpfWOmVTE4YugkS2KZk6iLIyeaydWEiQtjb4GVCwtcRdEYMvY5BGFCrYdx180XEX3HO26zYfQ2nLfEn977Oi5261H/jl+UudXOXG38ytcsLcgOTdlYFPxRULmmb1O687aeusft4PA20BegJ0/7BHwCDweAU/cH4+PP+oR8Ag8IQKdNP4wrBYfMgnRdUXTpRcXUVKEWtRZqm6tW+K1JHAu6n5MLuGE0D3kI5a8U8kST/65OiJmGgYsSbtWRJrtNd1SBN/xuUcwxGW0X6e6cprKRfZ+OqL9y2O64JKcB9GAneWCq2NGWZGJq/VSPpT4V1bllXB2L4rDIk2ivNlOsmYjWTTb0SJtRAvI+/jf/Mav/pRoexY0zDxNqkmSmGnajEY44C8wJCk2OuYOY5eS7hetwrpAomiXNhxnEgLd31gxhztvbG6NGnv7e5O3XikOgtWiRDqNnCbBVWaR1XaY6sPFxcJq8XN1u93rZuP6qx+++I1f/j/Cr//GHw9vfmE4mZv03shsjsb5ZjGNN/Mg60zKeXtSZv3JItieZul2MW9dLYsg+elP32kSaWeYU8ZEn1NchJJCs2sRgIbAh2HUWQE3HigCIauzOd3GSdhjxyOena2qHIKTz+wMiT96T05f92ltFbwKFQ9PeRsxz6TZMnfbrcatp3V/fx+PgEfg84uAJ+6f32fre+YR+EwQ+Oor5tZ/+6//+R/+4Me3t978+d2XJmbLhGnbjDKi7/C0ZpNJfaxUnSg4PuGa+fSYmGudJMuGZDTSxkPfpJ/WEqJmpQfsjEiQFK9TbNce5U8lmrgk5FObzcm+JRnVUteR3lg7U6Qrzq5StpVuXbIURf+5VDm4e5DHYTBuNqJpu5HM2p1o0GtFhylGK3ESzhuNah9+fNhqxAe9dnq/3Ul2u+3GoBmn1I+nX7qZvN+GeCNXty3Qsl6n74W5ahZfU/aiml0L/dXJJyt39v/u7/78Jz/50e8uzM5vra5fa3WYsnN6965pdJhhlhHABP6uSZoaRLxbdB2dC5NU4X2fLpDeSG5kub4hnE/PmVwJ//Y5fvF3Fs3RK9de/Q+vffUrfxZ844sfnGgW2bAPF8h49HMe2HzHJNOYDw2/86rs3BOgTcdz051Ps+54WvTmWdBe5EHrgw/2vjYvqn42K1ZHs3x9Msu6k0nRnWXzVp4rKWLnBo+pSdubJRdCNASQZDLwbojnW397vQNKAnWfNJzVJEm0eh+KsXvwElnp9bGvkPIquIol1HyZ0DtXkgWra+Y8CT0sOfnoywDw2evVHvshdezDZDSl4/oqoS84eietLEnt0304P2I/Fj9mcTgwzWrffPFrxd/9i19b+R9+e9v85GHk/B6PgEfAI/BkCHji/mR4+doeAY/ABQhARPM//sfdH/Za+e00nrw0zYac0YNfQbjQXxdMxuP07YqYEqAW+dE1bTRbLjTacERbPvCWdBHt1rqirKo7HD5gCfHXXgYDoX7YJAbYJopO9TtLgiViht68lOgY0hqQICp7m0Z4iDVjlcVRMUGPMm3E1TiJwlkchSPuOHvxS1+5zfqDRhzdTxvBTqcRPiBaftCIzGEjNuPeqtmDw81Wmyb78KZZ/Hef0YQ6cRR92Ox13l2k6a9NsmlrShKstDlLCAXjqSJsJCdSfoCIpgY7QlZ2k6yAriP6UW9lFLRb75l2dSlNNs9cn0D0u5SBPOQ3+OsPCURjPzMMGFNk83Y2z7vzrOxC1Pv/eHf0O3lRrE3m5c3xLF8ZT7Iey+ZkXkDsy7QIk35VzdN5OQ4XfOvIGZjITadQIi/Pt9/etv3W+0DGhH1T1GHrzMORwa4IPVImmyiNtEn/JUzYh8+8xlF7ezuWuMuPXV8wIv30jtkECxF+e3n7R++rGyYs94GpWcztqKXXrMxqJ9zDWfOW/v/i+Cy/5hHwCHgEPhoCnrh/NNz8WR4Bj8BjEHhpNf7urdXyz95pzr4wyvY3M1xCggRySEQ0g+iUsiu0lN1GuJ2sxQVELQsqpi6CWd9CkVNL7iFlktn0W13Ikosey1IxQCZSSUzCMUVEZ3fl5845RJVTiFgc54skyIdxku/iB7//wtrWgCTQIa6Nh+1mcKfbiO61GsmDZpzsIW04+PLXkncJ9E7Xrpj51wOyPp/R0l1bG65sXn1r3O3MRvcOzYiBSSd1MpmavLtBkeuASKb2E2C30XZtK/gsTEurLdfAisj81e3dpLv2tjmMmY/1ky88Gz1tXVs/BPWny1tV9RfFjkl3C9Maj+crw2m5OZnmG6NZcYXoeO/u7uBVSPraZFFtDWeL/mQ2b01mEP9FoY8OaVZgPK83RmocBnyK2utNk4RKA5WVBom0IvI2Z4I+Q6l5jXh39NUGIm9JvB3SsBOtOoO+HN6td8oaXhLtVwds0XXste0duQZYYtHZjBbm6lp0cGM9+durneReXd0vPQIeAY/Ax0HAE/ePg54/1yPgETgXga+/sLL3p3/347/82Ur4r/ans81ZNSIqvgKPUrKiZs6snV6IkotSiTRCriKxJkpD0XkIpUgQhy2pkoS8gmGJXMVEViVLwJ6FpaLomp1S7GvBzuKwmw4/iJN0r9NoDPrt9mil297vdbp3O630djOJHmxtxG/FjWKcNotZa9Gdmq+Z2beew4ho8Morsw/+7//9Z4PVtYP5rVvXJvPc9BHME3u2OOobhQvzWvoOUZVnvMNYFTRDqX4aR1lve56D6Or6jevfb15d/VHw+utns0TtdT/tP0uvc/md63ON5Dlvnbznt+9X3ejQ8IXBdIfZuDccTdcni2JrPs/Xijy6+qN3h/8Srf0qWb19JsNqLhZhNytCIvpVQt6oSSIGN5Lco8oxdo4AueAsB4vg0d1YJXIPWWeUkPErlXCgLzd2+Mj7FyPRASnJdyqi+sJYWFuqrzHJfGj666F56VrrjevXm3/1lV7vocEJ1X3xCHgEPAJPjIAn7k8MmT/BI+ARuAwCr66u/cM7WwffuX84/vJkMr+aExW3zivwxhwdtaM6Iu3IGdgn8m4jwvCeNewGrXZYbiQKh+aQduV+SqPOcrh7F/IVmEYam3YTHXo7ut9pJveaaeN2EsV7v/TCC3+eJOmDZru6s9LsHq41zSD7spk+j+T8IqzXtq7+dH1j8/2dqPHVHDebiBwCZCb2NHFI0XRF1FUUGS60AdY2Bs1qDOj43fAVRJNb8Quj6Y3r1/+y1dt6x5317P391mYwolX6PTjbur/6oGrd2Oz84WIebM4X+fp0XG6MZ8X2aFZdm8+rG/OivPr2zw9fqoJ4E7OeNCBDuCI6jg8nP95LXsbZggGOMMyX7x/4hGCDMxDyGvnmLwHl5vWaEFdEXjtSMzZX+82dl7c6f/Lydv8f2O8eyNnG+m2PgEfAI/CECHji/oSA+eoeAY/A5RB47bVrD/7sP73/7ffv3/o39yDu1YKZPqMeOmI0x9JU2/ilqKQS+kTg5ZrilsPbuxAlpC4EilP+pJqMiEmP4jCbRGE5u3m9eQfSPu910wdra623r6w2/mZ1pfXmerd9hwsP/svXgsHlWvn81+q0rtza2Nx6Y9Tp/LY5POyKkqvYQRJRZbfl+rn8oMGGCKZz3pGDj7YLnkmGofw0ivfXtra+l/6zf3Ypfbu78rPz97deCCS/eXP5O2rYH92u2ukD0yVKf+WlzcbvLWbhq5OZ+fJokl89HM2vDifDlfEo65Ica8oOg0iWyii23vpRw8RNZo3la0bC5FoHU91CXyeWNqcaeGoPepsEac1aY2a219OfvLLd+n+/3u3ePWqEX/EIeAQ8Ah8TAU/cPyaA/nSPgEfg0Qi8+vLaP/zog8O/b9x+8NVyPmgHcReZe2TaopMk8UnuIrIjv/cIwqMZULUvm942CSQJC71spds4WOul91Y6jbvdVvNddt/5yivXv4PM+LDbNHdJFD345xu/OET9HLRHK1vbb7R7fcLtD7pykbEK8mVFEUptS+YhYxXnvqOD6LXtNgm8nLNggARpx4kmmCSbqx8uT//cLH7/eiBHTf0kvfmxIvOTzPSne9mNOw/Gv7y7b750OCpfnM3yq8Ow/aWMaP14Pu9P50hm+FqknNOYDz4MI01bki0uwvRYfKVI7aDH0ni+BsXItzZb8w+u9cr/tL4ZeycZcPLFI+AR+OQQ8MT9k8PSX8kj4BE4g8AXt3v3/+f/6+0fxib/11U+fdnkyGUSSHpJop+lkpB2CHtocOGA8OD/PsFOr9h8tfxesxlk6yvJva2N3hvXN7vf3Vrp/LTVN3vxupm+HgSfifb6TPeeic3g619fVN/+4/uNdmc8I2JOkPio2KRTMXcQFs2s5e2Krtd7meiJw0hkyDvIsNqZRcG+2WhIW/65LsvIvELnShz9/nfxms/3TIuPO+1/+JH5b8bT8ms7+4Nf2d0brh0M56uTxWy9mC46+Qx7zZAZgRnsyJ1HGMvmVO9zUs0tce82s5+vtYrvfanX2/9cg+g75xHwCDx1BDxxf+qQ+xt6BH6xEPjmr3/hf1eviaIAAEAASURBVJvEvZvf+eEH//3799+7mh9+aKZFYkgSNSud5oxpOPe2Vpv311c6d7r9+K1mEu/+5uvd/4mMP0vON9bM/JUguJTN4C8Wsid62+/f7X31Sz84PNzZfuuf3mpfu9YxTfTZOVbxiqbjn2gSfpmSg2Gazbhlcnz1J6ORaUWYlpNseXs4NMHNzTvf+q9//w9OXPkXZnU5GNQ7J5nVv323qprmYLV5b7zaHYzM9t372esP9hb/YjTIX3vn1rvXZ3m4Ms/C3pQUjIzRUoBHZAjeMqf8r37v1T94ZbP/F17b/gvz+viOegSeGgKeuD81qP2NPAK/mAh8c9vs/PR2+jfXthq/FUXFtArT8MaNa7uNONxbayTvrXTSt1a7wVtrvfjnSTe52yf39Jv94BfahQNLy+h7xMFb6Flycy9pk4p7aDMDDm38PDXrUMTpfItXCtV1NPjpm8Viq/+g8dJ2Hs8Xppjch6Cj7aBIDqOTnK+Mc+MpMkgm+0ngNXHKXVodY9pM37rSmhz0wmLGpFkfVB+0SMUMbptr2a+TpgkJPRHLt5f+XP9ZDhY1YNS7+OG3363+6ca15M+xm7zx8ouvvT7L8u2DUfHLg/H85nA8XV1Mx2meLRY40CzWVjtvvPLK5nOZI/C5fqi+cx6BzwECnrh/Dh6i74JH4FlGQITv79/d/4vRF1fSg83G1+Okkf3Ky1v/J7OQTqPcjOKmGf76NTP9vBFDTTLEcwn+A5x50/yYKZ/60Tqx7sLMkr35dJVE0QbyiqTM88asCJr4DTaKIorRoEd/8O5fXYdpJ2XF8aCICk3xaW13yCil7Eym1xpBNGtgUt8ZT6L+nZ2NYOe9/8wsDtI+Dikvo4SRP3spds7/aaHTNWuqZDGj4cikKZaG1gIRb32caA6pcy8qmAhp71fiw3/MB5MwzbHuCc2707eDeP6/3v6HIqrCIs2DSb+3eq9d4o0fh4sI+5WsyRyjPMCyalRJczH/pnnhPpvOiVIN/hyUb71iv/r8jK78jGf7nR/eMy3mWdo6HM9fPRzMXh3PGhv5fEaaRr5Y22q9/Xnr/+fgEfoueAQ+FwjY6M3noie+Ex4Bj8AzjcC/J4p87f3Dfqu3Ur6+Hhw+0429oHHSQ183d5IxjvNEvpP5tGri+Jdm4Rw2XCZv7O/8Us7kQXjOx4sqb2QZP1OkzOKa4lTSeP/u7S9BylsQ8hb7mnmRa0bQKKt0PKgeTBZrZaBpqsqoMBD3Ksd4R3OeWuIeHCyyRguiHWNd2CfCvnkwLnv7++EaGZY37k/Mf56UZnUmxx7x9sB05qmVyyxg7kpOvTPYMb1uD69ytbZhxit98z0mPX1jqz1NX//a/OeYHk7SKFwwyoqreByYJKsiO3doFhfB5NrG+q2oCqZJFE3g9rnBJhFL9CBilqugDCavdW/8MIzCYRqls2aaTlppY9RMk3EaNkfMoDvfaMQHiKWyKS7pHTPLb5qbC4juc2uZ+KMfVam5ylgI10icJMuvO7vKC94if9gj4BHwCDw5Ap64Pzlm/gyPgEfgFwABoqrxh1KimEFrYApm5Zx3F/miVQRV+vM7P//Vslikc1M2puWiP11M+/Oi6GdV1mainsb33v/ZL+v8rCj0ixZFFuOtHuZlQSAc1/Aib9oJfpaT/LDfsI+gO0QavXSR9izBLnDcKZD6Q9xh4JrwByrPstVfR7MOcWfPSpaba5PcbM5m5oXRwnzhMDOvD/fN1YkmqoLdE/jvzWMTF7GpifteNjG9lRWTIZkZc3y/1zJ/E83NX/dLM3ntpvnhYmYmDWcPCXFX8J9Ws+Ry/z97bwJkx3GeCWad7776voHG0QDYJAASAC+ROqzLHtuSLHvlcWx4ZsIbY6/XI09sjHe83o2YjZmNiRhHOEK2J+xZSZZ3tLZlHZQlijKpwyJFkQTvAyDuqwH0ffe736tzvz/fq8ZDE41uEN1AN/AnUF1XVlbmV/Wyvvzzyz9N6irAQFYDtniavkg10BmABQeEgomzaJhmzIksaJruhXStGtHD1ZgeKsWMUCWk6GVDVYtbe/reDWlaJawYJfjeL0SNUBYz186HjFAByVbTicy4jqYGOfCPCaPiiRRGNosqyD1ywIERYAQYgbsXAZbK3L3PnkvOCNz1CIBcq5NiMjItlHi1Wo2DWsdBmyPnZ2b3/vfLL0VLVjFdKpeac+Vyd65SbC9apXjVtUNTc/MZ23cMCJq1EoQiVSLxED87mCiKCLkVgnNAEGwH2y7cW9IxWtM+hWQas8iCktO+JOqgo+D3kpSTwiZMmnPyP0hzckqvOzRjrGT15EhT2CDVuBzxPVGBtZtco1TNsHAxyFTFdVYxC/eORNwxzRXSlnRXpodtxMUssiKdTIpcxRZFTC3qRkLCC+uiHLPELPoQKtGQsEwazIr7wJgMj/qQ3cCjObzRUDbmFxagfsfETUgMNnbZyKDcqi5ikpca10wLC+dxbxWzjtJMtxrioSNAkv/0pZOfMFTDjximHTHCdsIMF2GZr4aw6JgAqqe74xzcgZZA+hcSsehkKhK/fN6Mjr3mj0yHhZHrEMoUpjhytpJDF/YwBOQ5MAKMwN2CABP3u+VJczkZgbsYgbP+2dBsUUuXPCsNtUna9qtJx/ej/zD9SqZsVZqLdqmtZJfbKrbVCst44tnTJ++HhEWxXSdUtiyjaFdFCaS8bGPgJ8ioBQMz+DVGbMIGjjWs6DiARQZfxOPR2haULRSPAp1V6nHg8xJ7JFen2WJB3iWdpjg1wq9iNs8acSeyTMdgWyfGTAsCLP3ynmQBh/tCkcWfEAh+Cg2BOcz4CbeOuC+lT37xa3eSFwZ/LDQwoOVB+UQevseLekzYybBwkvDjngRRB2FXoPtQYGUnuz4oOFoAsKxTPiX5DssCgY9L0u5CuY+eCEyuReXyhRkKI7+KqFJDxcZCWbdxHu0Qaj9cyk5SWoqpGmYIs5eGVD1m4l40Gy7U8sIYPXofZDgCZF7EwhGRCkfzSSM6HzciC7piZA9t2f0DXblYOKppc89OnZiLasacYRrZsG4WVdsr7k50L2xm6U3wmHjNCDACjMBSBJi4L0WE9xkBRmDTIkAW9BNiOoqZiDKwUcc824KF3EqeLlvpsp/vqLhWG+zgyWeef+7jsI5HilYxlq/kY/lyPp4r55US5CZEZsuY1YkIpCSuRGIx65MCrys+LNo+rM5Vp4xtsFYitgZmJ8Wi61iDLNN1hanLNQzJ+kxcFmsQSalQl2v4s6djFCTZhTVb7teP5QvkkZCEMWC8xHZJKiPZL10Bmp9pBrnGKZLCgAmjsSEqWMrwNVPCeXBjeVsVrQrJpeURHJS3hBxmPgtvMiGRB4FfQKMk1xKFxR6DVFHGSlgThUIJ0h3kCWW0MeEQEXcfpJos7+SsxjDp01GX7mDLxTlJ3EHefeh93CpmyZVlpjQQlyz36CXA1YiNv7DwU77wuMDr4UMe5Shjv5ZXR1hWzamQhoM6HOkYvpIwXQ2L0qdjQO1PTrz5eNSIWM2xxEJbqjnbmW6abEk3D6WTictoCkyVhXf4df9yBcIdAOfYIaFZmCWg0iqcAvT0FTwDeiocGAFGgBHYdAjUvhybLtucYUaAEWAEagic9f2QJ/KJBVFtguijqSK89I+HX//9SrXani0UMwvZ+dhMdj41n50PZYsFkEJLqGFTWsopBWkxJ36NhbYpFEm8XQ+LFvOG2nK9WV+NwAY5qOVN3hODUcnyTfITIvUGrObkLSZRVUXS8kQcvtm3zTvic6MzYnCmKjqLQAPEvgLuXKIyYTsKXXuiCiINK/4sLOPHmsPizdaIONlkiosJE80eXUyDxDvg2PBlUyP7uDkVf7XlpsbJdQO1LJaExiswCddVZ5fS7LB9JTZhRXvkMYfWtP9w2/YzccOsZmKJYmumaaE10zzSlmk61RxJH03p5jR6SArwdA9ItOI2kckjv9fI0VVZ4B1GgBFgBDYEAmQ24cAIMAKMwIZHANZ05RzGRgoxFypV7OZSNZ/JFUvdL5964d6J3Nwgll0zlXymaFW1o9WRraQrt2nQJ8hsFTO12q4t4LUFflo8KcGgAhNRJ4oo17RNzK8hBPvBuuHUbdskKztJVCjjsqGBPBPBtuWiYAAqbMzYtmAFd2D9J7JO+aeF4ksyDqs3bdNCcWvXYiZQbNOy3uVtTD8g5fQcgkB5Co7LY8gnheBYDq7nrwq4mM5RNFr/aPTYQEQzRNIIi1Q0JtLRpMiEY27CCC/ENCP72MDeH+qaNpU0QqfHw7NDb5eHJiLh+Owu0VJkEn8VsrzDCDACGwwBJu4b7IFwdhgBRqCGwHHfN6NiITpTzTXBet76g+mTzQW33I5ZKuNHjh/5ZNW22wtWJT1XLjTNl/LpqUpBzVllgcGiYt7EcE1YpxUirlhUSD4UkmroJgzWILdujczSncjUGhDbgDwGFu9Gghmcq+XuNv+tE1mZP2QMY0IlSSfSbqO8VejDq7DMW9gmgQs8TMoM+/C4SE4lKZCenrT6FA9OZ7CubdMxeb5+j9pew186vgIYNDB3taERY7pGJo8/Vx0Pkluap4Z9ii+j4U8JLtcxngGDb6ti2iqKcG5OhBVNi/paM2Q3zedGL/1u2DCtplhivjmRmWlPpoebE6kTRyPx09+bfX12oKn9ZfRlVJqFgUmu2qFrkoNgg1ystmgcjxFgBBiBNUeAifuaQ8oJMgKMwPtFYNj3I3OikLiUH3nw3Zl3OrLlYt9sfn77dH5h+0I+25krFRMYQGoODV+OEVEjSzFZZ4l42rDFW5jr04VePKFiB0HqH0BUiXGRfIMszERkHXhjCQKpT6RUHJECsri4DiI1rhF/JeLaGP39bNP96/z6qsvpWL00Vx0nPTlpzGuWdpLFqJDHkPtHKNRRaBVEmjy6ECumNEj7TlZ7D8SeyL4k77DQ07YLQILyX3WTtdwhDINAD6chLNmtnWmMjyNwbC+PL5vP9mYpmSFJkYuHW0J0THIliuiF0R1fXBw+Dfm+ZsKrTTvcVLYnzMhg3Aj9fFgPSd/0H9tz8EehkDGXMuLD6djlkWS8aei4PzYSFZ1T/YpSQcMETnU2r9/5Brh5kxFgBDYZAkzcN9kD4+wyAncaAkSCXp2+sG3SKg08e+m1XQXL6nvl8lu/VnWdZN6qxEHelWw5L7AWpWpFWHC72NzcXJN5gICTh5Uq6bixSO8uYKYx+Cwnqy8dIclMsOCgPG7EItclp6shj+v9HJaSd+Ku0pJNgz5BwsmorYF9e3LAJ/YRwcXgWAceZoog7qRpr6CnAdxdknei/LgCrhkd6aYRgzVlw4dIexn+16nx4+B6atwQx5ekuE6Y66u1KzJlJUg0WDemfs0HcCVCTe5zZV9uNaYD3/aUBDXIau8BNtAowaRR6HXB4Nr2hBwQmweIBbxPM/AWpJSlb58Ielsis6X8b8C3vIBGvtySbMq3J1sn25OpY83m0DtPDb126cXJExfH/LF3u5Su0pJc8C4jwAgwAuuKABP3dYWXE2cEGIGVEPjx6bfvf3v0wm+fmrj84dHCfEfRrcQuVEZUsh6Tt5JAs+3BhaIP9+bknrAQrpF0F8QL0xYtukckGQjsxaLggZaSKR1BATEl/+PkX5ys7sR6rUZi2Ej45AX4c8UgT0dqIbhmafzg/BquaZIl6Q+9IU06Rvkni/ki6W04D4fm0uJOuvYcvEnmTEWS9zBYrgJpEE3YRFk3YHkmlEheI0k7CH5A8gOpTVDUhuTXfrPxJkswXbIrSfhVGQgiBGkE+/W1j8Ya4JINlJo3HJxAo8THJFH0aOFSXmJB4wVocC9Z5YNBrrR+E16BMFmUgDU+kjJjWOJtzXrkvowI/0JC6HP7d9zzjKYOfgVJvX1VvniHEWAEGIF1RoCJ+zoDzMkzAozA9RHIe5XeocnRx94ZOrVzpDgPog73hnDmCI0xiDsmJQqhmoL7QRXSD5qZk9wtzi7MgnmBfYGUk6tBDfE0rFVyq4hjPrkfRCCiK1XetMZCXgDh3FHYJRhK6yTv+rm7xtmALF7j1FofWmp1p/RrVvdaJsg6TltEwsFLEUjf7oos3KwTeSfvODFY3CNYyNpMFnpy51iT1FBcIu2KwHSmsLqT5AjYEHTkd52Su1Yg3JY9ea0L3nvsPUkE6dGJhhAcXjxUPy8bLzgYrCk/soeA1nQ8jsKjnNTYIUyCZ+2DoNMht1zBIQkY0oClnd4lNPRq6eG9S4cgr0EvBBo8Ba8k5ksVMW/rmKVWT0cdJZ0MJR7a0rPlaSTOxB0gcGAEGIFbhwAT91uHNd+JEWAEroGAaUTmQcoL5BddT4SFFsUA0mY4OwSvqsL8WcGC6YLAJWFFBZEiUqnBnSMFDLXEX+iY4Xtd0FIPkUimJo9BfBv+zWFSRRwbxKwmlVHhw1xeGlywZE2pbuhQJ7CUTyLvkrjTMZBuB0sR8JRB2qX2H/seWL1GBFWyW5LIYMFxTFNa17hjjAAaPDRmgOQ2AdFdTwzqRbj6MdSBX8Q/iBRkpL7fSNKDU3JN52mpotkHYMii7kIahJeBWDwaLVjoVcFYCBoXQEEhTT+tQeSltx7abk5JCzx5gdfQyiG5kQrAVLR0MAOsPZ/P5W3bLtL1HBgBRoARuJUIMHG/lWjzvRgBRuA9COzesf/lXFj/YjGidrx68Wjv8MKUnC3TwWjKMhhTBWMAFd0QKtz7SS8xqLX8Csg4AlnTa1bVGgGTVngcL1fzOANmWg/SUo80KBBdWxybusgQ5anaSdpcerx++latqCNBioFAPqmngKzkNLkTZYsaKyq0Hh5w8CCHUUAqaQZXkoTojicWICNaKNliGpKgPrKcW7gGEziZSIOaO9QgskBgc1jPo3cjB+JaxHYecGHGIsyoWpPkyLLWcbgKDqRzs+Gq9K6X2NKIS/eXXkvnsciJqbBBu1JyhB6Z4HXw0GajgCLLdyeQJdGICKCJi0Hk7Sx6eqLCDceFVYDVfSEvSiX4v483ida21nN/+Ln/49O70FkhE+I/jAAjwAjcQgSo7uLACDACjMBtQ2CnolTb0s2Hd/T0PdfX2llIwAkkPH7U5AsyVzVNNklEgoVkDdLqukyuryLtdcsqRYUreLksvYzIPC2S6a1EDpdevI77UsLRkL6UyTTsL24S4aYFNTpZ30kiQ7p1ksLYkvAHVX0NS5LK0LkK4tDkTNIyj2NkmW+AazH5zbZBkpfrLksKRI88WOQpzYTsCtIs9NYomOU2hPexPZkR2zv7Jnf1bnuZSDueTa31uCQt3mUEGAFGYD0RYIv7eqLLaTMCjMCqEPhYvPNMtqv4tflqvh2eYz4w4kzGSeUu5Q3QXUtLOxilR6ZyksuQrZ0so/h3FbklAXMD82w8R6R9MdAmMTWE4KjUN9d36qdqEW7HX5RhMYtBPmXZruR3MVuEAyLTwFyCpjY4VQV590HOyUsMpQRWjki0TXKYKlInKU3eVLGAhUIyQ1IZCVEjTos3uTM35DtEuNaDxFG+GIbw0fPg2kCqaosmMyL2tG2ZP7jtvif2dG/5Jq5j0h6AxmtGgBG4pQgwcb+lcPPNGAFG4FoIEBE64k+8aPu702HNyH3j6DP/g++4cNkHdTu8fmjQpKs0UJVIVp1oXaFbS1LE+UbCXjsLoh9cR+s6QQ+ubLTO0rFruhsMIt+KNRHxZQuIDFDbhc5TOSCJ8UmXjl4IsqTbKIyFml16iIF8hqzotcTIz3uNuJOzRHIVSVr4Isg7Wd7pWiL4Ep4l+NCZzRRupO3R+K7IxhsK6pMUicZGVC24FlVFTzot9nRtfWmwd9v/F08OvLWZsOC8MgKMwJ2FABP3O+t5cmkYgU2LwD6lo/iGP/ZUJpIcevbcKx/0Ck77fDkHJooRgpi6Xo1hgcXYpUGHsIbK8F4OXju+lHhC003hKqlJ/dqAtNcu3CB/UU4qwlLyTnm9QkrBtHGADOpo20ijOjU4iIC7IOAuCD35eKf45PKQjtI2EXoLx6VUBuSdvMkQoZdezAkTiotrN3OoPe3lS0AuH2Ug7K5sSsBp3IRvoy/HwuRVGD/QEY2LgZbeCzs7uv6xM5k4dlBR8EJyYAQYAUbg9iDAxP324M53ZQQYgWsgcBAT2oz5/rFHdgz++Pz08CfdEad1rLggFDhe18IgVPCGIpUyJOhGIC8ptBVYSuVB/KFZRK8EomLEyWrHaF07UruOohKtbQwbXgchy0KlIoJdw0LmHyye5DC1iZhqnmNoUiW/ruyQhnpEl3IZSGOItJOHGelJhlIiPEHcifLfyaHx9QjQC94D6pkJVTCWFZN4NZlhcV9L/+yB3p1fvyfT9z16P+9kXLhsjAAjsPERYOK+8Z8R55ARuKsQ6FKU0lOlk3/ZMZIpVC3rnztj59MlME2vCr8f5F6FBgyShxkQbiJdZD1tJGIElhuYVDHxEp0LSDvFx27tWtpAWEraNzJlJVlHIPm5Yo4nP+SYKRaFI8kMFYu07SSFKWORE1jBewy1eKjBoiNCGT7xpbtIxKPzNKCVkCBje719Qwc2baDiXi8Ez7zeESPfAXpP6DqCIgNLe0QNi+2JjsKBnoHvDrbv+pvHYn1j10uTzzECjAAjcCsQYOJ+K1DmezACjMANIfBLkd2v2s2l1IXUpf7xmakPTzmVkAPdsZzIHtp3JQLijhQD0r6UuC/ScbDQgIhSfNLIB1Z6ylBA4Gh7swQi777scai3PLBf8295pTQ0kRJ5iqGFiHk9Zt2Xe01OQ5Z2KashCz0RdgKIwpVkavub8C8m2V0xUHmDogakna6j7YyniYQZKnfGml7dkmx50kxsPbdighyBEWAEGIFbgAAT91sAMt+CEWAEbgwBkFOymf7gSGnk2K5Y1x888+7h33hr8nKbHdNEuCUjqmGwK8+tTbwEAhZWDWGCidlVR1SrVQxkJY/lDWRU7oGoEcnFf49YGxgaTcJDHE8OUKRb0nkKgYa+tnfL/5Iv9SDQFhHrmnynfpwYJiEEAk8rKoQiNUQKBqaGhAO2Phq1xZlMSRh+VjQ7Zcz6aYmmiirCmKFpJAKvMphdNmdE0RiKQsttwgUn0sJgVpqQiOYr2tCBHlMdiiCftSdXy7gOv/XUqAsW6lEgbzuydwFrs2ILO47PH3z7axY1hDxhYfZYHb06zXkhthvdlz468MDfPb7nkT+/r719MrgHrxkBRoARuN0IBAaH250Pvj8jwAgwAu9BYF+0ZwS+s38wuGXPqW3tvX5UMUVldk4YkMCQn21BE+vAim5ZllwUMDXTNOuykSvJkRW1cZE7OB1wP/hlwT/SdtM0PMHRK9dvhq3GXJNMRlrcAQ/NkEqadppRtUZgfSmTCfy3O5DL0HHpmYYwCbooNnKhGwtbz2fjISoPLR4euoN3QjZ8ILNa7FUwAAa9P0FDDXzfR6PPQK9OGMf39e/4ydb2rh8xad/ILwHnjRG4OxFgi/vd+dy51IzApkHgnp7Mc2V/fxqa7GRu6Oj+7OQl4RdgVYeFlKzDDizNrgVLO0zpIcPEIFaaeeiK4w8i7EEItgMCRyRVWtsRgah7TTyx0c3N9dJQdkFOrxUWNe7AqKZzx0BVkHci66RtL6BDIvDhTpM1kSU6KDVh1ADZtZLfsMfqHSkYC1GTSAUadunjHiRdKoyAmQONvyTtJOqH1yKlbAlTN0VnDJMspdIXH95x3193b9//+oYtKGeMEWAE7loEmLjftY+eC84IbA4Edio7q/Dx/lRWsVsW3Mr/6vvutjNTE0KPh4WIGbC8w7+76kr9ugXCpoN5NnLagMwFpJ1KHWwT76XYcl9aX7FXX28OdN6by1qjhHoPamSddOxEzC1IY8poqBRMReRCqsgCPloTiSerfNCYeW+Km+sIlQOG8/ozJVM6AECg47Tgv3zm8ngFoyYKFREBSETaH+jeOXxf+5av3bu9/W0MkrbkhfyHEWAEGIENhAAT9w30MDgrjAAjcG0EyMf7c/7Y16vCjbWkk58de+bJB8kFiEfWYhBPH9ZSASmEBwu81aAGJ5IWBEna6qbkgLjTuSvbV+zMJK3YFKGxhdKQYR06EVUyVR2SkdpiqY6oQBZTNBRRgCW+SAsmXyILvIXykkioxm6RaCNwDelulk0f74F8mmiE0WBkCjTpbvCsVZB5v4JBziVLRFH43liruL9714XHt+37rwOd277epbSx28fN8rA5n4zAXYYAE/e77IFzcRmBzYrAR5SuGZD3r3QlW94503P6C3Nuac+YVxALmChHEHnH7KqkaSZ3kUGQ5I126kS0zuFAaq9YYhs5ekDsrqQQpLSx1lScxbJR1pYcqJWD/LcTga0tntBA0OFtRtOh+9aw1iSRt6Qfd0oQmARALfpbocQ3XlhS3PdmEA2UmjshTbZFqE2i4p8CrQyRdhOLAjlVxDZEd7JJ3N+768Qj/Xu/eH/nwFcPKk3Z9ybIRxgBRoAR2BgINH6zNkaOOBeMACPACCyDAJH3A8ndz//awx//yw/07321Q40LNV8VXtHChDmK0OBdhgYdkm69cZF6ZpLA1BfynkI+4T3UgHIQY/1+AbFf5vYb/nBA5qUHFfKigvLRNgRE4K7w9S7XILO0hs93F3g09i4AFRDejd5sqT0GIu/LBjRQ8DJADVNrtNCkUkTYdRSWeiNC8CSTdHTRF20Wh/p2n/jgnn1/eV/fwH9n0r4sonyCEWAENggCbHHfIA+Cs8EIMAKrQ6BfUSrHff9LiqJqJ0bOt4q8tY3cJ/rRCLz70URERFTrzhOXY3d0HOSd/B6SNxmyYNBARlqThZr+bvSwmEvKKu00BAs1uwUIiLTTrKikdyfiSgS2NssSYYTjOFczSVMShAUltvHLHhR1EYPgQH2Nd0N6x5EDj9H9QGsMf4C6Co07rHXHE3Ehre2XBnr6vru7q/+Jh5Xm3JJkeJcRYAQYgQ2HABP3DfdIOEOMACOwEgKDGDg4DPKebkuPbjv5+v/14+Ov3Ts0Nim85rRo6u4Qs+VJ4YOcUVBA5hWyvtKMqy4s8yBudhijMcn6Tn7LQXDJuwxNakSeEMlGu9HDe3IoD9R6GSjvngdPKSg/ja70YGXOg59X0L1A/us9rC3Ii3y4mNEwONMkl5pycGo9VcAi9e64lsi9DIQVgbNBguwZWZodYvH1/Eo7Oz1+PFtNNUU0FBER6PmVXFlYC3nRnWgTB3fce+RDgwf/y/aWLU8zad8gD5azwQgwAisiwMR9RYg4AiPACGxEBHoVpfwzf/z5/X17/rZsO78VGz4zMJqfEwsXRkSoKSpsTC3kyBGJ4JwhDTwdxBXuRjyrWiPt9UIFJFDyvo1Y0PeTJ/Bt8ttO3mIqUA+RS0gahOrA4l7BrKoWGjJkiSeiS3r4QNvvYxIqaZXf4GAE+Q2gkRy+gch71H2CB0vxXLgOzRfzwqkI0aHHxNZoZ/mhwftf2dnd//3els6fMGkPUOQ1I8AIbAYEmLhvhqfEeWQEGIFrIvBBpXP6BX/hS6lQfLw1kvo3L51889DpkYtCT4SltdkCMbVJJkHSCZBYl4g85COLgaQjdQs78T7iq5LIL0bYpBsorwUXmUTY83D/OBtRxWxFEyH0KpRMXZTgGrKKc1IqgyKSjMSTk9WCuJPOHTKSjRyIkDc+J/ncrsowZFN4tAb0Qi7cPTqzRZFUY2JXX+/43i0DP3v8nof+NJlMH39MacU8qRwYAUaAEdg8CDBx3zzPinPKCDAC10DgcSU9P+T734zYXlkUip9PWGLwVH6ySQER9VDDqa4BiQg8z8ANIhE8RwMpDWbmWUyvRuCJDC615i5G2UwbNCgTEpgyyp+Fr/bpmCJSmIEp7MKTDGYNXQgZcAlJXmbQoKEyy8ZLjbQ3NGs2bIkpz9TQWgz0YBsORDDwFG7q4TnGFgoefTrVLPZ1D5x/9J4Hvn5v78B3PpHc/jZ07zUt1WIivMEIMAKMwMZHgIn7xn9GnENGgBFYAQEasPqG73/344o6N9Da++Evv/79P5q3SpplleEd0oIbQHA06Ea0EHTd8Ple9aGbqAeShtCgTOJ+dwRpp3KRBR2rCszOC2FVTMaItIPMQu9eheZ/Mq6KeVjhSUZDvu9l4em6TRIWre300BpDnby7xaKogrRHLU90R1Nib8+Ok4/tOfDfHti+5+8PwjNR4yW8zQgwAozAZkKAiftmelqcV0aAEVgWgYMK2VbFT877c28cL0/uG8nOPHJ2ZqRlsjAvyi5myIQexHG9mvtDSEYokLcRGpjaaIGX5H0pIZSxN9Mf8l/uwVe7IuZA0EcheFdR1hAs7paui4kI5DMg9DQBE+ngNTkWoM72N0Ux6w+oTtRllrFNkh96ftVSQbp+bItkxP7eXUcf37n/S4e2b/vaXqVrflMUjzPJCDACjMAyCDBxXwYYPswIMAKbE4HtmEDnGev8/31pYfJjLZdP//bRi6e3js9PizK8rFTA7Mq+g4LVGR/xPxB3WhHhkwt5UAnOY2uzBvJhThb1BawNeJJRQNBDsLhbGJw6Dd37QgQWeUxcJQPM8xKDTVJ0ErksWt1RACLsmEhXrmk7pYTE9o5u98G+wece3jL4V4Nd2364V8ks1EvLK0aAEWAENi0CTNw37aPjjDMCjMByCPyCuf31t/zxi27VcnNTs79Znc0OZP2qqYLEeiDqRfiEJAt0QNob09kMGu/G/C63TcTWxiDUMgqUA6kFTxc6CLwLjzJU/hKNPwWZl7IaarRgkyCpd0Zgb+MGmVfkmQI1tois6ygjufrEvFqi10hcPtA18PqH7n3oz1oSAy/fryjUWuPACDACjMCmR4DqPw6MACPACNyxCJzOjbUczY195Kfnj/77n5x68+Cp0SER3tEDAgsSj4GbWlgXOrmKtCxRLReFb9tCJT/v8EgjZTSEjJy4CJZ5rKVVXk5WVINMDpSUjBHVqbTW47iN7TqxrMWqEePF7SXnguPB+mbJs1I3R0t/5sirCikMeYuhvFOoQi5z3SC97Vw3xvVPKuRB/kqZF4srGfd7LyXJUmNIRuIYm+BiEim49MRAYpoaihpZ0jc/KLgRTQsVPSh+2RJ+sSJM2xdtkYToTTaX2mKZd//jp3/7n0XFXKlf6b8ymKHxBrzNCDACjMAmRWCF2nuTloqzzQgwAoxAHYFdya6Z10qjr9xbKXwLMhmzPdO65ejs5VQBg1ZdzREuSLodDgkVlmgVhNaHpxWFZmWSzLumgZe0EtxRIQJMg1nrPDNYy2M0ADYw1wcnGp4Ckder6WnDyTXelLybiG79njSRkrz3LcoAWcAbA92WIEGWamFJPoIGUkDg8/M1VQvl28dzEQYBi8HF8JRDjRG7UBAmHpGJBlIYritbYgmxvaVzdk93/2t9zW0/GlRSc/U78YoRYAQYgTsKASbud9Tj5MIwAozAtRB4MNo9fNRf+HJLqvnEdH/2PvWlH/z+ZDHbcbk0KwrVKmYRxbjWeERoEUNopikqdhHJEFkk/Tsxziup+jQdJ9HHBvJJxBPe4uVMnRSzIfqVC+vH6bLGa6+KsFY7gWld3pO85lBA/gIPiDdrUZfpLf+HZCtBCMpanxNJ5qXWpEB2YGlvxCo47tHzQANKgx5fIdKuGDIuSX1oole/kBVRNSxajIjoiKfFtqauU/f0bPv+vR3bv9PbljkS3JvXjAAjwAjcaQg0fHrutKJxeRgBRoAReC8CR/yJ2CtnT/xPlxamPnZk4uLjp2aH0zNWXtggiApkM4J04X558UJpDSaiS+S8kWUuxnjvBlmKrxdWqnhXeZvlb3HNGzQcXDR9L5/EzZwJoTejMUhrO25PfD7YvqqMlLVALkPbbm3SLIVG1JK7SuCvgvkbli+17OGCLdrjGbEt3Tm9u23LywPtvf+4pbn7hx/NbLvUeF/eZgQYAUbgTkOAqkgOjAAjwAjcVQiAjGsvFc7tfmvs0ufeGj79G6emLu8cg9vIeasgSg78vrdEa5Zh4ozvqSWJxF+Ba+lpGvwaSD6uxFp5q/GaQDqy8lXXjnFVnlCA95bh2tddOdpQwCsHV70Vgja9MUiyjgOk3Q+26fzSfAX7ajwG8g4NuwU3nvDFDrG7CEHHHrHgjx6J7GntqW5t6Tx/X/f27+7s6Pn+7qbIWzuVndXGe/I2I8AIMAJ3IgIslbkTnyqXiRFgBK6LAEgy6V2Ov1Ia+XJcNydaQqlPn568+MCFqZHW8cqccKo1CQe8J8pBrDAAY6KiOl8nVkwLuG1AtgOiTYelt5raafy9fgiub4xFx4L0Go/fyHbQMyCJMHYoX8SSA2JcL8mNJHlDcZ16h0OgdQ8Iu8xGLSvXTG8x3yDtAhMo+WVIZiouyLoqWtSoaAvH/ZRqTv7cwANPbWnqfGGgrfNHD8e3TV4zMT7ICDACjMAdiICsz+/AcnGRGAFGgBFYFQJn/bOh4QVv97mZ8Y+emrj8S0OzY4NvjZ5uI9JOBLQKtYaFhbYxj1HNEo/10kCeXALCXaP916HHAaOtJ7KUwPvUrLiJUG9X3EQKN3epUi9fQMSD1IKGQ4BTcLwxHm2HNF24VVeo0LrHMPi0O94sdmS6RgaaOp/vijW9ebB393eM9NbR+qRbQTK8ZgQYAUbgjkeALe53/CPmAjICjMD1EKhLLI485w+dTqVSp9rm2x46ffHsbzmK6AJhVxtJJaUjrfBSrV1LtUa6iapLE3ztII3ERLgmgV5iLmkk7cF2MEizltiN/w0I8tVXNo4YrZvEr46wZnvB/WsoLIPDkrs14py04d0HjRcMFRYtkWRpoLX75MFte763t3fga58Mbb8AnBoKsyQh3mUEGAFG4A5GYMkn5A4uKReNEWAEGIFVIvBU4fS+kZmJjx25ePrX3714bvDSzEQ065bhOhK2jogp3OaksMEsawQbftId+Bq3ocd2yFTui6amjHAc+CCvWsK2qsKDT3KKTZ5SSErjY+ZSSdJpm2rhYGCm9FiDfXt9ifUqYbgq2rU+Fo1kmyIHhF3RIXFB44XGwBJ5lzjRDnyv0yBTAZ/rCtZ0fZAGHVdsWNkRx740JbZ19lYf2nP/24/sOfDlwa6uZ6Jiywxb2K96JLzDCDACdyEC16qL70IYuMiMACPACFyNwKv+SPO5iYmfOzk69PFTIxc+eHF+qn/aKppFAd/vpiYqIO4WJCGeDm805AMeEzoppi4UeKVRi+U6Ia0NVFWJsOO4oHjYzmWz4Oqgs1eR9pplmnyveGTW38ghyB6x8iAEXxO5BgGn/gY6r5K+iEh8jZgrtifMaBQTXtUaNj7835N3dlM3RFwz4bJdE7+8df/TzYnMqR0d/S9u6+z46ePKlvngNrxmBBgBRuBuRiCoau9mDLjsjAAjwAgsiwAR+MvTcw+emrz0kdOTIz8/vDCz5fLkaLIE63hBd6QG3gNpVw1daCFT6KYhimOj0rquY0InwzBqpJ1Ifr3GtWBZJtJOVncfqo9AIkNWagpeYLpeNle34cRKX4vgPK3RmJGkncojze44iE0N5TIAglLChKbSuu6LkKqLVDwhOpraSu1NLRcz0fixf3nPB/8gHYnP7VM6yKE+B0aAEWAEGIE6AkFVy4AwAowAI8AIXAeBF/xLmYmZ3L7JUm7vs28f/tc5t9o9XS1kpst5kS0XhWXbkpiT63FTgySErOwg8ypmDCJybnsulCKu8GBh9iPhmrWd7hfIZOqybTlwc50nSLpOMd976hpfCfUaCvPGtoZPkiIQdQUSItkYAYGnyZPCcM9jIKI9nxUJPSRa4ynR09Q+0tvWdXxrR8/z3c2tr7WayTOfjO4Yfm9G+AgjwAgwAozANapkBoURYAQYAUZgOQSO+7757vibH54p5++5vDDz0PmpsYeHJ8e7p+ZnDCLwVccW0c64lMWQhIYmdKK1B2IOyi6HteYtTFAkre1S/Y3tJXcD391woSGPgS59uTx6FUvKX9BsEXKB9F/HaN8I3LvrIPO9nV2FtkR6cntr14s7Wntf6sdajxtDH1H6YYrnwAgwAowAI7AcAg1V8XJR+DgjwAgwAozAUgSe831dLY91jsxOHLo4M/LBocnxDw5np/vnivn02fKYJOkYrio8WOCFAd07JDSBbKYEDTxZqEk6U/NxXmfqQY28EYk7irGYvUDj3ggK5bmebz9XBGVXIYOBbt0Mi7gRFRk9LFJKaDbqaROffOSDX20yY+c6opkjWmrn5Y8oytUzNjWmy9uMACPACDACiwgE9fDiAd5gBBgBRoARuDEEDmeHmxac/MDl3OxDc6Xijp8Mv/EbhUo5nS3ktYViXhRteJZBbatB865B/+2oirS8E3mnyZ1oLKofDFZdxa3XndeTfKd+k8C6jiOLIbg/5Z/O0zlak/t2WqdESIQx2BR6ddGaaM52N7Wd7kk2v9Kmx88kVWP0w72dP+hn6/oinrzBCDACjMBqEWisi1d7DcdjBBgBRoARuAYCZIXXRTZxzr38odncwsDF0ZEHL4wOH5qcnezMlYoG6dxpIGpWJVt83Sc8amEi7jXrOx3F9rUs2vJM7U8tVsOBtd4MdPe4USMxD25jNkwQJQk7TtAa0n5J4neHOs8lo7FSV3Pb6W1dvW9sb+l9eUsmedwUPXl26RigyGtGgBFgBG4cASbuN44ZX8EIMAKMwIoIYJCpdlRMhu2SlhwrzQxcmBj+wND0+EPTc3P9JyYu7aqqvln0HbiVtETVdYTlOfAN78HZpCfirSGkDxZcdx9ZczcJzQ32ifjPF4ty7cNyT2ZuOkbbZPHGDjy2oGFA3lwQaE0LEevAa41qmPLcVefrcemYqaVr17vIA3zTS//qVV+o8ARD/tcL41MiFArDog5vMOmmXEemZb4t3TTdFEudjoWjw//zoU//px5ciaRc5O0aQ1npLhwYAUaAEWAEbhQBJu43ihjHZwQYAUbgfSBw2B+O+BWtLVsqdr5x4cSvF327bcGu9C9UCt2ki18oFZKFalFUQODz7pxwQbZdz8baA6nHBE7YpsGtYNRCjcVkDshKvyg8b+DHWiR6JYd16zn5VZfkHWe8cnXxPJF+mQyta1xfVGbghx1ecXRNh07dFFHdFDHo1SMadPqYQgmDSs/FzNB8Ohobaku0nGtLpIYyidTZjBkf1VLe3EeU/oXFG/AGI8AIMAKMwJohwMR9zaDkhBgBRoARWB0CQ74fhhPJyHh+vn2uWhqYz2W3zZcWehaqpU54pWk9PX3mfshqohWrGipVS1qxUhZE6qs2ZmLFLKxmPC5JvAOLPZF5By4mieDTZEYUDMWQVvjAYq8rtYmfNKw1EPT5+dp8RrV9HIPLSh1EnfaJyCfslDB03Y+FI+VULFnIRJPzzdH4pWQ4NhIxzMlHB+55QhfmQkLVsk2J7sJORbnSElgdBByLEWAEGAFG4H0gwMT9fYDGlzACjAAjsJYIQMqinhDTUQt0uSqs0MnJix91HCdVsSupol1sz1WKXeVKta3sVNqI0I9PTjfDI7zhuK5m+a5hOZiFlKzyIPVkkZ+dmJIEnAi5JOVQ3puYkZS2iZinUqkKLOo+CL1jaLpNC845pq5hMlglv7tl17OGZizEQuGZeDw+0RxPDsejsbF0JFZwRbrIOvW1fPqcFiPACDACq0eAifvqseKYjAAjwAjcUgTe8H3MuzppVoQTdst+2FWtmKOq0eGRsUOg6GHY203L88K254QdzzY919NczzcuDJ3ZB827roOMqyqIuaFVdVWvwqLuaKpaPbB73zPw1mipiloNq0ZJUbWyoWrFkO5XHF+1PhzeOgKCzy4ab+nT5psxAowAI7AyAkzcV8aIYzACjAAjsGERIGv9TzFENQG1ewprymipMIlNgYGvjmsmbDci4m4BIpuU6HSzkLizxZzQ4cAIMAKMACPACDACjAAjwAgwAowAI8AIMAKMACPACDACjAAjwAgwAowAI8AIMAKMACPACDACjAAjwAgwAowAI8AIMAKMACPACDACjAAjwAgwAowAI8AIMAKMACPACDACjAAjwAgwAowAI8AIMAKMACPACDACjAAjwAgwAowAI8AIMAKMACPACDACjAAjwAgwAowAI8AIMAKMACPACDACjAAjwAgwAowAI8AIMAKMACPACDACjAAjwAgwAowAI8AIMAKMACPACDACjAAjwAgwAowAI8AIMAKMACPACDACjAAjwAgwAowAI8AIMAKMACPACDACjAAjwAgwAowAI8AIMAKMACPACDACjAAjwAgwAowAI8AIMAKMACPACDACjAAjwAgwAowAI8AIMAKMACPACDACjAAjwAgwAowAI8AIMAKMACPACDACjAAjwAgwAowAI8AIMAKMACPACDACjAAjwAgwAowAI8AIMAKMACPACDACjAAjwAgwAowAI8AIMAKMACPACDACjAAjwAgwAowAI8AIMAKMACPACDACjAAjwAgwAowAI8AIMAKMACPACDACjAAjwAgwAowAI8AIMAKMACPACDACjAAjwAgwAowAI8AIMAKMACPACDACjAAjwAgwAowAI8AIMAKMACPACDACjAAjwAgwAowAI8AIMAKMACPACDACtxUB5bbe/Tbc3Pd9KrMxnhdJRRGK7wuf1kFWsCG32+MiHxzD2sfiYXEURaE1B0aAEWAEGAFGgBFgBBgBRuCWIrBIWG/pXW/xzYZ8P5wri5a5BbF1Ni+2Zyte29tvnf5F19dDtiXMsq1HLMsJO1XXcG1bE57jpxQ9HzJNK5YwcqnmyFQmEx7JtJhDiYQ6bBrKfM+28JtxIco7FaV6i4vDt2MEGAFGgBFgBBgBRoARuAsRuGOJ+5Tvx4vTIj5esPvGZgoHRifLD4zMl+6bzlltpbIb96Ktrb6nCdtTheXAlG77wrMd4bm28D1XpHxTCFUI3aDFx+IK3bTzuubmVc0t7x1M/n08pE43RfVznVHzZNeW1ESvopTvwneIi3yHIoDeKf2EmA5nhOPNCi1hiKrmChe/DjuqCc3RSoYTiyrzvUovv/d36DvAxWIEGAFGgBHYWAjcccR9asqPZ33R/tPXir+bK1kdc7nyrumFUv9c0W3OOyDpvi481RRKNCU8qGY8XxWknvE8KGBASXwPLB7KmPZYSLiKK487ng26UpGL71mIb4tEqOomQnquPRmf7GpLvN3blnmjsyNyuK1JnBlMKXMb6zFzbhiBG0PgZG6keWjk7MdydnmHkjBDRafUJgzfQHAqViUWddUF1RLZzmTLi609mZ8MKoPWjd2BYzMCjAAjwAgwAozAjSKg3+gFGzX+qWk/kc2Lbc+9m/35sanCgZffsX7FhaG8ClJui4hw9ZAQZlTooYjQdEXkCwWI1n0RSNZV1Rcq5OuKjmM4Y/tQwEDZjqNC1Qy5hBSIY4QLFbwnRscmNFP1MzMzbmZyxtk9NlH+eOeUeqo9HXrpO2/5Rx66XzzZpSiljYoX54sRuB4CQ5MXPnL42Nu/PZqfHPTjeipr58O+7ol4PCYgJxMxW7VCvj63p2Nny6PRhy8hrRPXS4/PMQKMACPACDACjMDNI7DpiftxWNin82LPO6fKjw8NFz90YWj+8fGpbMaIDwhf14Wh6UJVDWF5vii7nqjkKsJyHRGJgpDTqFQQdiLvGqzrGra1eh/EfNYCgdcgl1ERx8SK0lERB7wd10VTIYgFIBpwHDGdVUSu7LVMzBUfS0Zze+OGOyGsqP7apepbh/rMU4gPts+BEdg8CMzble7hufGd52eH2/2ULhasnHDQBE6CuFOI2mgG+6GOdCx1b94udOAQE3eJDP9hBBgBRoARYATWD4FNTdyPzPo9b10o/OKpM9lfHRm2Ds0veOlSRRMVp0lEVahwQdh1g0TqINuwvCsVKHQVC/IXS6hGWpJ2chYjCTwIu4d/4OQIitDjEWltd31NuCSngR6e1DSIgsUXmXRK+FDV+DbStGyRc6AbWKgIfa6UhCAnaTlz/6GvO/bGxEL6iSN5/4V9CWWKUubACGwGBMxMLKfETd3F78nMhIWJRqpjlYUb1YWuqMKt2AIDuoWtunFXtcOboUycR0aAEWAEGAFGYLMjsCmJ+3MYNDd/ovLB547OfvzcxcJnL43YA4U8Me6o0OIJEdXDYr6UF4oNS7qLQaUg77qhCj1iiKZoEuQc1nfLlb4gwciF6kPbDmsiDoOT17w9mjAs0pYGwu9jAKtDfiO9mjkem6IAEQzs8WgcgNSHDejfEd/xMNDVhprGFWdnKjumK8Udk1l7/45p++kfn/Wf2r1DvMoDWDf7T+buyL+R0KtuxNedsCtCSV2Elaiwig56sfB7oJ4nBdIz/GpcdEvZGChCblYRyG0qB0aAEWAEGAFGgBFYJwQ2HXE/5fuJalmk/uaHZ75QtLS+vG2mfTUhYs0JWNDDINiagHFQxOALw4XIvQo9rmXBwg6GEQlpWAwBd47CK1eIdpDJXPgg2gqRd0hoaKAqFDNiDhp4XyFtuwlyDlkMGgOaBis+FpLKjGeLIozGgBmhBZIcsuzDEknXKy4Gv0JXP1MsivxQaXcuJ9osx2xRjaQ15vvvsPZ9nd5mTnbNEMg7uVS2mosslLLCtwxhm64ouSVRxe/IQG9WyMd4D/xubNdRXddl0r5myHNCjAAjwAgwAozA8ghsKuJ+eMbvfvLJsc+//M7Ir4UzndstBR5i/BCc1YGwuyDOIM3g3gK+2TG4lOTpiggR8UYp0bkvVMhavGoVnmU8WMznBPi7MHUNa9K4E42HS0joX1ycj4aKQI0E7QaSJZjgHhKE3MW9FBD0nrY4ttEwcMuwtMNaDzLjqw4aCTYkNdRgSKOR0C68aEWMlMabpl499ZtnT5uHPnyo589gnfwKmA65r+HACGw4BMh6/vX5H/o6XnkjjDEekJa5kMV4+IlRw9WvuqLiVoWOxq7QbTeWiM5uuEJwhhgBRoARYAQYgTsQgU1D3F8a87ecPL3wqdFZ51O+0bR9Om9iYCgWLwRijcGjINMwc4N0g3jjQTXFdIFxo8KuWpJM+24FBN0VYdMRJjQuvSmtoKuKZRpqJWTolqErrqLCH6RUxnh+VU0myEWkhRaBZXuRctWNVa2ialsFNBQUEYZSwAHB96CRgft3WOtVEtvA4wbIPY5rcABfqSoY0Aey4+jCLivKrF3ec/HS9CeeSynv4PCrd+D7xEW6AxAgycs35v6Rfk5S/EICGOqFunZQXR39TNc+x0cZAUaAEWAEGAFGYC0R2BTE/QeXqoOvHZv4zZPn85+dnDd3Vt0mUbYNWMfJBAgLOIi4D6s5yV7IkK1oWIMxa+RZGpZCA2b4sOGJdNwvZFLqcDIqRnb2tf6TpqvliKnOwmX7nBkXBXI+AyO7A4WNB84dsSsiUixbndkFq39+obpjYd4ZyBXstgpIfMVeaK/YimKXPRB5XSghHdZ7SGrQfnDBY8wYEqvAim/De41Uw+vISlXk86XuudmFzrV8iJwWI7DWCGiYxEDz4EVVkna81PWATi3q2JJLbUNDBxNicmAE6ghcunQps2XLlnkGhBFgBBgBRmDtEdjwxP3H56v3vX5i9vdOnZv/1NS80lmyIrCyw+IdhpUd/tVJxUL2PterYvBoSajkMUaFJTyXhWVdE/GYWWlJhUfbm0Mnu1oir7e3h95IpbSRx/vFScBJ4tzrkg6SDZyYNmPZajwFbX1roew0W5aSefNo7vPz2crWsWqpB8Z8GCR96NxTQjVDyJMuXPjZ8MkUj8mbwqYnUtDCd8Xjc9u2pF7o7U6w67y1f5c5xTVEAMTdg9t2Fz8lDNCuW9zhXQl6MLzpZGBXhYefjiTxbHFfQ+Q3d1JnzpzZ9u677/7iN7/5zQwNfECgUctUx3qQWcGm4Ttwq5v79Kc//eXNXVLOPSPACDACtweBDU3cDw9Xdrx0fPZfnb4w/8uzeaXTgWeAoEAIAABAAElEQVQLTwuJCjzChKFNV3WSx4CkW1VIYuBFxikJXXdFxPRFa1qZyyS14a6OyMu9ndGXtrSF30qnzeHdrUr+RqCmDw/iF+rLKF2Lj4/aEs2cH5uz7z855P6z8yO5QwulYrdtu+A4MQx0NaX3DbcC95DQwCdStuhri44O9sS/vXeg5W/v7zbOUTocGIGNigBeZJfkMTCuXxWIqFOA41RQdzlyBO97iNRpHBgBMTk5eeCNN974rdHR0a2AAxwdYyRq5B3OiFQi8XDQ5Z/FOSbu/L4wAowAI/A+ENiwxP3FMb/vxNnsZ84OFT41Ped3WUoEpj/o2WHxU03MfOo50tWjCou2XS4Lp5yH73ZPxCBRaUqbEx/ZGftCKqGd6+jU345vCY8OKnDgvkahbkF6+7jvH+/taHv1xKXwJy+Mlz82NmXvn1mY7SwVMN8qtPeiZIloxBddLcbIPf3Jvx3sb/76/d3ieP36NcoNJ8MIrA8CxNEleaemK1nbFwOs7lIuQ8dUCNQ4MAI1BIrFYvPw8HBvuVxOo54j0i6XOoEPtqUBhDFjBBgBRoARuHEENiRxh0VG+y9Pzv27senqJ6fmzR3lqikczFwKd+qwZGtChyjdhgyFPMEIn3QqJRFDv35bQnO296WObOlIPHfgQf2v7kmKLD4c62YNrDcGjmP21ktbttrPn704/6lTp6Z+bXRyblsVYp4Q2hp9HanhvbuSX9y3Lf71g+3K+Rt/RHwFI3D7EKhPXVAzvUvyThIZeGfCYHAIZUDgYUUFHbt9OeQ7byQEIIexUH8r5B43IO20biTutM+BEWAE3h8C586d68VvbCoNCQF+VwqcaGD3ioMA/L6UmZmZToRpxNmUY01QHJooxEFR1o2/XQt93NcYHx83gB3J+8gmRWuyUBFXxqjG60urEeeWhA1J3Gcwk9Jr74z+vNCTOyw/CfQcUYZ3GILOxCBQPRLCgNOiMCCLMWj6UtOG+0avsLUlcmLvltTf7+xVvzuYUuZuCYK4yWCbQlKaN18aK8/47lReUcsfmyzn94ZicXvbluYf3Lsz8Q8HW0JM2m/VA+H73DQCmOkA7Gr5SpNqM7K6IxZUNTSElcNaIvB3f/d3v1mpVPbncrnOfD7fXK1WdQQrFApVTNOsZrPZJtyPGLB8FFhf9QxIT4545UgkUgKJruC6UjQazSYSiQVs5z75yU/+9VrmN0grHo8vhMPhKizvwSG5Jl6Bj97i9lUneYcRYARWhcDs7GwSg78HvvSlL30bv6kUFtkVSr8vLPQDk/WAbdvavffee+aFF1742tatW7/V29tbXtUNbiLSK6+88onjx49/emRkZNBxnDB+75QXqp8ob1fVT6iDqvVbNR4Ptv2vfOUro4hTeBL+v5ubmy+0tbWdRiNkorW1NYfr4KNPpl1P4uZWY2Nj0bNnz3744sWLn/jjP/7jQdStrajDymgUVdEoUlAWDfsFDLg/cvTo0W/u3bv3zZu7481fveGI+5NvZnf8+V+N/UfH7B4oY+bTImYjddUoZm9sEib8OGo0IA5+HqOYTKmaHYMcZdTry5jHHrpv598/uL/9G3u3iMt4qLe0lRY8hg90RS5h+0/wjn7h//mbb//+1m2dl/bs6nx5a0toPIjDa0ZgoyNAH4Cvz/44WtKVeAU1hIbeLAdzFNBAax1zFOjwmhqF+1PD8eF6ybKiNJEBhzVFAB/a0hNPPPHZiYmJ3paWFh8EnupqP5VKWYVCQcfap48KTS4HWYqKtUJWbZBzH2TdA+mnjyWZ4ujD6eGcCzLvgPzb2C7/zu/8zudjsVihqalpsq+v7+Tu3bt/eujQoZ+h7rypZ0kfOVj7DBD4q/BAPjBf12K1XGPwV8XgHUaAEVgJAZD2Q9/4xje+gN/7vYi77O8Iv2Nx4sSJbvzGi4899tjfrpTuWpxHndP85ptvfqpUKvWA6AoYG+RCv33UPbU5QLBNbrZRT133lpcvX4Y7bwfKCttF/ArqrSKuoaUEQp9/+umnv93d3f0WSPRhlLVy3cRWONnV1VV69dVXlddff/1XIPPrQyNBGhnI+AD8QDcdsbCw4KOebXv00UfXxeCxQhbfc3pDEfdh3488+7Psgbm8tc8h/+xwo6hBIiPgp5GCC5/p8LAO7zG2KFjzIoaZS7u7OkZ39UZ/2t8X+x5I+0U8xKDV9p7C3qoDyIN7/PjwV02zp7i1VQlalrfq9nwfRuBmEahZcWB2b0wo+GXRenEbvk5txV72A9J4PW/fEAIGPnj0dYOz28VAOFMXsgChx0B89D5ioY80PmZSjoJ97Crw0QmDh+tqRJbx8ZOkmY7RR5QC4vcRucdC4RA+tvfOzc3tfuedd47gozsNIn9aRrzBP2gUUCOB34cbxI2jMwKrQQCN9n78XrsR97q/MfwGacZ4k+KiId2O+OtuPES9Q98N+NMTkrBTfUOEneonqqdomwIdhyFCbi/3p729XdZbKIeGcsRQj8VQdjJSyHRefPHF7TBejJ88efJ5kO7n0KtwGNdMLpfeSseRPuFZI5pXRw5wprVJderVp2/P3oYi7icu5rcMTeU+MTFX3lHVkzAT6fAcY2JWUrhXBI137SomPCrJmRyd6ozobc/MDe5s/96BbeEvPTYY2lAuFgcHe2+ZVOf2vDp81zsdARKvB2WUEzCht4u4PLmHDAIIPIaeoGbmsKYI4IPVgPJ7k04mk+iBNOUHkc4SOSfLEBF1snQRkQ8CfThpoRCs8TGX1+ADGoZlqW96errrwoULD8FSPgGL/UkQ+D/Zt28fDaS/oUH9ZNXHct28B/niNSPACKweATS6NbhZ3QvpXHKlq4i4U30wPz/fDiv9Q4j/3ZWuWYPz9LuXFQ3VQUTUaQlIO9U9ZDig9dIeuaX3DqR2FJ/GywTXUTy6/tixY6043grivgcW8s/s2LHjZ6izvrJ///7nlqa1mv16nbXidwz52BB124Yh7m8P+emXz49/cHik/IG5nB9ykhjQRNIYA64ViS7YlvCcClS3GIyKb0kiblg9PYk39uxM/v0HdokNRdpX86JwHEZgAyPgS1GDr/hXBqeSp6SalxlywUrSRVTDVKH6mg8tDYe1RoBcJy77kSDLE30c6SNGH2hYpeSaPtjBB3PpNsUNAhF/ui5YQAZ0LJ2I04nrtkBPaoPUfxeP92kcWzV5x7VV3J/fhwBoXjMCa4QAGtbbMHByH0nlViK+9FunBb1ozdBuP47f8TPYX9fef/oWoKjyt0+bdH8i7VQPUT1DRoValJUBoWvoeqrLaJsCWeppoXQgYZHnUQcaKF8vyvkrOJ4Akc/t2bPnhjXo9bwvW9/Wc+yisbBSnHrU9V1tGOJ+YSY/eGGo8NmZGWeH60Yw+yhIO3ouVDw8CDXx1EDavbII6bAmYSzcrm2dZ3b2p/+hu0kcwQPeEGCu76Pi1BmBW4cAnK7Sb+qaBIx+bbWqtJYf+Ji5Zrxbl9s7704rfUjow00fNvqQkbU9IOukLSVrOwaxBdIZuaYPJn3w6ANK18BrgiT7RP4D8k7HKR6WJgw0+zQGaXVhW8XyfdxrVeQd8WhSO66P77xXkkt0mxEAQf0oBlKCHy2OFVk2R/RbJks1SH4CevFHMGh0LyK/vuwFa3ACv3v6DshvAdVHgaWd6hdIdmR9gzjyOGQu170jxadA5aDy0rqxVxGD7GX56DhZ56FBjx45cuRjuK4JYwD+6XOf+9x/xr0wMGt1AXUc1Vkr1VvSfc/qUlzfWBuCuB8exofi9elfGpuw769Ww1o0lhZ5Iu0klYGRyHXxzYBEBlMviVQYs5DGjakDe1r/fHuneLLu0WV9UeLUGYG7CAGqgP9u7se1Suwq/+01EKTvgkU8mKQtQrGGG3gGZB5f9kNC5Jyi0EeNvjlkcScSHmhA8SGTUhrIXgQt9BGnheLSx47i0TalQRYtWug47dMyNTWVxrGH8PGlQa30FX16NcVDXBo0KxsSq4nPcRgBRmBlBMjzybe//e0PY2wLSURWvIB+g9SIJ1JLZB/k/UO4aL2J+2KXXmBICOooqp+orqK6iKzlMApctwxUP9G1QTpUZpIG0qBWqqswJmfxHKVJcYm8v/322x+gQbkY3H8EWP24o6PjavdW171rTeZznSjUC7pYxuvEW/dTG4K4Fwuie3za/tBcVmtztYhIpjOiVLZg1cNHhNpvjoVZUSvCNMqiKR7JtTaZR/f2iqf3tyhT644Q34ARYAQkAiSbCaQzRNeZsq/7i7HsRwLd5lInCknLLD6EU/h4lWBt8kDeVVi4FLhNkx82fOzw7dMiIOkJnIsjTgSWKxrBKi1f9EEMvkX0kSQyT4GkNPgQJuH+jMj7HD6Gl++5555jqyixTx/o1ZCLVaTFURgBRgAIgID3Dw0N7UVPmkEDN1cK9DsmokuWa8hIMnDR+AC5koRrxeuPCl0p4VWeD+oRWtNCdQwRbHjIEsjDHBoT00iKug6ojkMUuDKr9dQR41PgMSaGeioGwh9FfRan01Q/BVZ8MkxQPRMYHaisiINLoaZ23a0/+tGP/sMv/MIv0P6qtP2497J1LSVSDyrytJp4Qfx1W28I4p6tuL0LRbe3bME7QiIiQjG4UijXhryRjhbidiwWPMygxRZSRpMJ4+V9zWLdR0mvG+qcMCOwwRHQ4JAEchjv+kMkqdZFfYt5KTZ4cTZj9q6LKUld4MZxDO7QvjI4OPhNSGeG8EEvoaB0HXk+8PGxBn82EpOTk9tGR0fvh9VtFz6Y22DtyuAjvhXfqk5Y5jT6ZgUfQPoY0kLEH67RBNLIIO1Hd+3a9QA+jDRYtcbsl0GU0sP1jUqqZWLyYUaAEVgtAhhv0oPfbIYs6NTbRr1rDYEkIbNYMOWjWBy4Sr9pakDDOq1jkGo/1m04v27EHb99qntkvUUWf1oCPkyEmyztIO0LqLv+6fd+7/f+AIRcyu9gRa/NIAXXtRSQhjhz5sxDGHPTg3rrHvILD21/F8rQDUt8E0lv4MJRSvxIPkOEnhoFVF6qu4jkv/zyy4PwjPUhbK9qjA7yuZh3uv8ygaLJ8i1z/pYdvu3E/Sen/e4fvDD82xPTlZ5IDO+VnhajcOpT9XWRgGMEFV56TDTMPC8HP0Nhe29/9xOPHTL/FPjJB3zLkOIbMQJ3EwJaFRUUdNEYkSqZGvQxAYl36Ax+fhi7imraU3QenHrL3wz6gEO/mh8YGPgWPCo0WsLpcQV1I33QaeIV6pl8BctieOqpp/4trPa/DF3oI9QND8u9JOtECPDBpO51AauXtGKB+G+FN4s/xIefXNV8eTGRa2wgXxl8LG/7d+UaWeNDjMCmRIDkH9///vf/CKS0FZMASTIOMivgU1wcPnyY5CNTf/iHf/i758+f/+gXv/jF/wW/W51ILIiulJaQvOStt966D4T58wDg364XCI2klu5JLh+DsTikaSd5DAj4zOc///l/n8lkhlfIxw/pPOoS0gXpqI9aUFd9BhNK/Q56AXejJ0EjOQ01CAIPWlQnEu8n/Ts8zZhwGfk54EAzx/4nSmsNwmrI/RrcZuUkbnsFmy85WzAp6lbLQzetBlxgq6FqnzxYQI0pXPhsJxd0IXiYySTNsVRSO30rZ0VdGcLNGcM/ftxEX5oCIZwqQjlNlOOG0EoqnORDMBumllJF7Nhxy6ccfr9o+v5hWBuq6KuxTbBJXVTwQnmRinAhrkukQWDy1C2H9TSmLf7cyqN73m9G1ug6mtMgN13z4Y05yPxku3C3yvyLWzL4j5TO6OC8rnWVigrjxopxbgYSVNxUWari3Dky2Wj4GtT86BYKFXHgAGERkNSbuc2GuxYfICr3SsHFh+t9lR+uHr+Fj+oMuqJDuNdBEPYwfQgpkJWOLFdk2aKAZ0DbXfhY0lTrJLOpnZBnr/6DD6XX+AG/+izvMQKMwI0iAFnIDjSat+G3qhFRJb04Wa/JrzkRdJDUeViyz6OBvQu/6SIs0Cn8BuXvln679HvGfgySmQGQ5yaQ6NvpqtpGXbLqSd6Qb4pLyzAMDd9EWbL9/f0fQ2PmM0gnQUSdrO60pjqL1mR8oPLjeDPqNKqzQti/qoti6TPAtash5aupk5cmvS77t5W4H/d987XnSrvzBb+j6sBRvwEn/fVxFxqolevj+4BnrPmWSIY1p6s99HZ7k3ZkXZC4wxPFy0vkJ25ZxV67mOuYP3LsQU1xdLjsMSFDiqGRFELnFhwwo6vc9x09lr4sTh/J5599ZjKUSI0YmdhFsd2eV5SDq/7RrSeksjzixZSwKh2iOr7Dnntth2Xn+jyn3IxJuhKaF4LJWK14amhaKRoFX9XKimaWFBHLFef+3/louO8t9K/NKcqjNbaynpldRdooj3ZmXGTG8za6NCvdP/ppYT9qCc1zFUlUjeOK9aphFnXdLz/5ilVKZJRLibQ+FG0TI4Or9PjRmA3cD3XZ8qQb7TdqQq9AyhFFUX3PRGNvjYI/NBQWpbkeMTTyAVSmpvftb0ccaLMduxq3oHlEra/TF0nPJIa9i6eLsz/4zlQknb4caWm6ILbP4Xl+ZFlSuUZZ3EjJ0IfkfWFPMhtIYf6BPvyA89+ga/oALFYGWa+o25m0sfRBDAK2k/jw74RP6FYcW1amCNJAs7O+r8ZEcC9eMwKMQA0B/N4yL7300n6Q9zT9HomQEnEnSzakM2Rx9rdt23Yev+chzM1wChryIshrisg6NcSJyAYWachOBkB+DyDlH99OfFHfvK/6AeWcxLVfg9X+p1h2oq55mKz4ZGCgBeckPgFxxzoEq/9WWOtJIrSShf92QnLD976txL14UTTNzJcP5kp+m+XB4IuPCNkYXfTJw6wjfEhnfRffYXiVTsfC01u7kofbkuLiDZfyLr7AHx6OiIWRreXnnr6vcGnygdLUxH1WbqGzPDbZi54MEHfXAHE3PQ+iZsWlOdKpn0MY6dYZNNUtPRbNh1JNk8mWtlPJ0+1H7FdePK5HQ2PivoMXUYm8rx/gzTwOf/65tDBKvdnz/+0R1V/o98TMbt+a6ves2RbHLoRdtxR2PRddCREYqmlWyRCE2prjawbmhA9bihIp+SI8m2mbfNEwU+/6uadewaQA524X4Ts/56dGc2L7P7xhHxobzx4amy4czBWqLQXfjUHxh4E2AjNoKmDRihfCJHIhQ3U0SPlaWhOXW5rNd9s7oq88P+G/HjPF5YNNyuJQ/RPTfif1VFqenfAcI4R2MIboAxAEsL3qd9+c7XztbP5sqx4/399/7SmjQeuvQwrxW73e6Rt4yKhwNTF0rMUZmx1YeOvlA+WZ2T0z77zzc6rrG4rjhoTtmJ7jGK7rGDZAcbCk0smqZ2iWG41mQ03JyWRH08nUuc43rTefPmbE08PKrkdHbyALmzXqTf3+4HmhjI/ad4C/CoveH9FkJvTRI+JOutGAuBNZwLYKYrAT3e/bANayxB2EoYJrbypfm/VhcL4ZgbVGAOT8PshiqFGdoN8kWdyJoBIxJ+KOdR4W6HfwGy1hDMsJaL8nQfa7KB79bgNCS9fAU1Qr4jyEPK4XcV+NRfqmXCqiTGSYufytb33ru2fPnu1C46QvIOpUXsKIykpr1Gk0MLeL6i1csxbEfTXlW+tX4Jrp3Vbins+VumZmKw8UKmCAcP1IUzK6eC6koVXBMVT0klOLUVdc0RyPjfd0JV5l94/XfI7vOeifP58SuYn+0tHDDxcuDf9c9tLo3sLYRLs9NZP2SxjgAvaH6XVAvVxQQmCO3ihY3OU/WNyFNT7S7sEXp2KEhBmN32MlWx4qNXfMR1qaR5Ro4kxLtvLX/unTx5Rdu2bec/N1OOBnDzc5lcsHreybj7v2/P6Fy2/dryulJk1kI5qfw7tSEbqL3hmUhwKm6TLIKxGagHiZ0BqEesZTMPJcieKHrW8v2aP7wmbriBrf+rxZ7HnGz3//uIh3jKFHYZH8rkMxFpN86bK/vZAT9zz/buGh0aniY+OThV3T88X2XMFSitSTGI3Jd1/BOD9Si1BZTDRoDVTIBp7LpamxrmQicqitJfTxzrboW10diZ89N2I939NtnNyBtu9f/OPsH81Oz+9eKKBHQoTC6G1QHQ9NYjSCdQNzJPjZ+a0tqZcH+t3vHT/u/3RwcHV+uhcL0LBBfgMadm9o0z/58tbKD7/zwcLw+CPFsbFDuYmJrvLCXKIyOhwnTX0IihEd5ae5OGlOBwN1g4G1mJ+KQycjLEPtrISN3aVU7KF8S+aXQy2tQ2Yiebxy/M0/CTXr40rHvhtxB3ZDeb/dkfGBet+4B3nHh76Ej9v3QOD3w2tFL7rf40TYyUsDffQpEAkgKx9mV20HWcDrJV6SJ679h+R1t4W4Aw4VDYsEPtgJlOUR9NjoOKbRccoTFpIWuehlsCEtOAl3eZPQDJMG9rYGuK2LgZh1Y2wBDb6j7n8TZUhSXkFAqngWZaxLWONLqRC+Niyux0DYas6u1yH36I1pAm5hvAsx9L7QoMgmrNN4D2j6eRrrQKSxAgznIL24BE3zEPKzsA5ZuWaSeL5p4BBBXshTUhPe2xbKH/Ibx3urQ0oyB8xk/qB5noGXpBlgSjKLdcPsmhm9yYN4N/aBcG9HOWWDmqzn9LukfSKm0LPPoQEu3TxiPYzxLq+A6N9Dz4jIPZ6hbIBTzxr9LvBcH8RvvQ+/+8s3mbX3ezmydPP1FgblP4lnvQNl+Vd4J3Ui6ngfZF1FnJHKTp5nUF9lQNwHkNlnr5dhXLthSPn18hmcA6u5fWGmWO6bzRY7bEy4ZERgGQW/qkBaTdRLcyJCRw+8CqJhmr5obY4f6Ujqp25fbjfPnefOn++be/aZf+fOL+ypTAzvLo9P9hbms8IvlkTEskGG0BDCYDQFhIiMqmTwJDu7A3ro1c2sC0WSwcGqigaVWS4KLV+Kirn5aHkk3u2a5v5YWewI9bT/xH/98FMimnpHGRxc1QQtN4qi779hWPOTu8v5Ix9zsmd/1SoM7XWsaczDdcHUwTVNSNdMNDrws8WCWdZA0Ok3WNbpG4L8w1ZNamEPmx72XcwGAPor3NxYyDEy263qWJdf6XxQqzSf0Yvdb/u5vzkqjKYjSuQXL91oXlcTn7TrYzOi9yc/HfnP2aI9OLng9EzPeYkCvCjZXgIvvimUMCpcTNBGHYouNbBQAKrqbAWFQNnwqxCFrCUWSq42s1DaOjrpbu2Ysh/ank/tLArj2zPNYmiq6Bwani/tnpzJ4wOH35IZqVX4aKTpuiqsYqHfqpgd6XRlvK09dRx5v6UWat9/TrdPiHvnj779ufyxs58tXxrZXp6Z0x20ZrxqWXSa6IHD+2mizCYwMKAY0rEte+WAQd7OCRuYVCx8mNCH4uXmwvbMVLcdHe5Wwon7FKMrH2ptPlt9/aXD5sFHT+CduC1kcjXvxPuNgzLdNHGnezc1NWWff/75VzFg7NdB0OJB9zq25YefSDwRd3wI4+TZYaX84nrpum25eGuRb3z7TZCaFFnTQGzuoa7zP/uzP+tD/kiL3wIrXBpxdORFpfJQAHnx8YH3sNg4VgR5H/3qV796vKen53WQnpcw0PfCcnle6+OYsn0fSHobiMXAD3/4w91oFO1B3vtAroiM6lgbREawUGOD5Ee0EJGncR0V+Kc+8cQTTxxHvl8FCTuGMsDocPPvAxFiEKKm733ve/8n8tEKHDPISxO9F1iHga0J4qih4SDzgt6ZMgY2T8EL0eknn3zyJLYvgDRPHzx48EdrjRmecxzShw7ko/U73/nO/4b8NSGvCbybCeQrgnUI+zqOK9gnEmfj3bXQqChjmUMjY+FP//RPSQNefvjhh/8W2vDTJDFZC9zWuqyUHt6NJMq5Fw3rDL3DNOCTCCmVDXmW+nY89xF6/hQfx6zXXnvtmTfeeOPTaAR20e+WSD5ZpOk6SgOkfi8Gef4qon+BrrnVgUg7hZu9L7xcnXr22WdfRkPmMyhXC561xINwoYUaOHgPaEBsAvXWVtwSh2/693HT+b7ZcgfX3zbiDiDVv/7RSG82X27y4cXIjBiiCmmk41RFBYYeA2QSine8jVWha242lQydtdvFbbeOBMBt1PWFV1/Yd+7NVz4cfv7Ff26WS206iJBeKYm0S8IRVSRAiMKguhHiMbURwCgKiWNqrijIxkZ2+CjecQWWXQ2kicYM+/CjbxVolrICpExaaLL60iPicsuu8NjlB+J7dn3TP3ny+8qePeSSas2Cn/9Zqzt57BG3cPHXrOL5DzvFi71edRR5mROpUBEkHWVC484kZg7FT42oY4XdGH68MlAZ0WPjKzH05qBssM57GP1cNaGJc3Mo00zEKl+4Vysk7w1F2x8KRbeeU4yWN0As//e1ls8cXfAzL7+R/+zQeOnjR89N/HzZ0+MFKyLKdhSNC4yrNTG5hBlGXwGsnPESKloUC8Z34aC+QBlrlRJV0KoIx/tQjqooYWKy8kJV5KqV7mzV+BdTeeO+ppbIJTXRvk2NJ9JKIYtLw8IzkT4SpPkQCK68NSRKXrjL1iOd0olYDa1b8tc/91Lb8BPv/IvqxMQHShcuPOJcGm3XFwoiBnETHI7LhgUeID1GWNupz8QFicdzpp4Hem1xXENcep4W3lEHB1w08O1qCQTTFo5WSY0ffvlfxjvbx/z87t64EN/AJY2eV25JOdf7JmvwIVrMIgjXZRCDLD6A3WSdow9fI3EHWaL9MJbM4kXLbBBxIqKwHgFafHJnuesv/uIvfgNErROW1j4acIePcwLrEA3YI6JC7iyJqNDHm9bEFahcRIZpTcdAlnfBAvkQLLKfhjb41Ne//vVXQN5/AkL/7npZ4tG9vx1WwgMg6/8jMN0KItpO5AK4RkE6F/NJ5CwItd998PuvrSF52IN8fwLPbQb5PQXL65sgbP904MCBVxC/1lUSJLCKNTyS7MTyAZChQyCKA8jng8CIrNfku1o23GhNRJCwC/TTtI13pgcEfh/yUwShL4Agjzz33HNdIMZH4Kr07VXc/rpRqDGBBtpBNC4/Ap32A8hfP45twzOFjBCNduShcaFj9O4Gz5tIHb2PtK4/fxcNvUdhhR9BA+gYfH4fIas1Gq6nsL9heujQUNmCAaeDeD8ilG/KP5UpIOL4vRa2b9/+BvK8KF3buXPnCyjXBK7tIh084UJY0GBWSgPYtb/77rsfAuC3hbivZZ1Fzw+YlAgPwoWeMf3e6T2FMUL+llD2EJZW/NbxARSF675okjmsEGODnL5txB0eHyP5MiwjlhNXQA5NU4dEBhVDFcBTZQtZAzm1UFTYgdVqEQbDiYO1EcYbBLqNlQ3/7NnQRLG44/LRd35p6uSJX0xMjLQlMT4ggyUGq7OJUb8mKE8YhAdSdpDBehuISC1ID6gP/hEZwj7ipbDAwTNYEhZ6SxClBAlHBf70iVKNFs4Jd2a4KZSdebTNsfWQplv+hXefFf33Tt3sj5MqZDH3jQNe8cghu3DxM1bu/H63fLHJd8bxLswIDY7+TQ+zpSFb8gWWrQ4MGkdZieYRMVVJFU75R3mwg/eoRvg8EcN1BRFJxYWFYamVQgkW25JQCpfhhGaq24/loyGjK61u+VQL8jGNNCj1mw7vTvrtZy7NPf76ybl/feLM3EFfSWuOFiaGLgwQdvSOw4MSDZ+3RAUb0f+fvfeA0uu47jzf+3LunNAI3UCDAAkSzFmixKRAyZIsm1ayjj3HtjTrOTrrsJ5dr3dmj3fX53h9rFl77LW0npElSqYoWaIkixQpMYpRDCAJggCR0U000OiEDl/Ob3//+vo1uhudAHQDoI4LeP29WO/Wrfuq/vfWrVsC8xzDbvPLEgZYm9kokqJkh4mVCo6lQ02yWNm4NZYpWrlj+fhYyntbNFZx2lpixWSubE0WmHVPZKYAjRk5oQio48VdJpiwfJG45Q1FiuWANWvGPeW2vzv+6OLWBfiL4JCn+bNs/jhHXtiQTybXHXj8qc+Xk+MbrLGTdRFGgpp9QaspHLUaffruLWsiM+WBpXmvyKwjoF7iF944yG8gFNbcBXin+uYBL+4c6Pk5KrrIpPb+vftbqtlMfSgWyQfr44ed/TvH7S1XnddRhWUz5SxvpJ4Wr6MzyBegnqVjT+kRtxM03w/H6vC1D1D2syG0CyeeXZU47rI+Yin8KGHxPgNovYrOuA0qprUD0ajOWpuSQI5Ay0zgrjJoU/kEagTyAfxRQFwUILiur6/vasDrHcTDl+vBH5mMVvAPSselAOMvvfTSSx8B3LYAMMICHQLDokngivPGTUnn3eTSPfMXmr08V4+Vvp58uwFxN2KFvAlL63+nLA93L9MlBBHy7Nu3bxu8/XXC7N3LSMAm8g4ACKd5JZpc4Cc6RYcUO9EoUCilDgXEy5bgeoK6WINysu6KK654mvz+5vLLLxc/zyoxqtJK+e6Axk8xB+MWJle2AuIthUUULS4gV31LBlxZFU+V9InM3KaI8OIH3kU5ulhY7Hp4lwT8HkHJ+Anvuv98jrxM0TPvD/LZTv22i8fiv5LKwjeocjrQPYLCJv/2aWFB+Zj4i7/4i17uuQreeFRH2lCqjFyRVwierpn3hed4EjpoiJdMK9ZmCbTztrL4ofp3ZdM9FiXs+5GFOJvarcWA+3JoV5YXRbpgwH2g36o7fPjETaVq2G5sbrRGkwUDSNY1tFpJ4gh7cXkIebEWO1lrU1filcsvDT15UXDsPBHBB6qFUZYFGp3eV9pTO174XPrlVz5dOXy4J5HLJrYBgvLZtFXko604uMfgfhEC3JQ9ADwQayiqoSTNxsZiwSag68UtJohLgvypk7hq4KHEeeQZRFQFEFXwGk/gZtHgAwhPpoxvfGHocP3k5LEPZA+8fln79hteaLth7B+g/TloP6sP1HGeaLKS//Weobd//j95rNRGvzMe81dHcO8ZJ8QKnus0XB6H7y8UOxWsEMCGKdlyQoA+L0vBo6QI3Fm40tgOUSKVTFnSuF6wLyttMss+CDXq2CHKaPNdO8WqVRwdDeQq2Z6y862vxJuefcrJP/KIHbrnsMnjLP8webT7sX0Tf/T63uRv9p+w6jPlVivW0EIjzByOCrwFiWu+gU8yj8IqJaOaRcEyIwkQDIAXYFfy+HH4Ye5fJgkffJwMxq1gXdwovUXM8yeKBcsZydpDsMyusvKBh+vwp+wt4XaDZYID1a+v6LOyk5PFUL5++Nq4dVp4MOb38lb5lqMKAYSB/+xziqf1l8BkZupA0Q5786WwamDJ5Lz0s7sHv/eD/7zvzZe3xCuFlhCAPVRhSJt6C2sciGik6VIWxSVjxTvjBnRVioCaQgl1TIABuVOQHfqHKs7uJTSZCi2Yugs/9R1CeSmlJq0ccziu2rDJyg8e8CeHjtw4/var3U3XXvUR58VHv2rd/KGnzlY2lyzgu/gGQN9bgDGFhzSgTL8CDAJtAkeasMp3basD1O9CPATErXgcd97n+frXv/5nslJj6e0EWBl3AbGba4br6rTVebsATla3uVZYaEZWapuu616VS+dINqC3BYDYBHi75O///u8bcPf4Ni4Vj5sXnMMf0Y/C8ftf+cpXfg9Q3MNxRABT9E3x1YArlUV8l0IhhcMFoiqbkq67ioiuuRZVlA8v4Kwe0JZnddvnUDxOmesXoZv8Ag888MCfEVrvk+QhN52EAKL4K9rcpPe7NIhvAsUaEXDPY1k3MiLadV1yAy87iLn964Dta37wgx/c98lPfvIv3fyW+wtd77///vv/kDy0GE8rZbYZXbC0+BhKgnmnZNPlm/J165/7DS9dPkrREM9U17pfYBYXEx0HFSkJS3SMchxkpOa0tnC59K7kfYwEhb/61a/+RxSV7ksvvdSUFzotRliM0oIcFe6+++6XsLA/Pfe9H/vYx/4LLjHyZVcoRAulxPBKPJv6rtfi1vTHH//4x78899nzcYyM1T7ac3wZcytG4Yfmfph61bekfZUZ5cSs/qz6R7bbkVnAwZJpReha8i0rcMMFA+40C/QEFk6986cpnFK76Ag1ghzOQ+odd+oH+ia66tvqx3LoaGA8G2MfjpJWWfES3XG0sJzD50k57tczute9rGMMh+Z+7es88VyI11TLPxfKobSEsVmDhTC8+qu56u7Dpv3od/NY6NfZ9/qa6s5Dn6y8te+Lwf7BzW0p/N8QViunBauY44ggB3ipl62Af3O2xKQWCpTGCmuMpgJy4RCCDy1Q7MUZHDwL0KOTgGKFdXfkpsGvzbN+LLY2z+rT06TBAvdaecDiRHKt03/87lzToaGw17T6zy9E80Ln+eBsK3P/VcXs8K94vUPbPShtNgtv2bbcYgCd+GqbPhY65emjVzvUCCu8QyuKSMmPYiJg57ciBtgTPqvKcyqrLLWwnj6T6/wP5ih/1PZ40iYf2nTjV+71lPF/LdZXir3vKWaKPd4xb8JJPfJDO37P2wvRvdj5l7C0v92b+bX+Y8V7khl/vY0rTBh3pRyW8CBWZr8szPTL5VIRAJ/BbxvAzggBZHBacJUhUk+tYZLoVKk7fGQwMKM4ET7VRpFyANEVylcsasISSgmgPNGgelSHP/NLmrEPq0mobM68kwlV44uVq3aNd4vbaimXSM6eZy/L7dr78cLwyPZQOpNghgXLqXmN25YXZStEnYVxYTLWc7IbGD9JMTXzAl6IB5RRHa+aAs1XCOXUIKCMoJTKBz7u43k68Vh9gxXAuuTH34iQNIze4QM/kWxN9x+7IdXRfzjeuvsApC75XS1RnF/Gy3y1tSpXZydQJhCk5IJF833WBErCM2+dA4SqPDvvNZPZWfxRnrgz9AJA/IARAxoFYESvaHPBpMCYXDgkjq7lXfvupvu16VjAzi2vQJ0L6Pj1IGetAJ+7AIhHAAAv8l632T9j6rF+h37+85//OpbdTwOcLgVYMLe69h3qV5vk2k0ujQLQ7nVdE80CzG7Sgja6PuXLLdegJPTuAXwuy12R0YWOJ5988h4s4p9lNKNHeSnp/ap7AWKXtwLierdocMG6+yvey+Ku+3VOvJSyp3upiwBbD+DzY4wy7L3xxhsf4j3LaFcsC751MQrwQQD1TYBNgXbzDheY49pk6HUVBdGgd7rvV/1LHgRUVTY9r1/dozK6gF/7WK7Fv3H8xfchV2bUyWR+Af8g53cio5tFgsoo2qWoibeqF0BqgeMh6hznhdmJsvdjYR+DJ+tUfpVRz6jsStRlHfV/De407cjL4Oyn3z1HlKuKPGiyuSmbW7f61TmlqXM+gfoVSCvarp0LPRcMuGNkZO4ZvfWcdMpOC4CZEjQ+dYMf59y64ocHDzrB3gODt+49MPorbz5z8L0lRn2xg5rgNlhEQcTYpkFVAoCeqo9wLFMEUhCIEenAY6ElGv8cLRmwgivAXn6BZYiRYIcaLvCxP4BFlNbEIXAIw6UeT8h2/GG/kydyQDLzsSvb/i+E7hgf7ILC4vS+UZ9+c+8nxl7e8fu5Q/s2eybHcSEBXGOor2DNDADIw1GiqEBVlg84JWsIbjEFQE6SDs4DgPTRENjBUJGGTYtkEiiQONkET2SGGk9xQiWjX6E3MxE+bFYpFlwLqZEGTPkgr8A5IoFYmb7DjTT7n5kYGWzGdWe/vXnzCE8vP+V+3pkbP/qhYrrvZp8zAruLRrvxEjEGHtJ4YWmvxoyLSKUkwM1ZXEyqThT3iAg8DDHBNsKd0BoE7ALa7UoRQK+RxAKcx28cn3AHJUDrTlkoBJaN5Z4RNNsjCxyGKlQnuvdypni0uTCZbi475d8NVp2IM/nYN+y6DxxcfmEs6w2UwF1vjH3ujUPpL/aN2BuTFXgdikJbCMs+lmQ/SpW+QPrjKnM7ioU0Chb1F8TdI3vcaHF+gL4AvizNZRBrFeVJYFRlEKQFwqP0+XGHYZGNKhGAcL/xsViZbcQMOUV6zNIS3DtPkmzNK19I8bzn3TwkKiZH+kRWtKr1+u7FOb/Onh3rJ3e/+bnR3W9+JHe0LxFPZqwY7kER6i/sweUH+s3oAs9VGFrAQ9p6B1l11PgiqyHujQdilbifSezeQNnv9VUyE1mmcKR8hey4FWQFN8mCByUoRDQevxQaRiwE3stSVPGfzxx6Z/1YMPGJULix3zn05vfsniu1mui/pSkO0JFrUiqfNTaSKeAucKOq1bE2kkD5oote0Y6U2CQeK5pw3XgS6+Ln8fdtxYI2bal2QYno07674WKgzludutCuw3UPINcHmDM+2/KBFxhV+WSlEyB0FRUBJYBjJ8DoVwFy/fh7P8C7p90Rllsw2m+bUYLPs4Lj7wNet/E+v1wW3PeIZoHLuaBY1wU4lFQe7ese0SUgpudEs0C7rPPkWenu7j7A9jjlOYXuFyEUuv4jysmHsOL2qM4FCPUrgKv3T/HPnNMx79OkXvUTZdUvdEgBUdQev8og4Kz73LxEp/KCZh8jGFcD4P93FABFqvnWcmhkyfr/4dChQ5/Cp71V5RYgd/mi8ksGxBft67p+kdcydBYBaSX5hXNebluQUSuT7te92lRe7jH857k8vNuDZftH0GYEfRHWrfolWduxiP8awL1Z/BQvocu4u+ibVL2juCUB6Ic5f5pcMpIwAKA/SJ1cglIWluwoqfzKh+MIMn0NbmHXc/ohc/H8/bGRg0X7i+WSwreh3tNMhFfZ9K1IDpRU526ChywBgmXslyhdMOAOn08DBjMhqipCmxJ9srFirzbfaQsjI+PFbQeOpj5wKBPtLgss4bpQ85nm7SIQYuQ2wue0KDl2TlZS7qcd9WgpWPz3DRA2SBjIhZuDAStCSFhU9Q4yB4YBIPkWjxwdvWn/aM9POTmvBQDe2OlXnrrmxO69nxw5+PbG6uQIVkfeR59ZZYKeVjpnZNHKY4HOI9DJYt6ahPYKlhxvPFZojdalaL0y/lg85YuFxr0+ZnuWwcn5Yl21VI5UJoZaK8VCtFLIh8t5ylrWBM8punHpsABL6p1tFAEvbZ0tF4exYStXrbYUxgZvDl925XsB708A3pPctmRSlJHcib4b8uNH7iyn31kbKkM/LhpeRglqzh1YprE0V+EnWBGLNR+mFy3aVw8AbsYC3Yj1OZFHnUjThE96G6Ige4zJpULILuTiTjGTsEqTUdtRg59hUuMY9ANIAPMeh+mLfO8eSxOaKhG5afnxp87gUlQtV7p4wa+Gw/FDjvPSkG3ftKzy9BJKbfdrqfe/fXjsM0f6Cj3jxajl4J6EiIEicO1gaEUhDiVGpTysz0wwgpGjcQ5YdYloNVwfPRAM+AsxfI/pZHJ4b9qFkpPAUh8vFaqhk7lCXb5USWTLBbtUBNA7AHYAazTBXAZ+K4y8TCe9Z1Y6dYIqPXUw656lDmptL3KIvVsBXBdOxeETN4zu3feJ4b37uwL4p7Zh5w9S+IBxe0HxA1zTsvKpEFkHZTCH4hFe15O2g8GqPxJLRqINY4lI3WQsFEuH/aG8Y3tLwTK98thQt+fE0Q3O+HBHPp/1EDfJjADJbcbO5a2IJ2xFAPMR6rEwOmllD/RuGYvW/W6iVJS7x9/SiS0L5Cxcsgt7BfoX5fuZUAcYkHWuQUDBBb8CCeoI1fHrnIARsrio9RlwpTjui4IfeH/GMgdwP/jQQw89htvEFYDquECcNgE6WUwBMgWs1EmO05zXNsw2Cc1Z2GSAJkAmjtW7HqDZCGjrokwRlUtATuVWXiJNx4AmG1C7GfB+LwDpALx88Uz4qXsBnx/E0vzvoHk7/PXIiq73KLks0LsEzJQAnQTsCuRlTYXPFWjDNGTAqYd7CKikmMkoyqVSgH3jvyzgDo1FXEj2MjKwx2S0xB8msb6Hyb0fpV436VbxT3SpvgV4tC+3CtGLZTtHvooacwge93JulHsKUqDgYxsAfzMTKNex1Qu8a8RDz0tm9CsR5Z4QlvOrOf4P8PIYr1zU/QjA3vOP//iPH8IirPCkhj5ZTCWL4pfyFuiGloos5LgIjaK8DDBZ8YQszfAuJT9uaGmgHlvhvaLjxDgO8RuCl8YCqzKKXiLLZBWdh1CKZzWqugS7z/gyNMn3/hrKG5VMqsyqF9WPyq4REBYjOop/++vzZQ7PK7hmvQCPrgW4d0u+VA+SJfcXi347StF1PH++gbvq7Yy///nKKUWQskUlZ0qSD5VRx67swbcqsjPGMf4Ni6YVoWnRN6zgRTUEF11Sb6RJhjVDttGcNC9vxTqpBQtcp3CU/liq4GmJxNeD5fhQsP4JqIMaAXYauucDYM+NF75QXiU+OAP0ZU4VPgDcKuiiSQwheLBny0JqzPlYe938PXYKi3nQOjYycGUlndGMlHmBu7Xz5Z7i/r57CseOX+dNpoIRBJZZvlYYFwxvBnAbAsDj451msm+SuHlpovRYdY1WfO360WhbW9+a62/5O084OEZcrxNWJD4OmtQMDw8O8BEWvImUTux/T2l88pLMwMgNqeODPdnhMWL5psDvBFQE7UXQNDSGwNgC1ncgPIpIGRpy3FMqFbrH9u+6F2MqnjTOT9WQ1Aq+8N/CSLq7PHbwVyrJ3m3V3ACWY9xkQLioGjQ2ehxAwbuq8EaLiZa8dUROrGNuZ4flj6zr90Ta93kCDbsrdrDXsf0nAzFWfq2wHG85m8Cs0kj4mM1WZWx71RnbaDmpxszY3g6B9nIVl5NykiEd6gvwK2XH40lZQcBvsZK2svCvnI1e6uRaftUqNe+CkNcWLsWpK/t2Vu441Jf59MBQflsK669DfgHAuoA6QX4sFkyipcGSViDKTX7SCqJMNMS9VmdHtK+tpWHnDdvr/w+v158NxK0UofQLCW7PFaxgpmDFwLnxfYdDH5tIF3qODxduHBgpb5rEiFHGx91PNRKmHR5JYZTcYn3nr3TI01OtxaOOqKJZd2hAW9FCF/3m3Cy5bcH7svt3dk6+9MLtyaP93YWhk4b4RDBCVBiUFx4TZEnjl5/FzYcpb5aVIPpPPF7Ycu2tT3gS8RO+hqa3AvX1vb5wZJDZtJOEOzJgG0+gUnzkZPfk0cN35vsPf7g42H9J6sRQ88RJouhghU8QW9Zh1EUjL3FGIUoomiWssJP7D10+mc7ce0n3JT+h3PvnlPt0Fl3YMwvyVWSp3laKPHxmrwAwtMGPacuVwALvMMc6D8DLA4wWXbeB++Z1vVoJOgGQzzC0/xsA98sEEqFFPr9ZgNdRRQXh+g7ApWKKn8TX+1VomWWNpCwmhCSdfRz/4W8CCrcJyAsYCcAL4OhXAAAwLIAUA+BsxzJ9E/SfEXB/9tlnP46P9m9iad8OWDSgXUBYSWBRfHU33pUDeI/im36YbS8A9LgAPNeVPIC1gIAnAFRbgmPmhx2+Fh40A+zC8CEDwD5I+RetG717z549Vz3yyCN/SH7rOUQ3pg+iGRAg1Mb7dOww+TNDfiOMNPwCQPsT9l/o7u4+AU+NlsF9fizD8g2/nPr44P79+z/U19fXDUgPCxArXwC0XmlAp+qLScVbUWI+DTDvJc9D5uI8f8jnVvJVWE+PlDMpFvDD8E00kqo8P4Zl+RBzM57o6up6GvqMm5Dkz80S8B6ljjsAsKypPLaZutyCnG+FxrUA2hbqIU6+fpSJSRSTi6YtQGG8CXo7JINKLnBX2eGJZDRDmX+Ba8+CigbzFH5GeW9FTtbxnEZGTF7wx4B38qkDuG9DtpvIZ1nuVSaDc/wDHSvWZsGjS5C1Osmv2ir323XbLZUV0J6nft9Z7ryPcyzeeXv8ogTupvTyd1WEEOoZ4OzFqFhTq1aRNcE6sJrfV6x4InY2pYWgBBuB6wbFIPj8Kgm42wLCi6S8uVXP1G6SX64OJEwCoT7ArizuBi7plMC8maCoSYplK+UrN5X9xsKiB2clh3i2xx//189n+3rvqaQm6iLy8WVCZgz/50ABqz3dVYm4+OzixkLHi4tBtL7ViXT1HGnavO3JyJrO573X3vggs3xy0FP7ome9QaDg6V3+45G6wKHBa/x9gx/2H+j7YLrvnZ7c4LFAmkgsASa7VrDCMzXI+GyHAO4VeBKk47Nl3d+3+32hWHQs0fbaW2R9dE72sw6d4adjhYldHyonD95u5QYCPiLeeHCLAaqjGNTIq6JAlbGwl3GLqeAS46nfQESUphF/Yu1rgWjX/VakfadlN4x6omFg8VjBtu+Z7rQd58WwlZ6IWaV0u8ce32RV0ts8Re/vlUvjrdXiMOFJMAIx+dXC3UbckB98IDBuhWThxw3IyQet/HjjjRFv8+1O8ul37MTti3aQmifxvceHf/vYYOH2CeIhyQc9QOejTkjGtTI2S7yYcI3B2l9KWYlQwWprCI6t74i9vn5d/Q9bmn0v373ZfmMWk+YcEK9yb2Yo33b0neqdh4/mfqPvWPn6kYlKfTbJ8C++MQEs7yqMQkcaXD0lu7VsajKo/YVcYhYD4zNJgV1TEj7zbG3fGdgRGd61787RQ4fuLA6PhmPop/U+rOABwEI2xxgnSgzfdwH9qgCtoUSdFduwcdLTvubN+lvf+2eE/hllhlHSXjhCxqBz8KU9he6Ol9JHDn5s/O09H5ks7u9OT54kHGEEBVPx/QPMI7CtBLKZq6AgjJ7wZQrpnuJbb/12wFv+GpQePJ3yd88ZOsJ5v98zKQEArJHwfTcCcuqUnTaBBLVV6hSV9AugzGDdlMV00UQHumgc90UfXuQiVvc3tm7d+ijAC6waLwDSR7E67gBkPgX4eBnwLmC5ID+4JtAp970Ryvt3AMhfAch+iFBxTXqtyizQrnKTt3FDAfTVA/a2Yf3V5EV89ZZO8M/753/+57+DO8ctgK6ogKc2WUzFW71DAIxzVcDnENbT17pxc2H7OYBXLi8zhstmv4/ng7Jgoxj8e0DXNURY2QowOQEwUXSRBcvu5oIl98NY3O+AFlbLrvVnose1lotOWbDf+973fld5wtdnNdrhPu/+8i5Zmwa0Qcdr1MML5P0ZlJW7AIQa1TAWe9dKrHJzLgqQ/CBgWW5qf+rmNfcXZedW5C2iZyV32kSj6kc0045mb7755u+jsD0OcH9SwHtuHjoGzGt0SAqCtp9Bg009tsK/Nuj8NMD2GupoHfLzGmVVP3XBEzQ1P/jgg++nnE0qv8qtJJmUzAjEI5tSTB+jnhZc8Argvher+0soT3cCbhv0vACtfpUAtDbv2o7SdQeH3zMnV+bPgv3BjOyXlNMZ9867i1LW+tOf/lShS02bJcVOvNHmyovKirKc5rvdw/6SxkNetCRd5LOc8s1L80qevKDAXbB1IU7JaYRZdwYkq9ug7631ICtZ+jl50Yw5uHd7cmC1MJMbK7hMlOUWApF6uVtjNZ2x1ujNyWL6MMRjAk1yL3GUByhF7jBueWWd9hJ73OBS3DDhBa4Tmo6IP56s/GUvE1zD879koG/DsT27PuiMndwYyE1aYfyjA0zANAySZzqguuQDqKixxI/a19yerdt86dt1W6/8TnjL5oesutaj9po1C3YOKsRUDPOTNHZP1G949a1gW+cvfE0Nn0vu9r4vddyuz9mMPOXp5HAp0SJZPiycPmRaDWsRBWT8aG9Hubn1fcV1m58mDy0OMm0JmWaSu1M8cUUluf83qum+Dd7KCA0zw61EgzEDHTCsCohXLPKyU2+VPM3US9yqa7n2aTvc/JQvuv5xK7F272IuLLZ9i4bJtI0A4g9ZudRr4TrmHRRHbrezB68r28V6uT55yigL3hjSRn0D3pmBQEebsQq5QStT2d9ardZ/KtrautdxcAGy5/d57e11Qn3D+csPHJu4bTLta87hhuP4sbThtiHFRqM2Pqz6XiL6+Co5LFNFa0N7pO+ynsQDWzbGHwxHrL3XrbFRPhZPhEbVPb1vDjoPNDYEDiRi+c8d6st95NixbOdEFlaj3BhhEzoGvGpEZ55kxJG6ccXSvQWYb5y3XJF3z0//1r4Bo3jy7GlTVcx940dHrhneveuz/sx4AwAAQABJREFUIwf2rg9NnLQ6GDFpRsFUowO2MyMoOEQz54KBkQgTdbs2jSauuvbBwOZLvmffdNuC1qRpItixNxvXpSecfT877I0ER6rV0hcIf7kmUGDKBrKZZy6EEtMG8HkHBBDFppJzmsbfeOXzdWtjbyObh+Ypv3nmYv8D7QvWz5nQrnjmGjYHuMfI03R86gClaKoTVF+lXyyAaUDDscXy5nn5k69KHHcBNPylv0YnfZJQg48BcifZBpcLqGfSffvtt3+XyY/v4ErRCXi7DZopIl+n2mVkUqBJbRmgJwI43sLWxfO7Z+ax0D75XqtRAfjXJMuz8hQAk6VdAEPndIwf8vD111///auuuuqrWLaXJ++1UQQZJf5vKVzQvlXWU0DqksBTLjKAuY9Qz/VSTJREm0YatKmeAYMZrNmv3HvvvX/C8aJ9hMmAP1MW2x9QN0coYz353w7f5F9uZEhypHKLnwCudgD8XQCuv5wPcEtBIqLPNt4ddOtDsqgk4D5VN5PQ+K9yFZkvD3PzPH/IU+2cJnNq24VleyPv24pcj6MAvDnPI+f9FErFRhSX6ymn6c5Vdlcm3fKjsBxje3kp4qjLPgB6BhkxwF11oKR64ZqFe9OanTt3fow6eWRKyVkqy3O+PlUH55wPIzzvZwTnvfCLT7UWo1/lkoyJT7zHtFkooimUsgPn/MKLLAP1oRckCSQDaRfUghRdQu4ygsx0Jf7SeQDu2FzxJawE07miL4cbBVOAAO4M30MDg4moGVAtIC4IL7/1RZKwuqzoTD0FAjEEqUfMhjICIi2oQAiZVBdW4OZmuTYAsQSCeYed8BbJwwxLznyN886uhuLh/p7qwPEeXzobDCRTlk/hMzU+wUTGiizfNJQZjPUZ8ilE46lEx5rd0Uu2/CB81eXfOdNY1lMf2qDT2/sQIfhSjlMo2BHvjdnBAxtwzoB+uQDhHE85bHxnTNATylkeI0LKyMn11vjYFmZ6yaKlxvK05CR3NFdPvnRVtTDS7ZRG+eBwFYIfHlw+rAqg1zRfhNpxCA9oN+EO0p4p2fVv+ROb/x8r0LjXSnS+Y9vX1Vr203I//cQUiO93hn743ZAvOOZUJ+qcytD13sqYiVwjPCysWy1gIfdkDOTN485SyOJ54zRe4QuvuTcSCh0n552n525Zo05hw+jJ3HtHU5m2fLkOzrAIBsoAc33x18eNSQAyiAypo8QCHAtZQ52t4Scv2xR/4JZN9pKd79x3XtluZ/7FcV64xIk55XLFU8zlPwFgbc6rbkwgJhrraZ1pLj6fm9up4yUt7rWKkVDjZ3O6j7vmLIw+3H/5BJPykgP94VAWSxFDWmGY6zCKoUWTmO3GQlgEkQ8jSU2Jfru789nA9ku+5b/5Ay+comR5e/bWD/aWXvnuM9mBjrtzY6MNkXHmMyRzVjGFEohcBgWYWAzC1sQC5oJM9h1cE524Yos1ul/j0anlveX83kWHzZe0cOLbXPT6wk/OvoJLyFo6wE5ZSQWMBJjUAQow6BXuBuAcxoK16GgTz65KHHeXYlkScaWY6OrqOuGeO9tflk1/A7D5DBP1tgM0G5WPQIB4oLKLB/DEAxBtg0fruLwkcOe5IL74t/DbIr4JtApQCLQLhAkwy8WH96Rl0cba/pPlgva55WSEQaHHXpx7fr5j6PHdf//9H0KhuEI0yY1FZdSmeleCtiJg+GA3ln9oXxZon/ku6mYnisHTAM8tgKd1Kq946PJB78Ky74WXLShM6hNOs5RzTxRQ38xzJsqRnneBmPJR3SCHGfj20mIW55l0LbSPpf0I17RdNAlZa9WogMoquZFCpe/RlUnAdwqQvRfXqiXnWnGv5niMwcO1KqDqXUn1IDlEFjQCcjn10cnp8wVueT0EnGNC2bgSd6e1+q5ULvHLVfQkL+45yn8SeXnXRs5ZiE2Lo8+FnlqB8/EI/XUgVPDgV1xkMmUFi3EZMIy7q3GPiYQQ2gzWXHp4rtclJ1g31bL6VuDVC2eR1Hw5XyAW9hTy0XDIA8DGJg5gFHokPih/5c4iF46aUjEzK0A9ye1J10S0whlLs+OYXCS0n4N/sweXFcWXKeLbHPbzQWKlNjYAVs1E7sxkRaZcGXUlUxyqUwCVmW/QfnH3wB07H//uf3IyJxvrWWAnSA0momErSJ5KQdwOkpgXRxk2sJvay51X3/xi+113/Jl143t2IdzLBrgmsxl/bIZv+d4ei8biRwsbN9619wcn//PA8OGmcDZpbWhpsCK4gyRP4CpHgTo72yzPRNYa6z0Qn/RUPt/lFLMA/68ojxlZ0oDsCWQO/vSjpROv/36gOtDZEAPYYol1SkR6IWqjPm+iT1pFLPvS8AINjVa4/YrnAs09X7ai214EsC9pmZ75vpn7dtuvHnacHaPRZHNv4GT0jzM5585UNuuJAOyiIVnEeT+uMor7Xs8qniW5mgTyQU9m9D1Va4Bnn949d2VV+OP5rw/v+swrb2S/5AQ7zfyIEoWoKlIMiD3EFAJCCQHYS9Zof5913ZUNB++8ecP/vHGN9/FtrQwrnGX6jdow4HO/OOH0+0v5ClF9Phv2t8UnkAlWxpJPjpWcJIZ9UyPhEuNWcqyfN0n2IMohOP88CXmUSLrifNodDE0BwJmwGCOSA8uen3bDG862keee/0LpxNG1lzW2WQki9xRzE4B13Jxwl7GJsHO8mLJGGXVq6Ll8cMOH7vrL4BXb7rc3XXdaZ35a3vOckFtO+fCBSEsg6sSa2u3sAAt10aDHKS9NCe/D+i7Xp0Ke2X15Jg0krKHXX/2Ur76BunTu49uQiL1rEuBVk+psXDm6IHrv2RDOCorbmUD5W8TZ/jD5rFNnLqBER24Ag2Jmq2Okk7TkhkJM82/iqqJ5HgsmgJniuGuYZ7F0Wru22M1zr3WtAGhXntR5ATeY/xd3mQ/we7M6e3zmtbqkAfDaF6gFZNbhDnIFjzw6l5a5x4St/DTxy78IiEjItUFWTuWL5XPadQQloULd7b/tttv+CyudPj43j9U4xq/9t3EP+i3qJ4Gl34A31S3uT2YEgBEXi5GL8RtuuOErjEZ87WxpwHL9I+To2Le+9a2/kSwIfMpXW+WXXOmdpFai2vyv/P7u3PdAwzD8ll+/kUEpOQKtAFqTj1x5AGxB7qGHsBZ0FZmb77vhmO/xOqLJ/BG0Nmk+BGU0sqM60r7kCWXzyB133PHV5ZSH0ZwnHn300X+m7v+Mb7hO+Yh/yktJIz/wufPVV1/9At8sK4VPW3iWk/1C95g+Q/WnOPlqO7Svd6n+OVfhXWf9/TPZ+55XXnnlU9/+9rc/jkzVofwa+ZBcSdYkZ/reUH70rjFCkP4IV6/lKiVnTddCzFit8/N22qv1sln58l0GwsG0Pkp1FkquxiQwW8FCKXAsP3fWYEkUilVjEZmVx0of4HFSLhZilXLBL8OcgpqJFv26m6ziuqbz2nQ8c3PPF5ikmUuPWmVWtXSIR47rPK4fhCcExKFAG6u7Sq1QfXLJ0YRLbXIRkkWeVAVnkPuphLwHSpnkWlaE7AgARPzcwHo85v26SyMBZqEkni9HGyxPS/uIt52Z503tR/kozxq0uxSQR9Vq6jjsbWjclVjXOeBvaioXiACSIfIL9nEW96kNWSn6i19hKQGohEJpr2QzPbTCtZk2bmb6TR+rd6zklbYn00YAdyzeNOqQaYpvgDNYlkgrNhZrX6gJn/aWEV+g5WcUbN+5gHaXBPKYtPzNb3uDrb/wRdYM+ENtMiDTAEAHCpHN6IWs77YHVxci3DhVGgcn21AsZy6xrI6wm4/7e2jMihXKoU2MQcSLLKwk+UURNHItX/0qeZRwxymzNbcAWOv9Q9FIdeBcQLv7bv0m2q2B1ubQm90ddX3AVNGKMkwce8TJgzsKf82EYi34NJUorqT3tCT1YkHQPvNuZNJTtSnsnFQaPnmNJ5XuDGF10yiS1N7a4C+sRF4KdfCnEb/fNU1OcF1rr7ep8e2zAe3Ovn3xwmtPbM/uePszqdf2fnF494HLRw8eiZQrxOlmcnGB31xpAq+uNOMPWD09jEUwM7aKMl1M59rzqfFt1vF99XPIv+gPsdLKRWEQUHTsTIhVfckdgRjen3/55Ze/hMX50xxfCsgyYRLVFqtfxQXBAAUAvQBTEevkHix9S7oTqI1QO/5uSZRpFMvtETp8hbk0ZM+0RosX4hnXaBGWTgCIFgBKm3igvk15upt4K3ABmB8FIH+Td7+2dI4rcweWW/nGaGVTU78CU9qkmIgmgTqUiSOAndeh96yVWI0eAN4f413jylcWY71Dv+KlQBUgLohctXN8WhvDux3qIysAJrCn+8U/0ao8xEPO1WEtvkuuQivDnYsjFxS6LhSUjeKTyin50QiQjlV+5MZBkTkOX5ZtQUb5PMz3axQcdwREPFX+SpIL5LUTxXWl2kBTp3qXNsmblFdt+q4ok4dyntZ3LlYDlN+LAtD6wgsv/NqLL774H1577bV7GRmqk0IovtB2Tb9LPFPiWhXAvp9RoKcXy/sMr83XV55hFitz+7Iao5V51excIgQejMdig4SHtbJ84Po43UbFfKiyvIKaNDk1n69Es8lyy+wcVv5IQDnidzINcSc5lj0ojR4gLN/0Ux2RLO7C0wLZgjynarL2IbhU5ZigmcO6R0AXy49F3GsnqpVq0JMlYGGuyGznRJMBqMpD3sQqs1KJd9HUs6qNp8TcxdmAaHR/MDd6fEs5NZZIADxCmowKCPJBuKLT4GRjFB2FsbQb1+SCG3reDGzc+KTV07Po8LZL83J+Ce9YcPbv2N18xbYfE0e7biI9tj4FQI/i5qyPs8KH5BAyVYAtxCqtee4pjI1uLY6PryH/2XQ4xUZvaWJ7xRlhGVEclbQiMaMPxs4rxgIwiZVDvPkWyxvttHx1618lesxzVjh9zsPkblntyAf7neS3Hw+Uxy5j0upHK6lKKFcat/yKegf3Tc1j9VcYf6cySRSYkcaKVdcTyh9XpzHLxWI4Y61PZsJXlO28P18CJNPXa5EklsBVYeggU/CGBaVww7psY13fus7Q482t/uVaA1ySF/zFMbT4wsH8Y+V8Q+Lwm8f+N9y8YwF86/1eTYyjMEYpwXtd2iL/YXFN6ObJUSrgotcpkzoUcmFwYsYHojPODn/yq0++z3PyZGuEaC5RNdyoAlV8+x004Cz+/SlWPq0wQze6vm080d31lK+59a15yFjwlHPw9ZbU6MQlw68+c1fu0OEPlAeHNlnjo6325JhdyTLvA41WyrZPHT2/mm+iePdeQh350CAyBcKq4U7jHRi+MTh2HEXM+sWCL7sIL8giR3upBW4UG1vAcnYDNEUz14JY5xvwc92IT+tlWKq66Tg7GSK/jXMduMiE1PmpU3VBktoigSYtLS/QBRDrveaaa77NhLidS7GCjnNV4rgv9d6zvU5Znfvuu+8EbZdiPYcFAlxQI/nWBgBVWMZTncAiL4OnawClURdA6HnxU7yVVZDzDiB5AL/2f55ydVkkt5W7BCBsoVwB0aXyqa8VsJYVV+ewkmdRzl5Brvac61uxmg9+6UtfSouXLuAWH/Re8QHZkvLYxeRIuXD0z30foKwXd5utgEqFvZzuGwXclR/01jGq8QfQL/zyT3Off7ceA0638T3Wi0+qG/FKwF1l1gYYzcHbQ/Bndj+6SIFRxHYScWgf/vwbVNeuQiRQLblEJgOMMPXwrV9GNs8uktWSl6B7uj8RvS5wVxm0GXxQqcSZU7OdzAYWyxDFTNGeOpCT7d///ve3ayItysV2RobWwSNbhgUl8UpJcqLkyghK6FFGs77JXIhXzYVfsj8XDLjnG6xcQ0P9fsICl5OZks/DELrFxDVVhARqqjqADwhXoZiYmMx1MREvKp/e1aqDplYrta4j9PrkpqatdWnPJt6jmNHYCw2UrlkhWJYUsF1RpBuQjyFTAMeDwzpdp5AMyWHNoCzhqc2yXsQC86e9EWLflq32gZHCltIoa95r8iCPVx0QLzInLCUE72UlyApW50DYnyFq3mzLx0i2MTV8nPWPx0MR3IqI9Mv9WDEMFQImWO5x7hFwj6/Z2FvXs+Vnnks6lhVtQFQvN9lbrht1dj3+3caTI1szA/0dhbEhf4EPNUhDowWgHJaoD2BdZoYAy8+nrOzY0IbcxPBW8t816x2FifZqeayjin+5ZRGSUUBXHBSoxEJaZnElh9VSPYEmy5dYe9gbW3c/s1IJ23X7bL7MyvQsDuLr9gQqyYeqhcnLyrnJy4o5BicYHdEcBQtru+xPRB9ECRtnAaQRXpBYY5WHu+mMNJIxVeeWNThauXo86d1UtlgQqsIQOROD8bwyBFXwZ2dZJ4o2SV4Za0tP58NrO2LPbK+3pbGsWLp1c+jwS0fSj4YPeb7gTJRiJeolHMD6h5jR/DNHAPAssTVzNDzSKaYb25lEcHre89P3MAnadMYIOeM7s0HN/lgoebR3m83qpxEmgwZwh5NaaeN3RKQkK4PSOTrJqEYsYtW3dRyJdK570b70RvysFk/Onj0xVvpqw3eq7cBTT/x6bnjo6vzhvi3O0HBHOM2iJJAcQT8JBFirgDKawQS+jyK06rsgmiZzP1i4BgCf5SMugcfwgw/FJ3Oy/i0IfhenanWu0hEpRue0bM19Cx2x2sor6Iz/E1bz1773ve+lADQlnivqWQBkK51ngLCHEQBUK8PjXXTQnYD2OJ11VG2sOlclDZ9LEZjqWE2HK9AuoIm7zMiVV175EIvTaNVLDawtmuigC9Cxst/nom8894uUPwnPKlJSJNPijRQZJR2z0erj07VEok4aqIfNgGSCSNVCGCov8jZ5it+A1gLD+++cT9CukH/Q1S15EEgXKFR9y3VBNIlGQGGaut4PXcaXZYmiLnmZvFLqyzVio6R36li80AYga4Zf13LpNOCO//ob+/btu0OgUoDP5aWeF73kZbPi63ZA6G/hOnGSkafnpybImne9G/8AVLtwWVOUm5jqQ3LnKtKSS50jZOUEozRvsz/L5XSx8sqPH+D7Mm3ELSjuceUl9yPxUfUgcE27sJa6uJURjFfPpf7Jb7q9Ut6qc8mbNr1PG/LQimvaZ5lvcTflYJlKv/EEoG71jfm0se/9zne+sxVa2/iW1rIRijqj+PuGJ/DAAvwbJUSKiORCSqLaKyXel8Sl6F9ps37AO86kLZqmfzGeXgzXLhhwl3Xw+6/l94UjhbHyZLHVQ/g2YohZRazHcJ7K0NA6jSZ9V4aOZmTS3pLNxWR1XzXgvoaZiW+POE/jizwSjkfTdsWHJy8ovEaOSGLGDAZL9AtVHvJS9UMi5/nMaqAdtGNj0CMoydoibvs4yAjVB/OloFUdyFpr3j5c+d0DvWOf6h9mQSA94nCBhzT9FXwBwMG1gf4xURcdCghpzUwjg5syw4Od3mKWBWwIdzclkrLRa5exXuNXXfT6qm1dXU/413e+mFh76ZKAaOYrlr3f2nok2tn1Qry57bZccrJFfvwKbxkAELKAE2XGlQfgW2HkITk22hgeG9rMgkxBWez1DlllreNMTC1MJkw0F1wYWDmW+oYHtEtS3tGOWEkTC2mgvmJHW1+0Ei1vANrP2hd8obLZ9nvHneIPd3kzzW85/vjWoh3wlFAaWCTQ2JLRg/hlgqmThiaMHaXGjmrx5FWe8dfeIE/TM/Wy4NKPf5a+5eRkNVZG2cC4RVk00a1mFagy2daD20rAWyQUZPlY97rE9xuD1qpYA1rqo++0NNUfOTEysREXM1NsIDqrqwJMGKFByTQCq2rgqmL80r7NAokcGCs6tTF/UohUPV2bm4zGNjNlvaH80FDCzqdxEeN9KKNVVsFVqPwySkSOYagJ5n40hGKFaMeap4PrFncZcHbtaiicHLh2bMezN+cHj19XmZjYkO5/p6ucSdVZyQkrytoF9chdHbISRGakao/jkqYGvciXWeYcSz4SYQmHrKDfKfhD5diGzYO5cDDlbV63ww41Haf8NUbNLMdFvK+OHV/fOjrB25lceSMdHjYOu0pHyIKzHkeWdNUrRdAkv4A60SnQY/gi1wiBInWqAuwCCcpT92kjbwuAOUH0lhexDn8Hy92yrHzQQBTdWbJ0EXOxRprAA4DaAHdoN/wRL5QkQ/DDgIra3Qv/BYxeicKj0RsDisRXPa9NSXxFIUgzhH/eXGT0Xui6BLo2U/8eAR2VTeUUuNK+6AS4T2DF7NX9K5HIaxRQyCvLPoFDlX2mfAHG6mRN5V0/mvs+rKUvIo+/B1CLy0oMbQakCbiJl5Jj9r1EFbmW/T9HTl/GZ/5lFMyHAXXDc/N7NxwDmm/CmnyFyiWlSkn1M1VWKVoVQPguvsMz7jN47iWNggB24+Kh8nXrX+9BWWjg/bd0dXU9w+GLOneuSTKlpPeo3gWqpTRQnjhK1ycYXSDIFyuNsKDN1D0eZERzG1ia3rGhyUSm0sif2ijVu36lxGnjuhkV1DukgGpeisqF4jGC/OzEFe1b71ZZUJmWSrM73KXuXuHrDYng8WjQP1Ypp1uDdDHyw83RoWPLNvFmTL9DpedZBGdyPHvZRDKzCRL6VpiMWdld1mKfQHAGEaZayz3r6rkdPJF2Skd9xBYspIt+wAWwH+iOZsoG9qeHBXSgE/gARM3NicNWIyh+RiqNjFyWnRxLhBi1VUQaARS5Ewn2y52njMVdrjZF2ztev3HtE96N5z7sOeP1s3bt9isz5Wd+tD/W2Jws9h9tKbG6ahXwJNOrgh7Kt5ul6UFquEVMjtVHJsbXpsrlGJdrZRpJBUuF1NpqKR2XTznwikviB/NNPREsw/giO3R8FhZ3f/2QJ9T8ErNTV8xFZlZhdOBPjHj9iX2EbkyXPYFEvkR4Swrj87IAqzQqH5Z3gXHceRwn7ScG/IeZW/0QTxrgPs7K46Mjk5eOTTL0HMUNitEDLXSoRqkKWHZQbDxgw0jYZzUmQoNtzdbeK+NLh308jc5lnNjYYGXXdja+8U5/4aaRQjUmOwhB+vB5R8aQHZ9GAYhqBKNNjBV2dDAt78Slg2yEUYK1QBJPFBGJCaqYV+dY3EvZWDGbZsAItsJElb+C0sCLMYezeBaTtj0JOuP2luFwe+cOe+NNp0Uc4hv0Wm8carTGjl9efOO196WOHrw909+7lVVYW8tMrupEKSrhvlRBIQgBQGVjD/BJabSngKtWKSw3NYC7Fu3yE20pFmWR3bZ8pLFpMBSLjXbcdPc/FAPeFPM1DrVfd/PuBYp5IU9P18d8RCicmzoqdXZYm2ICR+ogBcB1HmBkOjqB8ylgZn51rOvq+CSb2vScOnSBK3WQOqbTGwUIvcyE1P+G5eqMgKbbyc5H99S5Rcu2yHMrdsnIFy0wbkRtuF10wxefAKJ4I7AkXiiJF+Ix/F3S4o5l+yoUpmYBL/FVdSHAorxUBwIeANpBlKGHV6wgy8gI0L4JRaxd5RJNAsMuXQJGoo3yE6FYevy5J/LxsDJrSLx0QZdy1fvFT8kH1wLIYMd8b8MV5A185Xch1y3QGpBsKx/JriuvmkhNGaLEjr+SrYfjDwB8b3zmmWeewtq/7/LLL19yPsZ8774Q5+BJ8Otf//qt1FOryqj6EK+UBHZVfngyBk8ew/XjjF2ZePZVtp1Y1XvIz1be4qdbPwDf4FRM9/fzyhUB7pIrt01Sfeudqjt9C7i8xPVuyYIrE9pX0j3aZFWXrGpf+bh5qZ1Sfpo4rjIItPPNmfYL0D503XXX/RRDwzfg0xm1Webl76I/FxS4x+LWeDhojzjVylZVEHVpKhMbt/HD9RoEj6UMX+5UptKWzJY37nGc52StX00eQ8uqdCwxxgqK4xON6aGxQMDHXBD5cAN2S4AgulyAOxM5sDr7AONNDYkDPbR1bjkdpz+c+u8/7CrmssE4S2l68BOuJYWbFHCXxV0bHY/XM+ld27HHbt++aqMTere3ruFErKFpgnXGrcIEodNQQVgTExSItd0XtMI+XCT4YAvprJ3PZFvwy8DmOpXsQrxaSXVVKtmwA/hiiqOxtgv2C7NVCCsj0I6pnfCQiTFWFDpqWfFVLA+RUbyhEdsbKMqvpFCADmCtpqTRlBhoK3G0HUQP8asUMpdakaQ6nsMqEW7rifFUpjWJy0aj/PFxx1Bce2QbWcbiTIPlw+KbiIUrzY3RoUjs9FBoU5w55x/kt/SdQ87ricTw2PgEcSKpF9o6lCHqhY7BKFQlfHkpCSTO21krSOlihOhB0wk7eK6XOJiRipUMwxN4ODH0pKhHUlrU8MKR2iRZzvuJ2x5NxHP+YOC0EaHBN99sTX3rvs9XJ5KbKkODN5dOHN9UOjkQ96TGrUgBQAo/m8NxK1smOgyfCKtaoxShEEBGgVCPBb6nQkDx8wNEJwpZoYZmJ9S+/lhw3caX7TXrnrLqGg7VdW581h39mUH6u2ZXIFP8d+vB7QjdY8CLuaYC6Zx73e1A3Y5SHak6Qh2rowR0lgEOw1is/oUIMj+6+uqrnz9TppDnqsRxXw4dlEOy6GWBok+yr9EGm41otY4sengW8lWzj1tCvXhCp9/DiMWdAICoyq9NaSafeA47CVaWJRIWzS5ckuIClVKclL/yEY8FZPTtce24QOkSWa3oZWhqw0UqSrkN2FF9CwAJ+Ki8AodYQDvgw8eIMhTCEr4ZehVFjCbbpCr76hOn3bc4NK5l5GFGWPi+g5RVYN2D9VsWUIXY9ElBkPwpiR/a18bIA4GFCzLknJY0uvP666//Hc9vwmXmErlBuM+6NOtX5RBvVXfa2P8MVvg7KdMRJjD+JeCun+f6u+dEMzvthRf4BP786/v6+q5BZqIaCVOdzASqKiOK+gCWcyKpzV4NeDmki59Eq9kDP7TYmLG6z1QOVEcoDY0A6m2aBLoSlmrVl2Rfya07VzFWedyRH9WhREsyofvce/Wt6JryUF3ruu7TpnPik+iWHPNNFaB5AEPDo8zF+ea2bdteXg5f5twzqw+bc+2iO6y1UheILNalSdOHjzKjkQl8NahACwF0o7ORwQMAJxCnGNjFQjmSK1QacIXWxy6n6HdfKhYSpUwlUZgshv31DE0TDlI+7n65l1BqWUa9WJlZeonhwYis/jWzj0o6mvFVstlGhJbvWjzBwoaoaQ6AnhNwN9Z7jisODtot4VkTJ1eFWcFQxh8Jj9oApCI0FLHqMifT1J9fwJUPzsvqqg6uM5VCKUrPeUreiskEK+GscSp5LcGKNdbMBTZkypqrlVKr+CRbFr6mdmgCU+34mcRrP/PypgoeT3DS8rLUOCCQSEbIoE3d8KsRBH3WbNLpJKNEJWF2YFUL1qhzq2SZg1koZFmaHJCuuiQP8wxHrEhjGiEvSlUIK28sFhjGTD8vYD5zuud/orXZOhgLebIeRfiSj5caSEVqqgJOCE1adoybJMOSp1vVmaXkLIUsTEMqlpDtXArsfCXitz0Bvw8ZYHExY3GHB/jkINtqnLGeQQ9LN/p8jMI4g28S+yxStoaKbWMnjt44/trutpEXn/z3dird7Bkbr/dNTli+ctaK0jDECHVK+Ems9lnc6ogSAwFVvhebNQysACAEmcuhBGZiTSc94VDK39gw4V2z9p1g19bnwj3bHg5uv+4wtNd6lLmEv4uOBbbUgakjU1L9qoNTh6fOT7/qIAUAdJ97r+5X3c304dazPFPmnCKsDNDB7mXlzL/GgnX8TFlCXgYgn+lzZ3M/VuQEQ/ybsBZeDWDbjsX70i9+8Yvyiw0yIS9MWYPiAWXXELwNLxRjXkDeQ2dfFXjB6hsB2AbFEwELJfFKSbya4q++/kUVWd0PeGwATPgVblGgQgBMz4u/yl/1Qh1l2F/Vb1+0zExYreXbbHwXRIPokSIh+iQzcjPA/7mB488waflOtg7oV+OrMqvsbpr+1uGjhzyqyEyZPFiWouiFvwLzRvbwo5ZF3Vj3xWdXLvV+bXqWdKo/cN8w9QsAe/RrX/vaR1jdth5amnmHR/loE93ir/blr628VQ5oiCMPcd67EZ/uS7EyDwDiHmdBrIfwD38LAHvW4YPnkLeih/h9dwCoOwVCVS/ioZJkR7Ko+gLoTrAdO9sXA3SHkO8834wB7nI3UT0o6Rvhm4lBxyaUtks5dc7uRqJd+aos2lRnanNUV6o7KWNT39bMb8PQpPvVvmlT+yU69exM3ohXyHWJfJPy42ci6g8YyXqQ+RGHTKF+yf8s+OGcj3JfE7dHHnpp4qvjo5Xu/YNHr7IrG6w4ZvgsKx7GWKRGjtuOt46mw7EGJrN1r+yp/nEskR+Ftn86H/St5DsQUs8Dr1bec/RE+a4MuKYu0GGV8zToWHUl1HINKWXTLNPutxKN+b4r1keenfX+MTt4Ml/2hYr+sI1ffJTJrVn7JBZHLZoSsbLUZBVrY1O8warb0HOMxYlqLimzMlnhg9bGQbup5fVSOHZTKJyoq+Zz1nFPzmqui1nBZNoKO3VWWxDtjKr0Zcv1oZGJNig4Kiry4UxreujkGiedtOK4URBfBPcNVinlWtWetKo5QCYNsxUNY8ZvfNPyrj+i51Yr2fYHM072wUPhRBuuTCfWOt5xK8QEW1+esILwWspkVECxUk+gRUYRhlPBUHtRi6uq9atMZIrdxWC4MdAAzQymZIcKli8n4GoTB74O62+dNdJ/0GoK5LOX33bZ46x8es7hORfjxXqv1d/i8Rzvq6a2WsUGy19qxN5NSFIMh9gPkTmULWu0iHeg37abZgEJGs7St4efBRUGGDvH0IhiqY8RxGOURCmKFu4oEeQ2EQ9lA77p4R8La3m09/Udd6aK+WiMzrSsNQtYBbclTIxw1h2o4FLV5I1a8cY6q6HiabQGj99qjQxtO9HXf9XAvr6tpdHJNgLCRFoT40ysxSffT5jQaIHVgaXGaaITq06CezyALLscNm506aImPzG6E4nj0dSYscPR0Q13ffDLgbamXaF1Lfto+cftbdtWdZRusbpYjWuyqKvzE3hRx06Ha8CLa4nSOwVm1Amqs9Q92tRZalPHDdDUyqB5zk8wua8fK/tTt9xyy7ewCO/50z/907MiG5oU5WbV+hXljWvLJ7DI/upf/dVf9QDUWgECdZQnDDDRapu2OnlZvJXc8upXvBBPBAS0iR/iF6DOAEwBWPhh2mPxV7wV+FA2PLeo/JC//8tf/rKZTKk8BLgEOpSH3qn3c1wFfJx38Agga+O9Plk5RZdcZQSCRJ/AkcCv+AB4l9W1UfeJ7uUkANT0jeKpkt4h9wUlvUdJ55TET8ktNPl5T1p8U3tjLs7589GPfvT/RAk6yijA77JS5kbkVc2wWfVTZVCeykv1qn39igbqTlGA1mJFXvPEE09sZftN8jn24IMP/uQ973nPP+ETf5pr3pxXn7dDRjm2MfrzJ/BrLXQZgApvTL1IZnSOrYpC7UWJ+TBK1TNYzoeQVZp3BRfAlKQbjaibX0M7fM/BE8Jj+LwacZFCg1U6Sd4tWNUNn/SYvgGNEIl3fX19m+DzB8jgmXNlgJRgtUmuEiuwrrrRu+XmJ3lTcmnQ78xNMqjvWPSpbiWr+qYlP5wrs412d3efwDXmEVxjvk+bxboq736DzHL5vmoN7HIJqA95+hrqQqORkwUrV2ZYrcKKlSj5CnGoCYq1MG6KloLfZsFqHR4v3fzCuPPkrQ32O8t9x8Vw36G01TSRymwkvneDX+FiEEhs0TKV0ZqhneIuQvOGO4XfCgX9pYAW3ZyZmBo7NZDEIIXMIMJatU370tFrHwG+zJL2LEtVrnaqspwUJOCp4PVhSZWLT5lfJZVNZIhG3cMCOOq9TCsOnXZ5/J806Rc7WM0apWdEvxoQDyDe42WyqjyW1CxxHz44s/mhB1Y6VQNyti/g3VIzM8FxUWM5eOhokSw1j/qjXw0DybRuHaoVmFMOdaQyVJjSrAn2tUmgNDzKD3n2ERc+6PfmCKG0IpEbFis+XSEeI1jcaSw16VuLm+qfUs2bwOzWTpjdU38og/3AyHMU05TYjOboqnFCmLqtdkXsIGCrmzHX/JGIoJGXtQjkwMIZ2MRbzIgQD8mpXivIVodHrbTHV+/NZr+Qhc70yFjCOzQeDeapamiOjuR4Rl89LAasS+i1eNkk10qcr2BxKeHSVK4jekekoRxpbBuNNHWeCLW07w5E69+Obrvse9b1lw2pX5si+Zfqh+F106GpAxTIUscoEKYkMONau1T/Ao5TmyaDldnAW8UUVmlFjNnLZMnn6Ph+ji876yOcW+dH3orjvuI8p7xtWNZv/cY3vvF+Fqr5MMXUqokhld21xqmMM6104oXaE9OmwAfoMvs6L1AhUKlNwECbroufUmr0HZ9h0gPzfk8z8qGJMI3ijFOrvwvokRuLJqGbMspQJDJUXm3igfgosKR7pOi5is9qUUedSE7Upi/IaAFs/NYf4J4KtH0KYNmDUqSJlGadAdGqTWXRJnAnS6xkX2Uhf420JDifYDRmHfeuo94vByjvQu4fwDrbDx0Lvn+1yj4zXwB4F2W6FBrNSrGiX0qJ5kmoTALxbJ7e3t5bKNMWZHOcusrJck4+UmRcmVM53LI4fBvYvQgVQacDG/zwpI58E2obxCfOzZIB8ZFvJw7I75hJ39nuqxz6pvQu/bp1pfcC6h0AvHr26fMqq471qwQdRg5Vj3LfQ7nM8FyG4zTyOcwiYX/L8TEm3R5GORg5Wzrd55ADl4/uqYv694ID9/Z18cHO/uQzR0cq1xUz+foK4N1HR81njXUP4aKiaUrwc/dZY+mqdWQwf09wv3V4h+N8ebWtlitZc72D5cv6h5M3g0tCoVgdw/xojnxm2Apq1vZKBnDCRDt8cusbgifQR42pZ5qGSKnqBwtJqcFgShJYlwVUDbA6KAk+w8LVklOq5Pmg104/umo7KPxOyQ54WUFKrjEBIogwZx0wp0koGiqjQYUm055UiowbYxqdSj6vjyh9FJgJnOJDrfnBiiqesIioGYUgqguB2GzeglVHYwqrnHDTZ3EiZpNBg9SkeV7nQhI87gRHoSlUu03MJ54Quowpu4+QQABYq0LDpZCMPm73E1ElEAw6hFRfdjiveUhY1inW3yrD47z4iH8KvvqAd4WChA7NQRP1SnTl03VSO1P7az477nTPCXi7Sc+qnaPlNacEjdxr+PI7QUIC2lWmwcoFTCAbZc5MX+UuBoUA78gso0upY+9Y+eGBuoLj1FUYZYvTjceRhwijAT4s7DghEcZJE5RZMp6/GWQ8CZtz5OOPMpsinqhGWjtHImvX761bs+mxeNuG56zWxgOgr6R9kfu1uvxa5Heap/Pd41pNAd8nmfCoTS4qAmBVOj36Nr/iqcviJp/1IlsGgJvlfJa6SzG8vBtXArkPKATcirkekj8BfFY2HKTcHp5//vnfIRrFxwHv6wAtQcprAKcADmUzHb5AiTp88UZJMiowr28Ausyv9gUeXOud7hGwcAGDQKwUASlCZ5j0MZg6EwBZIC14YYH7V+Q05QsKSIku8UO8UFLZVW5d076SgJbLP3Nilf7ofchrCBcRxd1cMFIYMtoP3X/D7ysobJ9jpOUDWJ3XUSbTH4h+yb0LDlW3qmOVSeVUeXUP1noP1u31uFTdi7zciQxtAcz/FHl6+EK50ADGQ2+88ca1jAw0u/SLbm2yWKu+VDYdI68eXIBaKJss7Ua5XKxq9KzqUWUXr8UTfSeua5HcmJR0Tfmp3uGRJqleQaSqG8/ST1w0G0GSAq13q1wqg+pBSTTA7yGOudUkA+B1L0fuppGpcbY8irTathO0c0cZSTnK9z6oa4p2ZTI8v39M+LXz+8r537b6YGj+906f3dxkJx/dkft573DpYxP9xeszRBiRhbAKeDf4VLiCY4V0G88VraPHS2scJ/Oxa3vi3yKTM/bBnH7xedzZn3Saf/764I0Dw5NbcNW3QuEoHQOwTw0pwL0iIMXsRhCwVV/ns1rbQvtQe2cPzeYC+BL68vIRNoCJSB024F+WSAy5gogGHzMRkvmgBRznh+bDnStb6nTAa+eLCWJehgRMNSHTg2G9NoJA+fgYtVqoEg2EzD2mTNp3Uv/M7C1/Sv7ONiZ1td0GtGvBJQcAj1GaKaryxeZirglIfcoJ3uS4On80MqBFpPRh1Oip+cLU7ACUSc0S3S92TJ2aVq4InlJh3FIx/vF/p14Jrq96EWgvGgu8/I6JfMJJHEtq48erUwSTa2bcDFoFHPjrBbR7WNxUowdqVp0pFC6vaLWVc8lQ/Tww+sxp53WfHlVteWnsOSIvjPklzPlTqTkYLA0FcRKqemwfk6/RZswzAu5geTgmGA4fwlpYhOnM2QyE2lYcsB5nrkTY5F+ysuwrKkxe/CPvAuXIAaoyITplfHMat12931dXPxBpX/98fWf3U6GO5l1ns/KqS/e77VfuHVgktQLnfVjMf0znLqdh+kNvUZYzwOc4wEUTB3NYqXJY6lJ03gLwBTrSKpaqBcHSufCCd+ShYfq7OJe89Cwg4mpcHf5g586dH8E62SQLHOHeDCgRGKF8BtjI7UdgXCBHifLmASSaEFSBD/JnNxv7Fc6X8IlN86sQmkGssO1YPWMCGFMAxoAZk9HUH+6blvGZ5+fbFwBZIE1P7lzg+qqcBjwFXGAokCa+CdSqvAJ3UlKksOi8jqUA6Xg1E/WogeEgipZW0llUFmG95Ok5LO1HAHA7Ae6347d+K8/XUYaYWzaVSXTrV646KquONYKivkiywa+f+9uIPvMpxZGn3tf29fU90NXVdWI1yztf3vB6M4rELdBQJ0Ar/qtOJGqSIdHvjiZpX+XSpvsEjBdLek6yrPumym1+la/OaxNvZoq16h4eb4K3v0HeZzPBc5ok8Vt0im5t7j7AO8dIxw9xyfsFtGi1Yg1TG6OD+zDHDlFhHqPeynzXRdz4CrrPvf5vv2C+i4EJa9aGDmw4mfjZ4OREd34y3ywXSUxFgHWoo9JlFKyylQrELp7Miuith47nbnvpmPPcTWvtYxdDGRaj4fhwbsuxE6mbJpLF9iqgFMs5kEeFoy+QqwiRSjyEQQzTVrY22sPrO8OvIKg1xOtmnEhUfAEmNhHc3kGMDfbiDy6dTITUBgIj2kaZhX6KxaxmAwlfrW5yMiErk2/15IkYAkhjQmJtlATfEK14C6xT4BwixvBH3k4sPjJNkD/MOjjBJJFcIDyA0Za7aZ/N5wlrbONooWNC/pUz7ZhoG6afXa2dSjVcrRZwymHBC6iXL8zMhPsHDaoi3piODz8OP6Y9zMIkPENyQa+/pNj1XqzuZbCLomGqYayU6TCwJDMsgSJixyYy1XUz812NfeYVxPNlb2ORLi+ApV/RcWgPjaywY16JksE85tOBuy4iUcZ0IkXEbFNEal9JjbHKRq4BVhc+JWtdXSX/rjeYSe2R7sKNugW8zjBReUrX4bVWkNkBZQZhiEhjos1EiZRE14ULTImVhYvWuC0ffOZCoAxW+TA89Qkr3NY8Fm1rHLLi0aPd7731r6qhyGAg1nrC3rB9RRex4rUXfVJHD3gfZDXTf8E69spFRDDBfQzQOmeSAFTdjzzyyB8QIeQTuAskVGa5ssgaicXUWPMEOgVCBBQAgyWseSfx2R3p7u7egQIhcF7guSLAwSgtHGu/xPD6mwA4G2Cw5tVXX/3C3r17bwJAhQSctAnsuYnyLAe0TzcW+s4upgQ9p9HvAkCXd/A1K0WQohZQgPyAPfebnvmsu69fsz9f3ir7DJ65z7gsMUodlt888nuQujzVJ7h3LPCrydK87/8DXP4Y5e1eZGIrVvPr2boB6o0CqCqP2iYXrEsukAMDgGfWKa5XEZTC7ZT1D1BUWgHx/6hJjgu8elVO4y5yDa5A20SjZFrgVrIn0C2Rc+VI13VeZdN5bTpeLEn5cu9V+ZW3jpVcRUfn9A7lpWviG5b4Bka4btIvvvRn1K5C53RdKy8p2XqH6FaZ9C6UhTEMDT/CL/2xxej/t2uLc4Du/MInVkMdfmhX6ZG+wdQdE9lsM4N6mC8ZZmeVQwElhYW0CS+IfQALXMVK5coNuw5M/Emyvbjx+aPO19+z3h648KWYn4LXTzgtr+4duHVgJHd1sRryVVghNktcegdg4gHcCTfZADsfiw4lsCa2NnheWdMeOr0jzmTkg5Cq+jzFErNT5ZJRa48V+x0LL90GfitYe/NEcSFSy+go7iWrnFLZiJXOtrJ+vOUpCcdSGiyqBAQ2rbrDcIBcncqEQawGfQrGe6qRrkQZcwiPEXyE80Hi9tEQTXV4+vGWFQsZ6Mak3Wop1VLJT6x1nKdZBfb22QrNChaxXE7XW6V8rMokVBZSpAz4vSJ16pFZBgzAzmQ1o4FgwfZHs147RMPWYUx8IY8vHQn60iEPq27R0DLuYRpCNZqwBj7AA+Q4Swi00ZHsJTRiRIuco5ytYFlSGas9lS2353FBYVUiUwY1pvw3fubum71mjGCeF0OzdEGNOiipRZ7e17mpTgC3fmp5Vhx3vFsCKYLwqa4DMunr7ZoMUYGntWPOsTCUHxlmABfVR248WPt4S4a2P8OoTc7PUHEIsaiPF0PtzScS69cdiXWtfTK0Yc2zvkSw37709j7y/6VNMzvB+QqJi4GFJUp+sRLPiyqJJMn9Imm6g1/oHobsIzt27Pg1TZYDhCTkEqN8NcQPwJ5pQRVIcxQOrqur601AwePsv4kP8/N8X8ua5/OjH/1oMyDqcgCGiT1+NizlXc5f//VfL1ScC3oekK6RBwPOVDYBNwE11dGURboK345cf/31/4A7wm4sryxCXFO+aKfm1UK4btJUwUx9krdpJnRuxnVF8THXaX+UnUY5KkyE3co7H5Uf+5kwh2dFj/r7vyWvADHcryJk5CeQk3sA9OsA8HXIi1cjUu4ojMospU+b2kAVSRMkJUcA9nXw5jMAy0lGdP4BtwyzLseZ0HQ290Jr+Omnn76K77hJ9SCQKzpFm+pESoj2lWb+uvv6HhZLuk917m46Vr0rX/0qiReusqN3ij+6huvOBpSaO7jlQXPjGfxRvet2/Sg//erd+p0C8BmU66WClp3BG1f01nllfUXfsEKZXRTAXWXpaPYdXNPoffbYcaJglPONrDZqXEjKLJdeIWSiReQUOyATYYhFVSrW7gMTV+dzpVAsbPcS2/37qx3b/Wz4jcDaP947cem+o+MfGM3YXVaYUcFq3EqlccVgIR6wHNZG/uA7weCXFQ1aow0R++X1DdbB097XM1m1X/DnWGC+WPQ4Qcd4J+CwgWKjCXyyuPPlK0whQLHgKyQJt0gQydPyWckT1UK4msk1VrF6SWmQW4b82isMlfhxz3DkP8KvgHs54C/yJZ/qSCu+ou0JJR0P8dOrIVw6uIT/sjxrTJcPHBFoJg6oVc1nmqrFTCfNm8xgyZUswsy87Gq2wXYycX6xoOP3qffD1yoTU6t2BvDOKBBl1MJQniDhNr2+CRok0woSpTCNb/dEmOATMjKnGf3AWQTlTAWBF+INOaYz5diJofFL+6yYvr1VU0JSqcqaVLZSnwUga2Ev8yLM5VpBVXMkmFQqyeME2zyJMSFBejk+6b7pNA3e1SBzgaz96NI1p1ndS8eaeeJnuYKPGDLealzPah6GfvWsNnnM4F7D8xrTwL+STCa5UMBdJhePWIWgL59Yf2m/r6FuKNTZ+nq0o/3V0Nr2NwLt8T4t/DVNzC//zrx1o2LL0qxOF37PrJ4LzhHaPKKfnnscd/x/78Yq+isA9XaBD4EAWRE19K8i15RQjyJilBlWP8iCO/cTd/5fAYNaEv6MlBnRC6hQhA7jiuACmznMXJLPFN3kwe+cR6cPzecwfXSeduBfyQVRsq4KQImPxqhQs+JWsa72wbuH5VN+PsgCML+IhfuMLLpz6aK+ZDR5BX7vZP7Dw4Dh92N9vwHguQUA30UZQ6pTt8x6XuBY5VfUIF2TTBFJZz2jOv8OBXCCPL6BZf+MJzjMpW2pY+T6anhwI79hdyRAdSLZ07H2JeOqI3fTsWhWktKxWHJBuGRR5Ve+ai+06Zj6No/rvDYpDgLv4g/HjShDH4GHT6Lg1JzhF3vZ1DVom/5G9A4l973iuRQplMgSStV5UY6myPql/LlogPt1a+zRrz119BcRf+nuQrmIuTUfFOYps1qlEIIj6ztAEL2REHGEhzxxgpCRvu6xNaXLSydN+KKLzt99V9pqOTGavXJgNN2TKcWZeFpvFUv46RYnrPoYFg+BbmZmqp/xsgW81eN8P0e7bczvp6VrCfv+ehaMkwXexhVhg9Ad5q7a90I+0mwBSU65HPGUsnUOWr29mo1QthqtlojDR2hAY5plQrHxYQaAB/DUYTo7KA1wBniv+uwkgbtPWdzjoaI95MXHPWBm1yp6kOKMK6nfs7HG2iBHR6uOlorRSjnf6beSMS4v3mKZHM78j+McDFpDjzfCPJZvZUjS2KjV/9csG1CD7GljeBHVwucL9oImpmPlEy8nF/T4xjTnQCukKrKMklk9VVAeq7KAe5YA8clUvhEgrRGReerZPHbOfzLFUkOuWPYVSo7F+D+EQALtqgxW4qs4zS7iNDUJYf43GgHjdiivbbpNwLuWV03+sKbPMq/CnwLAvVhW2ElVJnIq2ZS1XRNT5Rhfkh8R8lHgWp5Js/g0WPlIcLzS3DDkaagbjrzvln+KNDUebuhs3m13X73szmP+YvzynVUIN7YUlrdzjqiwktwBXHjprGfJw9nkD4C6EneYHgEryZoL3gVqBDDkzw44yQI09+Iq9H181r92NtElADaBr3zlKxt4V0RgSe9ZAHjXPujFC7PUPfrstJ3XBJ9kcTcT66aAmfFlFxAUH7nmw9dcCxipTTov6VxB+0wikQ8B+Be1ab4CQHzzN7/5zT+nfGuxpHciLxEBWbkHCUBK6RWwlBwpaRQHV6nNfEufA9CzcLTBE+baav3BRWY7CsZGybfcSARwJX+u7OkcSfJE01lb2Vj3iG7VoVxrFkuuBd+9Hx4popTqGsdGr6zq04/r+xJvdK+APSnM93cV30Qz+2fa9ppOQbS6SpLKJV6L79Cl62ekWIugf0uzOXDRAHeRdduV637OQirh51879CeTZfvaCHVMiBQzwU8Os9EwrV41aOXxi43XbbKGJkZCz77S/6XBk5Obf7yn9JVNl/mev1gs7z/e7Vz/1AujH9pzOP3ZVL5hA1EgcfEBpOC64MUNoI42IzmRtHLpYasulLe2dq0ZvvGq9v92XXfox7OrqHbEx1V2dj73aLn38J2HHvrpRxuDPjvAakdBQE+RQCgCR17cEosRFlepZC/Z/8jjf9x6/TX38fTj8+V3ruec4T2xow/85DNDe3a1NTLRMByiUcylWSQnbHkZOqhnKK93dMLqJyZ75OptY11XbX/IujQ+eOq9pVwwseElJ7mhr5AabXDKGQtXbDrpNK4xgOUAk3VZql7W6lyWlfFOHL3L8SZ24S7zI9xlVhzwlo++fF1uZMdnq9nDHQnc7sNYqqUoWpokSzNTYnJniYV+nEDCigbaUv711/wVZZm2GLWHrIktnU0/HRup3rz3yFC8sX0dK8bSEAJ5faE6wLyGDql0gPuh/v7LXn9l82df7Hf+5ZZ19opF9HB52z/pNP7h37z4JwXiEzU2ths/8ZIC+NBeVotYaukO4ijAzA0LeRm8cZ+b+Qu0N2qhrPNm0GAG3JBjjFpfxdnPFks+FLNZDXH02mtfbW1vLZws5a3IeNJqCTHxjeGlfIpRGe6sZ7BhlKgy3hIKnZ+oZs3tVkvXpr66rVsfDmzr/o5vW/dbdtPmVVHQZpbx3byvjlZgk47W9PAXS1kAgk3QMj0CczZ0AVS8v/M7v3MPz3YoCsbMJHAhsAPwse6+++6999xzz/8oH3/ax1OjeTMfWHq/Cg/D5BnUuwTwBFMiNIEAAEAASURBVOQAOEs/OecOwCgeG/uzqhflJeCielLCeqmINx6A5Saim2wi/ObhOY+vyqF4ed9992WYjJzBSmvQntxEBN5csEZZHbnHQPdGiDgvdK1KYcmUcqqPGaTcdzJqcwkr6P4vuNN8WCCUY4rttZgXYmGZN+BXQF78EBAmTvoVuMp8iuefWS36lC8yECPm/28BaFtxG5lWFiVzLth94YUXLGLODyJTwwLZyL3DxNwi9HpwM/IDhBcbrbUByAr7atp28jTuSnqWd3oB0EGub8A1KKLy465kgLUs4pJ/0QGN61Fmfh1y//IMeKFuwSTloe9UfNW8FCkSUgqg28N3oI/6lBFv6pkL+YO8zNsPzqFpunxzzp/3wzNvnVaRREWYefxw7heXb277yUtvJjdX84WEA9CxA3GWTmeiAysj4glCaEgssay0WcUPOlMuxAZHC7cf7D+Z9ATb8vtGnLe2ttjTltBVJHfBrPcczq3/yb7kZ/Brv2EkWbokrUXrmH+pRiMgX2di4plY36x+GiLKSDPuAWuaI690NAVf7W6wF9ZwY4kJvoJ+uzE+yaBsfRXbuww4niDgEADv5cMwLghE3ymND11dGj++19nz4mv2tltWHBxaB49e4YyNXxmolkPMl7Vw0ME8gEUANybmYVpJVhDNC+CFopY/VjfuDcaGbXvz9McqX/X8yL+crAZjQ+W0LB9yGsKSzcN2gEV3gI3yl2cNNTa8I0qTXU5h8gpW53qWmwcWZP5ZXHAGdkRKmee2V0tjm2xFNfIwT8CUhzkDIM0yBuWKWbiIOMd2gq2e9wcYUi5ND6luRC/bX1/Zx/y4cY8nGxfAYHFBXLtwk5EFnoZME3VlgWf0KHRiPHtXXTxwCHKfOAuSF3yE9sezY8DaULYDjfJgwcZt3FFOPVDD2Ap3qYTJfRbodu+TNyr70w2VdmrdACdnN3GnP19fn/a31U/mJ0at3MRJM9k0TFhHn2bI8nAJ3rTEmziPHsO3HWrpyMR6eh4PXXHJffZ7bt/h0vBvv+8+DgAWFJ/7nAgH5Apgyi1uWv7mZojlvQog6AUQ9J8DaBegjgJswqLZtWiqnT6bBEgZx2pbIE+WIqj5UitPfUoCyQJFAKc2/Jq3k/95AcjwpvKTn/zkCO9mzncxxrGhRVZQlVOWUAE7QH0z27qzKffF+AzlVCu1n/CR36BeRpgzcTNgcjtKWUJ1o03lV91omwLMIYCsUW5Ws0zU/zYU3E6UJVv9hGTDpen/b+9NwOQ4rjvPyLrv7uq7G93obgCNgyAIAgRFEgQp0pSoy5IoydJYtjSS5dHYM57x7I53/dle7441Y8vf7nq/lS/tyBrbkiXL1mmdJEVSBAmSAIiDOJq4r0bfd1V13ZVVlft72V0kCPSFBkCgxQggu47Minjxj8jI/3vx4oW0j5Dez3zmM/3EKv/fUPB+gGIhSqlEiLLN4UL8lxoVirrKzen7nd/5nRfoA1ul7iKD9FNJgoO8h9xX0Y87Za0JysWbvmmYLYz+MycC1zbCzpnt0k+8c7W/d8va1m/Xh8zDIcdUupwnekA6jusEcbEZT6XbFYVM4Q9bYpeiLFFa+ibKtYdPjH/y5cMDf7yvN/eRnUNWx9IlWPovBwetwBMvT9z3YvfYJ4+ciX3qTF/2/jGhcQWmoXD5kZtSSC4uMUxVwqVLGRX2utSKqP/8mubw99oM99F5Sw/UpzyNdaf8K9sm8qGAMtFiS15WoHuwcnPzSzhGp4QRYbForv98e/7CmQfTg313W9a3lvYkmkMYa+JMZPxg9yeLg8O3+2RhrUQMwQvGZBMpOzIM/CyG9p7HHcJbU8c2mC0Dzpq6nsuz8/qqYspbfdZ0hrN5A48b8R6B4DkZuKShpc0Ntro3SrjEmcP1xUz/e1Sh922W9XTV5Xkt9TMDF6tmuu83U2ceU/nhlQ6LQDflNGwW13vWU7D4kraTh/A0aTccdZbD3XhCeYNEYHj4NasHbVuubTBP1kZLR4J+s1jG8bsyIBZ4LzuIUhsWqEKmmUk4dXH8kYvD6XceGLRkOvK6pefOq62HTqUeM5W/mS0D7AW1djQcSsDuMsO6p5m3xNvHRWlWciTo01VRB6fZk5B2eRRecbH93GP0vySBRTGwur3baK6P5yAGosSZuOy42TBJHlAF1i0EWLOCJo4TPf7LwdCUr6Xl5etN2q1jxzzpl1/eNvn0s+/LvLDnHouH0CViLoe3V8B9qwsNCZE47lcqc28UfN56YWEUq/28MwmQmSy+sqcJLXdNSjyW2BWQlFohMGJ9lCREaikJ16WLKBMSycbu50KCxMoor2JxlAPCVoNl98Gl5L/U30C8XqbsCSHrcogCIXWVOotLhrxCBqPMYmzi/dIqv1ThbvDvtm7d+vz999//f993332fX7du3REUK0swqBB3eSZL+8hYzfcuyPQNHSPA14El+130g3qRQ7Cv9BeRRZK8Yq3O0U5TsliWz7L3gk3a5fxSSftM3rI4OMPC9vMS2UeUF+kLIoskwUI+YxV3Qdo383q7fWLxf+a9t6nvQmPD4ku6vle+4Rl2fbO+/rndcsRdqtix2nP2jvVNX1rVEtpf5c2VLHzCM2ncSrImFkw6FwvsCMwCERG/d7agLwXVwHjZffRM/OGDx8Z/7+XDqf88asHo36REZzReOp9t39Uz9r79p+K/ffBs/N8MjxVr4kl28iuxWlwWN0JKTcioxG5nmFA56iS7aNeEXeWWBt8LKxo8uzs7Z/Ntf70SBpqvr3nFodqurleyDlc2B6nM4tJRsHfFJMYrpNcLJl6wUbHxYLHnwrbc8eOPqd3BTa/ncm3vrMO7V+R27fvoxOFD7y8O9de5iPoi4dnLhLSUBariAe7m5pdpN5cvoKqbW9PR1pYD7G8tU5hvTKFaNs+sPW54o3HTwXbcBqH/cI0Rv3hGNNwq/ISDlDjfKG6FIWWlzm0ppM7+uhrvfTsuM9VvzOzqP4lCUxz76gPZ9NF/Xcyc3OEwh4l0kiDmOfFNaDc7rkKRbiTbXkHiXfQ1j692wuuvP6RU6IpZnZDDN1Zf49lbH/USRB8/eVmwi49+GQXE5NUm7pDXsiukTvWMVp/tTbxnfKJ0z9VLPvsv9o9Yq149H/tXB44PfcI0iGqJa49gKhsg2aSdtqEyPBlk7GR8pT8KzLPlhmNlGaJuL12wbVeXXCQ+7pLkoYNDkTxorhisw2tWPRNY2XbBYpo0K2Z9OJFP+ib1N808bmMJlc2lUGCTPCQSvvT46BrrlVfqp3O+9r/WiT0dyf5XPzHx0s4/GHz+mf9jZPcLv5ffvf9TVnd347XnfuNzmA3Ty0vlmlnb7vLr3szPWAsXFcddxsy55GLsaOIcWvzcCZKc4xgAg9eU57mvnvsM7gLiZ9wsxE1Ii/RpIVKXpTllvfQ6SNYpFIpBIUNyS0helXzFsi3EnbKCLLq9g3NvGkEmdGI3sp2lXix/EgPYNFkT2cW6K3ISWjFITPE7ceNZc2mdfh7ey9qHbdu2PcV6iD1gkKOuNgaCgyRpdzlQssSVZNrx/QZVnEWfG3GneieY2xGMREkUOaQNhDBL+9Bn8mvXrn2R6EiHb5AYivz34s8/KX1dlEspV2SQQ7CQzyjQ7SygvY/vrrghbpRcOt/FIYBp89ZLnSzO3Dth/TjA9rbZQilYGDDvjpsJlclCoLy4RzHYmBmClBAL2oW/uLgg5PHLmMrmVc9Afl0sEW/+3rPmwHf2J8+uqAsdvLdD9TKQ3hBN7+Upq/b7x3N39valH+0dyj7UP5S9cyKOb4yn3t74xiMDI24+Fm4C7GqK9ZZNZyC5eOrjWxdQbc2+Ex0rgs9Ul7w9i2mJcH3NsdKqtT+JH+l+wCrBdrMMxDy+/eKbxgJI4b3EKlTVFr7ZY5M15okzH5hy+bP5vU+Uvfe+Z36L/gICWKcO1CV3Hfz3sUNHfzXde7HVjyWVR4BNsh3UyQWP8PDAYnWaTXoj4RoVbO/s8be1PhtYHZhlJfldOV/o2MlcLjpaLlY1l02xdIvmL5Xgeczj0sAS72Q9qlN20sxgtY553+MMmtXOCKwl+6NDhv/9vQuIPetpy3oxXEycviebPPypYuroB43CRfasjWFtlwg5QdxCAFUevvjcO8oR2hLi7guzY2fNoDNYc8AwNr5mAakUsLHBSD3Rndy9qq3uoZEL+RWiP4lyJU99e2ErBLooLkGGXyViWdU/klp3pi/+7l3n830PrvJeU9tIPzx+Ov/ukxfjj50dHFul/Ktsn3yJOT8d00WklFvgjbcBt86s5A95beI+h3vMNDGRLOHkBIOXqr4h+ZrbdoY6YrelTvauVKMZogLBxFAsudpWZOK5OAQJZZObNzveF7UOuz5SZksWFMMvGnduH3hDZlf5wbKOeaa++ZP/HD/T9+jI8bMdifG4NxSuzrknxjY2puMrrZ3PPK8amp81Nl7ZhldZlL78MgSESHPM2qcuv5TPs14HaRCr57xkQUgoxzWRdnyefYScvAdFoVYILHLbhEXkrJA6eT+TFiTvKBLnmAV4FYK+DbLDHmXT7jJChiR/sXSLJZPFk62Qtw3ke033fEWwhV4haFPf+c539qNUPIClVzYteo2kVd5D1hy4cKxmUeL95HdioTyX23natsRGXqchyllcguxILtI+0uZySJJ2Ik2zeXl3A1JPT8/D+NdvlL4gBFmIu8gh5FmI+4w8ccKZ/hMKR88NEMHOkihMjzPD8naUtRZmGWxZZupv4yCKJn21lv6wA5l/yo9OLiQLsk8/6ua/cNZ7fv6f3DpnweiWkH/ewfFmwnUv/u6b26pfuGND/X9f1R44WhWEfhRTbNqShCtAEoksIySkJNY8yJ3hCbHBS0AlCx41MmlFfvjTC5//yfMDf/bcweH/+t3DmQ8cGLOad8rOTtcp7Upa9T+5ULhn35HUb+7uzv7h4XPF3z4/YrxtPOcj1Ah+uz4WZATCWFnC01YNKFsRYsqur7iWZFQ07FGdrcHe27qqv7ymPfJ0V5cxPVe1gHzir17d1r7HX1c/ZATDJZMqZVnAy1IAcGHnOMiRH0JUz4Dgx4k41zfQEus+9pH4gaOfSr/0xN3iPrBAEbOeti4cqjZfvfCR1IlTv5w4e7rdk2U1PCEPsZ9CbAv2aCdb1TMMsX8R4S2xtgfrGlW0tf2pQHPLoUv92ysFcJ9jfK45F6hq2e0O1WbKniBzEViIxRJM+0prifFdYty7xF0mN6LK6V6nmTizw5wYfV8pNXqnNbXzql1NhLQXJg+9N5s88m+zqUOPFfKnww5rlMg+uemIKULJCf8ojNuQGOPE3negILp8tcoVqtvj9NmRByrVeMNrtCX0ytpV1X8fCRanwr6yCrih6hLqkrVzOM/QV2WJKBsK0V8TKcNz7mLqw93HYr/++OH4o4cuWEuaRZC+ffpM/iPdpxKfuTiSWzNl4k+PpX3av33moWS7yVRIOw8s4Uzz6LJQrwUGqOn7j8rjSMQT6LJktG0fCK/ofLK6c9U5Z7QO17bp2RQ2EEPR5l52ExnB71BRHCJ8uMKVT5/sKh848O/KR078hnX8pfbLslv0R+vCvqbcvv4diQMvf7Rw4vA6o/e01zXao6yB877cqSNdk/t3/+bYruf+JDvc+0Hr6P5Vi85YX7hoBISQLJTk3p/rGkiurB25Qhm89HoIqAfCsaT7pZIPRPUh4lV/AOJeLdZwIdcV15bKNVfzKr7AWEkPQuATQoiF/Eue8qyXo2JZRe5GfK//NTtUXrfZtoXkxKVoN/INCGGURYNSX5FRSJskkROf5jrCKn5w3759jyyU33I8LxGYZA2CYDDNMWXN0bSvu3yW9uHznP3yWutMH/Ay27KdvhuVsmbKe83CLX1EXJcI1TjJDMkNVZ46OjpOMAPxEv0gKeVWlJhKH5UFpfQNNxb3uyDuO6617pf8fvqBdMkX+u3VI3DdiOzVF73wL+5oN2J7z1s/KRjOSMlI/tb5kcKalPg84x7iDUbZm6eoEmkWEhJ+0OkR6zsuKbhQFbDOsuu3ozzu6jDNYsdEIvu2c/3mrtqo8+i/HE6dDvjLvWvXhns6MNRzwy5AUKblvMDUVm5ABdMOFSwahdCLewYeG0+Ut+Gi88BEXLHcm4gjuMQU3dVYvZl6Y8MojC7clJA1VtSWUTrYfVx5HYRGgpS2NoSHu9qr/35jh+c7m+qMq9qEQtU0DdesX/Ncqmg2sidwSymfxg0H30wemC4oNFtZKh++w1MoOLE0rgh9PSunyqUPpQirGFyb/XHyyEv7wpvvH124BbBC9O32j52O3d33xEvvLp079yHV27MqwJrMICSdXaCos/i3Q+BRFLx8Z6JEZPJsYFTdpDwNTQOOpuZnVFt57pB1vtoxb7juuXyh4eF8fnR9Lp+0d4ANEPu9Yu11sBjZweJQRxGlLT8KpljGhs++1xGcqnVG2Kd07MVdRv2OK1xXZqufNfH9tvzIqS1mtvsz2fS5+/LZsyEX8KPrKBdRTgzx6hY7HhGMlCvFHzH+yR4C1ZDNmossgH5CVYfntAiLwnlkwnoheqx8EX//jTmmGemDxH+nDiglErdcjDrRhlYCMRZU73CmJZVI/duRMde29vbkj7C+Px7o9JzYtsgoGU+fy2/ac2TyoycuJH7p4rC5IZ5jjYC3xS5HSrSTdHHaifEZxeH1RaZi8OTembX/2040csFMsh0bZj7Zju98P+PswLgvOV+ZfK2tr4TbOvcW6no3F1MFb477QlwciyzO9rNZF5HJUJRMFSHMTYGQouXhgWjq0MF/44gNrinsfeH/cVfV9RgbNkxcmfOV30jo09z54/fFnt/3juRA77bSxZ4mTyKtGsC4lrIkwIIrmVBTPeeqk0P9W1Up+wehzo69E4d+9rXaLY/svjLH5fEN49ct9SCUvgAhNGQ8mCstJDMLT6XN0XbnTpBMPwsNG+e+Yv4zEKj2Z5999gO4hqyVKyXMpJAWCVknJOaytGiMIUOH8EHuRymoETIsJFHIsZBkSVIG9a8iasjH+Y5u29cvO4JeVt5Vf8SKW0sdiuITPduPO9lJFuL+Ctb+DlxFAlwn7jH2DINYV0Uu3ET84LEd5aXE6ykWRvbPlte1ficzHcgzZ2QwiGIzxHLoWsu5/Pd0TXsHqEr7ioIpt4/UXQ77Geb1XjGTenk+S/0MphvY6Guz9AWxrsuwKYfII7JIO9AuOdqpj37Ut9RyFvs7+ulxFIUprg9fioO4yaDgKGRV9M8mjrvwd/+GKKbz5U1d5Dkw67Ngvt/dIucWfY/fCvLe0sRdALp3lTHyzDnr8dFY8bbJKdNXTJmtEg9bdunMpIts3Jm1O3/AScg5tFW3RCWB6EWaIPFsnz6ZzKmJRGadp89cV1VVGqwKly9G/ObJXGn9P50gi109hWzQY2XDTk8eI2gWo32eYISl1LgKErTFO5k0qyfiZvPPnhxZNzCZ7opPpdrS+WJNLGOuSJnOZviIJ1emXLcf150gLhVe7KkYh2cmce1FiZCHEgqHl9CCfmZ3/R4j01QdfLGt0bPrzjrj6gftNWuS1adbnlVjE2uTQ0P1ViLPJpTiU8m0H5FYZCZCWG+Q+OlTpQIhJ2MqfbGwMlEoPhpJ5av8w00brLGx/85KKRPzS5n4WPKjioXLQVwsl1qzpqBOnWqO7+9+x/DBIx8fPnFsszE+0rQCf+0Vbh5I1NcJYc9D1MVvX2y4MDHxm1BZBiYrXN2rwtFDKlp12jDumvMhbBjbs1bh708TOai77PC15MuOiNhwg0xYygggdjmD5QpiISYGAlXDlQUlKBM/tMJZbH6Xx1GwyrXZsJV74hArYceVqoFtr5Ft16VOdrJjtKsLtSo1sraQPLqjmB/Zkcv23Z3PDYTN4jh0OmS7GBlFMfRRkpTJnUHkHkoVVxOmNR1+y+GqOqCckVOGsW3O+kiBd9SoYZ+vfNpfsNo8rnK1CwVH+qyQVmIG2Iy3qrZeZWMJFZ/IqMTElC+RLG7PlSKY9j2+tnzDbsbAnWRVurQekrckzjlPwTUm+1XH0VOpDx09GfuVC/2x1ckiliRfg/L4G7io8vy+chydJvSoEHLKwZTCLEkeaVKUEP1Lk90ml34h4hCt/Y1fTX8yGjamsk9/76ARCg+ablenRB4ywLTIwRZWhHnFbayQU37CmnpQulNWRsUunGk2z575WJXPPx5sajma737+JU9TY7+qWycLtCp9lEKZORqKMt2UdatcrKp0+vjG3ImTvzR+6OC74+dP1TcEUC65F0Is3nahUFq4OsmurAkU2Qks/KMvx9fXTU2GrYhvOHW++1xo1aarU55nq7D+zu6bEJNZ+9Ri4YFEpenjBSETcyWs5G4sxw1c5+W6Rc1WXpoXZOQeXAXuw23CJyHrhLhJeeRnkyohUUtJWEvP4pqyl3zWQMgCkq8kIWuSv3wWQo+rTAvE6RcIZfkkp6/+GWDnao8Fbha7drFN/TaspzHKfYJyZp4+MxfxgptM/Hvf+94RiNp2Cfso9ZMFiUIYpf5CHkXBQBmqAde777333vsg2Ps7Ozt7Xs/l2t5BBIMoRvVYnGWW9MBsuYHLCtpmC+d+PNv5a/mOsqOU7ZdZFZlxkLaWNpG6y0G7SLz7q+5Li5WJBcAbUZbsdTyCvZQvfUEOSaLkMVszibvVDbW2V+SlL4xTNssBrRWVvik4CHEXWQQn+oSfdSBr6b8t/O5s5bdzvZLXrM+CS66f+6a+5CL9dn4EbnniLuK/Y7Vx+sSU9fu3dVc/9dM9w58/0N3f1boSjgNRdQaJ/OGVnSyJYQ5XS0AEcviNtGBldBIww0mMcQc+F3ms8iOxfMvgeLHFLDvuO3rmwmNkjfGwzG4hYjqW/SlUHs4GexPGxio6yBGfA8KHITJ+Xtm7lfi8dD3CGNqh/mTjIA/DpLhAEEsECyJb3WPtxshK50eV9WN9J5xhuRBTNc5CurPKf7g56n/6tz8Y/m8U+Bq5lHouNvE7uTl+PLXz6fhoPqdiB156OJJMBHx+9q1iQC6xuLKYLUGgWSwKWVyBm4KjbDhL4yOd2dh4J37X7+175chHfOHIuL+xbiBw8KU+R9CbQHo2Ks0HC/lC4OSf/Jd3ugpmtSefa/EUMpGOEtEI/CaA4L+On764yGCYYfEtEXKI4W55aAcs02naIuWt79v4H/7bxzEfnFO3NSxs2XdvOlbd3PwHZe/KE5Mj+351ePLIansgKceUp8RDFbxdxPT34HLChk1MLQwoI86MBqHc1NToh6zB7oey3ugEEWqGLVdVjzKCvdbIX55SVp5tdjMN5pm/6iL25PpSYbzNyk+uKJWYoYifw+e6pPyEFfU52NGN9pP1YmXZnZcNXicINSqBFF3uFuUJ3Tnoq77371zRbV81ItsXHLyQvXgxbn320PHR9+96Zfh3j48WNhZVFZw/zAbARENikeb4GG5eJi5ebmYmvFXKxNAzMGluHdufuN2hxode2F31aqTac+EfdidPVtf5L3o8znQqreoJ/d/5l0+ppt3HT78fflRtljy1KVTNrKOKvFCocJVy89wWhSAcKaqIj4VHuI/li0whsCjWcrKDnpVTqD6qxp+I+RyRK2YqGHud30r81Gd684GSlygDQF6SnV+hzeiCtD/OatwyEr6d/RXKPO/mVGR8G+/9Tq1Z9vaGHf9p6MTR9ZGM5WyoacXHf1IRM4/oMsgcgiShMYfA34m2nCuaztGdz37S6ffmfTXVY/66muFgQ+2F/L/8f32eCHsBeD3p8jee2p5OJFfEBofbpgZHo8WJeJSAd6waUarN51eh9IhsxMt9iPUUZVMWCZeYlfPQ3kSxVqlY0ldfjlQ1+VpjwZIvvth771a6jna65R6CkL4a5JKxc8mJnVD7/vAP/zCBVdwmk1gfbaJF/GqbbEKM7Z0ve3p6HvzhD3/4e/jpfpkFmIMLFQgh9GOZfgfX3/3d7373X+HD2y4uAWJtFyIlFmghLFKevF9KwiqJ8UD9xqc//el7yGOzEGQhZigIthtERUGQMiCyGyDTX/jyl7+8l9jiP2Xn16fEH30x5WK93XL06NEPfe5zn3uYOOWt1MP68Ic//CXGnh/N9XvO/9k3v/nNqr/5m7/5X5DThw+1Tc4qdRcSL3hA6Jq+8pWv/DnyvMLMwFe2b9/+I/JdEqHFwl+PArCD46EvfOELD0AGfSgrLyDjrMQdS2/ua1/72h///u///n+hXaaQ8zT9YSeuPs8wM7GksMa4e0RZy/BbhMX8FApfVEh7JVY/Co3dNsyQKPJPsGjzkIx/1Pc1I8FceF7N91is6/75n//5lyHBteQtBF32YbDxl/48Mytjocwd+cAHPvBfrybvpV57xx137MHv/2+R609R/sLEiReLv30PcI/YMoKF6u7uvguF9Lco539eoCwhUfMSd84btMEtN27N1GshuUT8ha5ZAKLrc3pZEHep6oaIMbH7lLVnS1fV37td5kf7RmJbyuILTZjFEov98GXgP0TAS7xcDpViWl6snOBsh8aAwFr4wuNvgc0Tdw6HLwpph3GL/ZHXmeaYZtI87GfWPU1bJ7FscH7azUHe8wtcoKExlC/TqtibxXwpaoCUyQCoSklVyuMCwGJLh5lig3vLXNkUPHzHhoavdLWFn6X9p4uSbJaYwk2RE3Vr1z3rTE62F86fWR9PZWUnDRUWqyYsS0ISYlLBMo5VAbJt4E/jor7sUR8pxY7ek/ND8sMRlQkFc5abKPCYhIv5grdo5tkuquRxoXkTH8sOV+7ApUE2PoUu84pV3Qeb89N9qL+wtnSa+O34cTuj0YKvvmFE1fnOQ9onqOe8N7JUXSzYlvV4n8NT/5zH37LeF4yFsvHhRh/QCgNwOInrjhuSLIC12MAKlkvkHFwrjEHwxnnJmKy1HKHakuVfazhDD1oOfz7V78DnxmQT0zzOnCm/UWKBq/jJl9gpkIXBTtkMSUgoWDkdKDwoVyWYnrgcSfQX6RCGuwE+2apcgdZu5al7SUXuOy/yLia1Vxux3aem9rVEA8eHJ0qr8lnTX8yzRkMUD8i1SR8SAk/FqAfl0ZfzBdEQy55yydU+MJlr9xIeKHS2VPAE8kke/kXWc/gLpiNiMqOUyUZsBZE9asGPqV6ItW0eF598auj1oKxJ35/hdjLe0Gz25+mxBxztLjhrN5RbQjK67CRfI7c80yz6A2/sPGTCdy5MJBJS7vje5yKxdesLuUR1tufCigGs3jVkL91TlF1Fu0oqzhgKRdkMX4xVWygiVr+nMRPw3J5GOTR8XumnrLp2lGujkUg+nXcX0WQ8saTypLLKR15B5JONvBxZKuBGifEGmMTAesRMXInoQCZudib36eq7tw3WrV+311/bsM/oen1/gbnq8WZ/TxvJjonSEedMcs2cJ2/SCSx2C8Zxp15z9peK2BDIEUh0QXzZIdivuZqIRZAHv+3SAilciU/2J/mNE/L6OL85AyEW4vvaTBVFeSD4NRC1VVwjUVPeBYm6C5LaAIl0i3VRYBQyJ+4LFYtjRY6lvkJOT0HMWyGEtUKMIcM2gZfypBypA69i/b2d9y24/myBYD74s5/97DiyTBCq7wKyi3yyyVaIPKogdyE+S9z5ACT07Sgyt5F/A/nIbpjxiuV2Pplxf3nukUceuQ/cdnC9V+orh7hGSLPIzADRRBwoHM2QuUfAv0uioOzcuXM3xPYgGPdALsWH8IrE72XhrYe8fFz/m+QVQrFaR36bxK2JGY4IdSsiLxOGsyfOm7S7n2s3g1mJtt8KNveidP3Ck08++SoEsg/ZEnfeeefztNuc/YjrV4CZAyt7I3V9ECXwQyiV7aI4iXJGPpXIKTZpnvkuDu4Sqei6knapKYpbB+3cIW0vypxgXVHiBHNJ1D0LcT4Fxm+aIQGl4TQW/lH6UlhkELmkH1UO6a8cVfSDNaKESYQeuW6pifxvuTHrKupyy8i+bIi7gLt9nTHwyhnrf7S1uA786MXBP53KllaNZZLRFD7VVjmAmwyHEEpZCAdhtkk7hEgGZocdrhpazay+oJ/DAidRjqYdBV7nJ68R9TIOMyT5LL9/Q6LvQbv4HsIEs6ycLnG/l1moWSLvoDuhCjligWP9rvYaqdXNwZe3ra/7u7s2RX+yuobtRK9DMjbcM2EdePE7PmfJM+Z0/krq7MkuMx735Zlx8MkGVUI+Ie0uBJSdK2ViweCcQ6YDgshKWL50MqMKaYevRLzDgn2TSh1KanUIC648yDhUUTYkInoN9ZNsIGpqEvLoZwFuGUtpNl9QcViYL1xdql+3sTu6dt2PVNQ7BW4UtLhkGO/Nx6ydh/zZ7PcoJFCO9/5iyWJzEAmpaDHLgY1YQgoSzwzXGSLoMGQ7ZbNEi+9RKMolFjhCiEsQY1QTby6TZw6G1oOcyuJQOYgExiE7iAYVOovoWfa+AEIjqA6knZDukF5qqhy+VczWNClXeP1BR2D9113eVbupz+sdZRHV2r4ucvLJPfG/yRSNaKk/e/9IJunPpSDTzgjKAOEmJQ+c69klnjUReHxgqDSLssmYbI5iMntUUMPpkseysrWoF/B9vOQhs07cxBTE3e1GTj5PM3Ih04Tyoh0kAHsAXyN6rhib7e+lKPjwdJ/At1zeyTf8ZPaHH8WxfkFCvdtKq1wkM022zPJLoBCFgz7PvIXEdZo7+W6790yqe9dXcX4OTeTNj6YuXohGwn5mAWgTZm3szciYuZF7R+41D89jJ5Z+i9DFJjM9+TQKcJq1K6rsM60yS34tlasmlL9oWfRliTjEHmRY/5GBe1JkLTF3Ji4yhjeoCuCURPgpSH0RdzaPN5RY/fDb/zrQ1LpX1UYI7XlrJrCowD2XgHLJQtfM9dsb8j1+wouJ4z57n7tEIojvc1gnt3B0CHGXJERH+rgQYSGbYhWHjK/GBeE/4CrybgilELteZIg//fTTaUhb1de//vVmLJsdEKdOCGATJDIKifSJZVFIFCSzzPs8eTsgUF5Ism0FvUSUJb1917ve9UUslbnnn3/+McqPiDVb5BdCJO8rr0LgIUU11KEGpWI98mQhkVnqlxWSg0zYT4remcPNZye/l90vfUKqpPkrJIv3C45PW7ZseZ78p1iU+w/ktRoM3KJUQBptbMXyK/mCpSxi9UHe12ItX33w4MGPQPJGsMqewRo/KHIgHzaqsgvMfNSj+o/+6I+i/CZMHrIjZzN18IC7q9JenBO8nZQ/px85v2OvOpdF/aQdnPymGmzuJIziJghvRg7aN0F7/5RIOWmuzYKrSVlFkUe6CbI5nnrqqU5+X0Vbt6NAraIN6qVeQpoFM5llkX4l+At+xDUfYYbhcV73LanBF/gRisR99OVm6V9Stsgi/UH86qU/SH/G+p9ihqF7Me24QHGLPk17Huzo6HgFRUnCohoil/QFkUdwAUtbVmRfC3HfRsZPLDrzZXQhmMs4utBYKpctdM2bUutlRdwFka1dxtgZy9qVKrb83uBE5h1n+pPvHhjL35YupN0SLrAsRMD2oMVciIlRCBnsiBaBiXCjOHh4S6e0IEiSLn2CyH3/+ufXuYgMB5VP0C4svxALP3nxpTSjuHKUhCFBMsqY4i1efZ6UwkCoIn5jYFVT5KUt65q/sa498DNI+6zWCluYJfwxtu3otfY/+y9lphUMh/OXkye6NyRHBrzNdfiF4zvM0k1IO69C8uxXrNhMerqZqpONrExIeh5FA5O37bpgQHcl+YgagwZiKx5lLNHYYvBNhvhIncGRmtp0reginJ9B9JzGulTj+jv2NW65+y+cG9buEkvr1VYnajwcn5p65hm322uWwkNrnaXhtcXsFLAyvVHEjQLm7hFajQxldqJF+7BJpcQoF0WtyFEqZ3jvYkCkzbhEOCoGWtpeBkcs60KU5af4yTvxnTe53oR3ygZZJrHaTWZvhPwHghvHPYGWU+7g+r91h9Y9ZYTvXdQU9uV1fte9Vc+WfD6j7Bv5X9XF/I6heEpinKpwIEI5rMfgcEAwXW6UFFm8yqxQEeWiOiQWQBZy5mRDDDs4I9fIQC8Pf6yOtIkoZqKMFelvmLHoexBhmfWBbdc14NOdLOI2xlUQeTFOcSm/ETwqvdnuv7M+7GlvF9FfiNZIHHpRSCXYAg8YeZ1W3oRYUz63liB7eb0v/xza9OBRc+/Or3kyZkPSE743NXixyY3CXSSAiI9NGVzcqG76oyiZYjH3E8lH8uc2sxWsMoXK5Ja0tSgT2YkplDFm1yDqHta3+HCDcaKI08y8KmbUWAyOVp3jwZMExzFc2MxotOhf1d5T3965L7Cx6ytq3ZYRxuHrbl27vO5L/Cy9dKEk1yzmuoXyuW7nedgvKo77QgWyac7XxFILofgVyJ94QNmkS8iEWEeFbAq5g/TK9vVRyN3d+GrfJVZLxvk8pExIr1OIKWQEaw4PAJKQJPk9JN5eCLhhw4YzkKUzlLGCY7MQYiFX1/p8xg3heay8MQjjCmR4ADLrEVIk8kve4pYgn6UsztsEifKDKCNBOS/PKkn2M0meSzNH5TshV0L6ZEyXfOSAIDOlPH8ibzGm7Mdl5htg+x6s6VvB0HboF9kkPyGWIpO8lzLI20k9ammP2nPnzt3GdxZykxWGIQ6RrULwKnXBcm23VwVvwVzyg7gTISEYm0tK6u2AQDq55rVLJH/qJspKGFnC5Cm7z64ivxLXi1+6zPJwma1IiDwyAyHXe8DTLf2Ej7Yvv9RHUkVBkTpjcZ6CtD9Pm/0tswpnXiv4Or1hxqeTmZS3Q37tKEiCmeAkMkn5gp20Z2Nj4xBRid5UQwL1nfzpT3+6D8XoUZSYKlGypK1ENpFT2kzakPZvpO0fAtsn+f51mnT1GN1S49XVi39rjLfLjrgL0F3T/nbP7Bu1Xm2o9R863RP/xMBQ7m3xRLaBw95KvYpQhCWIQBHSU4TA2/9g2LKo1SlMm0QntIm6TP/bn+mosyX5Vgi7eA5Mx/eGHQgRgsyypYU93W9BPCx8yhX+0w5iqFd5zdH6mmDfqvbQD9a3RX+8Zk3gRCfx6WfL/5q/2/bw2Vrl/jY7UzLNoD4xbKnVBUdJ5gJxkYHoyOwCZM8npBXi54MEleJsNAQuDmSW6DAevpseSETBwd3AzEDssegIWYMSywabJXAr4oJRJq8clt00NzlxclSwoTnRtGnLCw3btv2/zhYs0+3tS65nJPKOCct66cVyU+xr+WzvL+UmhzqzuZGI+Ct7sbB7PLQBATeVIQczCMRcl8QjxH4yM9cBuUPx8Ek8dlHMpM0qD0D4OvnIqONlQaqJtT5XIvwkh8U3hrMKclzNYBpWweidX3N4GnY6gx17jfD9S54eZJDDqm09W/Y0lJ3eeNZxPvnwyEQyzBObdmHQRlkwmC0Sdy9L1kawuBm7kErPqD3SNTHG06+Qm4P11igbyA9RdUgFaTsnEVnczIp4Ya1+21XMwVQwfu34i5dZPCyhF2VmSWZkpe5isJ9Js3d4TmLro1TL4eQeEvyEEIv/jBQ5fUBAuH8468L6Ps0yKrnO8eq656G9LYbjL3P1bUcOPfODz+bTicY85CqbJzwdfdRP3n7biZ7ypqZjGouW4BV57QeJCDE9A5YmYhORvCHtzEAwY8Fdjbj0VPqrrLuwWO+R53wWDGLkm8GP3reieaBm2+3fqdu0+evG+q2Dc4i5nL6me80xaN2kWiCOxHGnoeZNtMj8Cct5bM+ePT+CWD4AqVhXsdpKdcVqKoeM30JYhZjJK2TdwSGuJEEhQ0LS5JBrhYDI+CaHvB8aGlLt7e1n8d/+P3GvOYgF91GIdhu/a5HfCqG61tTZ2dlNPO5vQIhWkPcaSKSrIpeQYyFEFXnsZxH1kSR1lOsuTXL+0iTEWH4v9RbyLwc4LEjcK3l87GMf+zx+30eR7Y+ZGdgoio4oQyKXEDcs1TZOgp98L3gIbjNJlCJbdvleDqmHyF1JohgJ7hXCLueknTgsFBTbLaNy7aWvEFovpFqs8nb7yjn5rZQtrxWcaD/sUQ4X5XovLVswkWtkwa2Qc8FF8hJFQMix5CGYSf3kPW4puY6OjjMQ9+/j3370Ulmu13txgZKwiqKQiCyVtq30MZGH/p5Cjt34vl93xWGheuD+chhFchhFrkoUCrnXBFPBUTCSg/asog8/gJK8mvzOzpHngu59c/zupn9Nv5mmeTddksUJcO2j0+LKuSFXva3BGL5wwfpBXcR7qrcq9ujgQO6dI5OFrnjKaih7vH4T6zv0UxWwOosrrRBVcdwVn2/2SMOCh+Wd5hJqKi4xdtPNSOrEvCfnJE0PVwyyYuXEYOEQgpARJ3dm/PDPtfMkDEkA0uHxO0yn2x27c03kq02NgX1rOmteuLfxKsM92qUu/g83lozy563uvf9UcrizpWjtQ55Tx95XnEoS6D2pUixgzWKN9WFXCSCnm4rlxYoN6TOok22V5uZkCLb/CSGSujlhaGUcIURpkd1q8S9WRSzyRQafbMGhUr6g6WxqvVi9fvPe6js2/6Nr5do9Rlvbkkl7pcaGcf+olXn8K55s6ETZqn5/0aq6t5Tzr7XKKQK/M12Af7qVFt9u/PYJsUn05ZmfYiGizcSNw47Gy7OOpqKetD8IlZgNgdPRFxi8w0SPIOZjAcJsENHE6QnTdvXKEWhMOFzRbnf09r9VoToi4swfQaYi83yv0j4Mgjs97tpUwGuNXhxIPXCBzZdyBadK4xZjFqgTA2aZsEYyW2TPEqFQieuHeMKgJ0HuqQzX4xXEwM+DSaz1DKxlrnNgcQ/hWlJd5bVqa/1jobB7MuNzN02O5KqLVFws9RIO0X6o2fbx1x7A0udnevkba+BkRh6Tu+Us4S/P8m3pCz64vKhHslbCi1sPtWIDJSeTMELrF07gINPZO30t/Yer+nrarfjEluLQQGdhaDBSZIM1mbWycH0pUlaQzdWk3ew6iuIJTrb8cq9Sby8zEsIPLdxr5N5mXoCZEyxztssNi+zCLbQv1kLcp3whf8nf2tQb2bzh8YbbtnyVvRBOLiztzb1ikQ8SvNnMWdvvJkqPrs9KeB7815qwBr6Ea8e3IRKfwqLeJsRPSIS0vxAMOYT0VAiiEKEKkRWSJp+F8Ml3QuLkkM98n8fS3oeF9YeQtR+IzzYKghfS9HHcKlrk+gqpmqnDkjBGVotFfk+KuwcE+GNYLLsgyjXSj7Fe23UReeSQelXeV0iTlC3fV47KZ3kVLKT+kpe8Ul+TMqZ9iuSCBRJ5lqjrM1u3bu3g95/BlaMDnG2XHslTXIkEB8lbyK+8CiaVQ2SSVClfyJ5cL4cQU2kjwVvOV+QHByHRBt/PiSf55yDdGSH+l+MinwUbOWRR6aWf5b0kKVcOkVlkFQIvZFmUD5FD6iEH15do7+Tq1avP0ce+2tnZ+Qzn36gd2Tle2x9kcX31q1/dwbqKJsHiUoXtUnmQZbyjo2PnXOsHrk2K+X+Npb8b8n4Ml6g1KHAsdmODSJQueRVcRXmT9qUOnfST7eQ2F3Gfv6Dps3O2/WJ+fKOuoS2kA80rG9fMe/5GyTZbvsuauEuFOjttK/bhA+esC/Gmwo8nYubmiSlz2/F+1y/n3FYk5SDABGSbPYFg4EJSxXUAKyvWTiHrrGKyCTrP/NeIuuTLI9+2TjI00ZxidRTPZ8gUPtfQPoghfvVGhu9YsOlxWdXBcKK+xtdfWxfYHQk7Xrmv0/2jLW2BN3Uq3th07wgbLH3b27bqFcvvD2VHxjcmegfaMuOjrhKh9/AMhajhBiK++T4eTtRQSLuQXSFmlW4pCkzWHbEXC+JXbLsqMCepTAa/PM7hObFgrGyOVa1s3x9ef9u3atesfs67prrPMNoqDFogvKZkBN7bz0ZJiaCz9bDDP7K5lG35cDE1uCOfizWZxUGvAcnDGMsCTVEwaCIWrxriheQM2QqYuIUwftt3oq2ccVuWUeNkJ1HsyFhjoxDkIK4xLPL0VcOZa5PuqpYed6j1CYe3dpcKvOsE9+miCOliKjqT18u7+3ITHfXBnd6jF38nkSquGI+bjXEhFfh7szQWy3iYehFelMl9J2OJkHapn5vKOmgoGTtkfaurKIojG1OhjLiZaKmpciY6OvwvtHf4fxiNOk/v7lH/O2T9EfF5lweZ1F7WBYkiMzPBZItN1rONAZav5M2xTCxDaBlPoCCzANwRuBQ5ZXYCzcLPOgMx/XtMT8pR8izaLQr5RZjJ5MGD/1cpMXZb5sLpD8ZPnXp7qre3KZ1MeESJ8bDwuNrNg1YewhBxCXEq9RDXN9G8mBBnjQMLq/kss2rQF+mldrvLzBBPdjXuZx1BpLroa2npr1rZti+0euVP3F2tzxmrt/XaFb/F/4ATFVk4Lfa6hXO6PleIPBC3eeO4L7Yk/I0nIAt/jnU5yaZAn4U0tEP6xM/bvg+ECEkSgibkTAidEA2BTvq8kEi5RgikEA+uMSFICY7+Rx999M8hK/sqRAmieh4Cc5oyNkOuZReHS5MUJP32qpNEu4EQfbGjo2MP/uLvZ9Olj2J9bcPi6xW5K/JWZJa6idzyWVKljlKf6fv4jeQUgmVBTvPUZZTjqhRS3DLSkPf/wYzDCWR8lJmNX0TRaGNmICBkrUKShcDJIYRX5JJDCGjlvchZIeuVtpG6SRLcpY5YvC1cUgrgcJ6FpU/aJ2f5I+3x+c9/vh/ivp7TEt3lNSyk/pK/YFLBTl5FTrlOUgUnkVXIegXfinxcUqYf5FEKh5lx2cdaiu+ixD0t4TLtDK7zn56enlb68B24mviEDFdIsMglSXAV2Si/D5etl69z8YvKjn4/8sQTTxyifR4CtxrBTpIoh6IAi9zSJ5kpqaZ/bAfjb4C3MKo3JL5bzJglly3mujfkfaM/UKdrtzTcaCEvyX+2h/Ylp5fP222r7QWfCRrg5P5z6sXhRN6fzhVascq2WVauijn/OpTfsD24MyiVc1ggqR7f4WuMdR2KN/0YkDoTOUXIgt29+BaDNpsS28TdfoW845LM99kMxpvBcNA72FRnnOlo9T2/ujXyQmuHGppx55HM3tTENu6TYBAn0PlfufsH7s86PQ+VnY7WfHIqgs9GldfhwvPCpVLwJyHsspQTBFBEWBuAVV4stEVIsTOAxYVrClhq7UWcWC7zbk8h7/GNEf5xoqvrtkNVd9z+Te/9txMh58ZE5TAMe1MldnY71qdGgmfSRrA7net9ZyGbXqVMR6PTmQpIbHcX4RxdKGUGvvaWuPfIolVaTEgcVJOWxTrNdQ5DAgHyyt+CWUWtQ3hT1PQpV82gEWg6ZoRW7HZE2/biiNLP2PJ6d7iOLbi9zXe2z7IGcnG/MTaR3davCttG4mZ7wiw3E1QGI7fM9BDKE9cX6YB4umB45jtIt49zHsY8IfNFmliURiexzwOefH+0yneqrTn4Lx3rnT94W1jFDg6oIXzZ8RxBQ6VnC1+mX9iHLN+UHi0UnnynnyBvrGPZbbrT7qI34TXd1V7iQcrCZInaggT2Bmg+LP4Wn90lY5KIp8wDXF0K33WXxCo+UXjlxYsFh2M47XDsMEeH2oqZVDSfz/r6YznRVyDoKC/UVPZHkJaUBeEy7pcIO1qirfP01QL3I6vTVAkfIGJTMjvkUoOG+0xVfe2g97a1zwU3bfqWe8s9J29Um15dza/qalp/3rQkMjlvjtd4Uh6AEJH57p0rHvjzFQmZGcc3+EsQOT+E8l3k3Q6JqIV8sWhbVPJp0igkQ1Klj9sf6PgzqQDRlNCCg5C0l1EI9j744IP/MHON/QJpSRKa8RwkOAlxr7icCL5yf8iM2ZKx7pzebGgPftmvInsSn/J3k107/VFcRny8enguEQTKdpGxFwjOV5xcBymVBZkmSk2Mug1CRF+EiF+1q4eQd2R4ivJewA/7PET7MerfCOEkqpUXOEJOIem82uRNrOYVRUjkqBDjirwVEg0RFRdBmWEz+S6JK8Yk3w1i4f/+Aw888AbsKf8NibY4yvU1YBWFREbJQ/whvbzaLjpCdCsKgRB3OUQWztukfobYW8jGMhmjLPJCkBlaHVlwS9B1xnBh+vG6deuekpCIbyj8On8Arzas2LVgamNYwYtiEBcn1qKsGlM5CHIvitfIdS5+0dlJdBkU2lEUjAgyiRuSragJaQdfwdLgHvOh6G0iAk0NGY9enjn1EUVrofuE7iBzybdWon7C6KQt5kzSYHOefJNP3HIAXmv95UYlD7iR9R+7e72RWFZVDw8XO3qH4m8fGEtsm4glGzOJfDgSrllJM/gYkY0CzNTEeichFMWqiE6vRidGIEgMkPgMB3zuUsDnyAX8RtbrdubcTivRUOs6E43Wd3e2Vr2wojlwtq3RN9JiYIK/BZJgQP2f9oyNvdS2ffBLzUPjq7K9vTvi5y+8L3axd/Xo5GSIoK2+smk6jTwxVVnAKCEs7V4pPsaYe6eyjJGEZHF4vMVItCZb29oSb+5avS+0ZsX3VFO0W23q6FGqY9E7z14LLIaxUSz53XhZnAmuuefvlEpG8yef++NyKdVlFeJ1Zn6yysxPsaFrwllk0alFJJ+yd9qaJQOQg4WODifhJI0I+1SFUobhzwbrVp6v8tUecVc3P67CLScxKxB/uYFNfuyyrkXcBX/bJv49Sv3j8LD1/YGcWtnTn7n/9IXEhy4MZzaNpceq82Ur5HTn7I4s6y8cuJALefXAwX2sPxCXd7dB9PZAeWhNZ93+bXe2/3VjozpciVZ0jBB4jixB9QMBNhOegvjjHsW4VBvF1I1Ok5EY6pBeITtWKXMFkZL+891jj6ffvuHub2zu3LB6KpNpzZpsfsZ0oosFnwy8jlKqUIxW157uaGj7CYH8l7RwV4DybN1xgL56qP306ab0uROPJM6eeV9mZGhdtqdnDVZ2h5U3feVcwSgSoakk0/Hi5M/0mD9Em0pfxdJqBKrxafemraB/quRzTZXdzuFH/qff/bhC+eCJnUOZvW4zQSLzm5F27dq1AyvwGR7ofbSTIT7NM88NiwesPESdWMrOQWg7+F4iUdz0hwpyOCB/jffcc8+hw4cPy+ZIBB5i0Tz9icMmV4Id7yXW+aITOEgUrs9hpf4L/LI/fOLEicfwx10HAQ5Rfy8kTiKc2CRSXqVcyFIespmHmNruELhE7Ono6HgJ8ngMK/isUb24ZieW561YFdcL0YKwlPA9zvO7ISzG4/jBr8K15vyiBb/sQlEO+OpP5XjxxRc/huxrsfDfjQV+HWSoijK9kE7b8kfZ4i8sOVi8Fytxmb5Qklfuvzzj2hh+2b2bNm16mtcfQtwH5OKlJtpExqQvzhyKxat/hIV1LS5KG4SoIWsAnIXcYA9wiPWVF1zpnE5bPizJ9vuZ1wL1GMd6Hmcjp8PEYX8O5WU//XWIcrBIzJ8++9nP/i51N/CnbkGBeIT2fuT8+fPrUHwiEHA/xNJP/kGuYReJaVch8pV+JoDxNUGaUWq4R4q85rh30swqDBIKcy/tt4t2OMHnvvmluPazxNlfz/FO5Bmm7llkF2JYRnkoiVWb9nZCjItY/ftpxx9y7qaNU8h3ACXmGygasmC5FvlMmSWRhOJT4l6SmZ0yynMR158/QdbPXooQlzno0ya4HmPmpgXsy9xrEtpT7kUnrmFO7qUSylIPEYo+zG//6tLf38z33NcbCBnajkJ/gnoMU0entBHyyrhVoo8ZjEFl6t+PYtOCrEduprxStm2xuNlCvBnlnxyzwlPMwKcy7LDuNIPP7uz+9WK5FIKr+1m86ioULT/81YP/MO7RlrGivjEh/MTn9iTZnn0y4HNN+PzGpMflTEDcJxsaoqfYS2d8e5uxpE0h3ow6V8qgMzrVkSNN6cmh2zOTY+vMRLp5/NTp+1m5iyNb1mMVMqyKNAnxbs9CiOJTbN384AEs7gYmdyTgAAAP30lEQVTbhWZcfnaxrK296KuvPequrz9trF+/aF/KigzX85WY715zYHKLw0jVl82plWUz1VkupptKhWRLuZgNl9l4yV5cieLldLiKDpeXSBd+pkLDI2VHiAHbO+4Ntu5x+av6VDQ0aBgPX0Fer6e8C+V1ZNgKTk2Yt4/GSpvSZQeO9o7w84cPPsKzS2J64sXEKixCu9DvCiwszmOKzm5e27HHFywONzYE9levCR/caBA7cSbR3q4/+bH6ydG+/KOj/RO4BoWUX6LY8FiLYcP14E/usyZUfSA29cEHW373V3a0fKny28qrDMRDasgXS+cjyVI5XHLIQxuSzA5ODo+rlBwbXxHyB0citdV9G43Z4zpX8lrsq3XmjFelJlYWs5mViaNHPkGfrLbMUqicy4dL7C9QyhV8JaxBGHSN8Uyy4PV6SoGqcDZSUxML1tX0hGpqX1XVwbPK7R9Tb3voFQZd6cs/lwkrdBUPRtlNdnpe+xappVjsWDi46fbbb3/pRogk+UPobuPhugbiXgf5qYdY+IVEQnAFCzFalLFeHodEZrAWj0NAhiBvwzPW5XnFwqIYJN9myObZeS+8DidnyuqkTl0oJa2QpmpIAj5oEoXXFAuzbQGkbiXqUoAE5agjs7yuJETvB5xPLaZOSxFVcIZwBcF2BVi3QdSbeF8LaQ5j8ZYQlTJDIFbsIuRdCLJEeBGiI2NpDneYb4J5hsWfGEpeH5uWIgv1dMnCSfBpoL0bIcBRFKz7yMvNIRxGwlLaXIZrKc4oQ7oGwCsJMZ4U1yg+X0S5GZ2RbyliXLffzLSryLnQjNp1K3MxGQl2tHW1RA9Cie3lNyKfrXgv5vdyjfQb2ikMCR6jfvYziXxFGZV+La/ZW63eyGQnqT9v5J6zFayKnDPfi5HbJvL2xTf5z1uGuF+O85kJK1ImmhzLZBwm+/Hwz53HAwZS5GC5l4HFEod4ghCy6Sqh4fNsNlkwG1XhLjozDbosCQEd0EHsNHFYkwNH/yQDn5D3Eqs989RWnJjxOXEwoPhbJxSGDRVg2tvLtp6NjRL/65YiCZb1LQaCKp+awuGZNZSqOBVUpYIf12ufUUrWuJw8RJzEMzR8hPrxsANTdZIA/mlV08Dgce2LTi/vU9fjs7QRjMGdGFWt4iUiXkuMIvayDPZjMvFYKrKBbT7EjlFElJNB8Aqlgzycn/u2+Xz3UOH+iRGMi/jN+/xhO+w52+OinSaVrzypWqPJscfe3vTbH95a/8/XQ/brmYd19kiDeKzx2GAr3gxxOosBrO0h5pICuHK5nIQWgsBkVYgQQ2422wrYO07mVEeH9NNleX9eT/zeKnlJX6eucoi1tUI0bFP1csZgpl6VKtiWZPr1Ta8XcgmBIWrrwpbzivA34xU5vch41S58N0NWXaZG4GoR+LlzlVksAF21xpKn9xdbxq123QyhkSnRaYfQW03Aq5THMD4mD2rx0ZTjisTgTZVv/sPuCsHm+WKmjeSBc26eyxY65crkMvgqymXTfqjyDjzsz1jGeC/xmoO5oM8/IedutWSs2XyFD2VFxuXYrhXZ9ev1RYD7RcYAOX6u0ky9brk6IZeMKlcYC241QZFTk/ZbrVG0PNcNAZkS0Ekj8HOJAIP3TbdQ3Qxg8QnyZ1IEhZEY7uJbjEFSOLv4g/LRXswlKz8DAW/KF/Bclb/xzajP5WW+Vdv1chz0Z42ARkAjoBF46yHwlrW4v/WaWtf4ZiKAldg5NsZ6iiIbhbrSrs6G0PCNkmd4XDWwOVagwM65EgdGNtSyk8RF562EAJW4kKFAIFYddi95c6kbJb/OVyOgEdAIaAQ0AhqB2RHQxH12XPS3GoHrhsDxMav5xaPpzWOx+IbEVLqumDMdPWPWX7TXKVnAc12nnU9aVvjU3sQvZLOFapOlC+L+K1Z3SXYQSFxUcRDHg6akAl7nIPuMEfxeJ42ARkAjoBHQCGgElgMCmrgvh1bSMi5LBMYg0X3DhbYz5yfuPts38bH+gZH1ExOxMKvuEx1ru/ZPJD1nscQfv57kPdGn1p04MfkRs1QOlAkjI5xdYp9LIiS//dneEReLO8GjJ/1sdLgswdVCawQ0AhoBjYBG4C2IgCbub8FG11W+sQj09FjNT18Y+9QXvpt4sD+WuiuXTdcQTdw1lQsrjzeoamuq6v/xuRN//cC9nV9s7oycRZrrYnXfH7dW7T+S+vULqeKdZVeTchJZLlf0KdlFVsKs5MpFtpyaJBRkWrU1mIc2d3i+u77euKmhPW9sS+jcNQIaAY2ARkAj8POFgCbuP1/tqWtzkxE40X+i9uDhA+8/MV79a8OpcNdIiojy7KlSLnnYDZXNk7B0G/mQMmOxpvMXku893hDYi9V957Va3Y/Grej5/twv9PWNPzA0PllreBvZSlvW5rIxDWZ3e0fZUgHX9owqE+u0ua76YsjruGk79d3kZtLFawQ0AhoBjYBGYFkioIn7smw2LfStikBsJBMdH4+t7htyd41lPUaK0PhuT5ANAkLKcJVUwTJVxiT0fNyvTvcU7q3yJ/+9kY262EV1V1OTMWtYy4XqyjbB/lM9xXvOXZj4UN9Q/LapdNkIeCDrLEwV/3ZZjGrJLvRmlggzGeUuZwbXdbZ/xxdwi7VfJ42ARkAjoBHQCGgElgkCmrgvk4bSYi4PBO7buvV8qdz79HM9o5905s1mD3sIhf1e5feHVBqXFbYNx+ruUYHqVhXPZtWr51OPFQul2lRHVeuxQeunG1uM3qupqWwkduJ8acfps/Ff7RnM3J/Oewx3MKDyyqfY1tDeA87efxGFwWkVVcBjqWjY0b9qRWTXpiUqClcjn75WI6AR0AhoBDQCGoHrh4Am7tcPS52TRkAs3OXRUWtvc23qTH5cNRbTOYeb6C5uvFacGL2Nsgu3FUNVN1apbMpQF4kRydbiDyRSmfpEvnbVS6etJ2qj6iy+54PzwXksYdWMx1T7vnPpB8/1Tv7ixb7UfRMpFSwaEeUNhdRUgY1wCdbOXksktl+Fyod8lmquDWa6WvyHbm9R2k1mPoD1OY2ARkAjoBHQCNyCCGjifgs2ihZpeSNQX6/St29s+r51vtRc6It3mWaCvV0DKs1i0QybInkMv5IbLw+BT+UtlcjkscYX18cKxf/UMx56Z1XAdfBQIvdnhunN+D0q7ytPR37JEZI961Jey8wHdh2c+PTkVHHDxaGptw0MJVckM5B0d0i5AwHy9isTX3oJIWPwUyd+7Q42EoxG3GpdW7D7jlW+p1EwCssbZS29RkAjoBHQCGgE3noIaOL+1mtzXeMbjACk2DowZX1NeQuBbDH2G6OjybZs0QWJDimHA4s79u+pKdg4i1ZdwXpVtgIqprKqMJr3DySydwVcrruOHh962ON2FwM+d5zXDPHWVaFQ8GdzxXDeNINOV7g5liz4Ie8qZ4aU1xtQbm9YWYZHpXOUQJx24fuOclY5iikVcBRVY9g/1dUS+sGaTt/PbjAEOnuNgEZAI6AR0AhoBG4AApq43wBQdZYagW0RY/z5vty3BkbKXfmpxHZHztll4LfiwffcwNd8ImUpt9+nwpGAcnqrlFlIqXQKt5mpKSzmhG20fF0eVpV6vIZy42eDcZ5rHCpXMFQBJaAm7FeJrFMVsN4HqsKquipiu8UkkpbKTKXZFRWmr0yIe469llLKRx7VAd+5hirXoc6oEdctpBHQCGgENAIaAY3A8kNgekvF5Se3llgjsCwQODxurTh4fOAzuw9c+LWzvfnOgrtZ+apXKLfPr4plQ+Wg6SaB1g0Wj7qwkbvc+MNA8MsTuNeQLEMisEtycFbIuAOLvaH84QjhHkuqSAT4EoeF9d6BP7vDiZXdWVThYFHFRkZVITmmWms96oE7Vv7s/s11n3tbp9rHjEDezlL/0QhoBDQCGgGNgEZgWSGgLe7Lqrm0sMsNgTvrjIGnTqd+tH71ijVlI+YdjJkt6cyocpWbIOVuXFpksSoHvjBlNkjKZUp2zHWvt2amqmUFvydNE3Z5lVQsmzaBN/jsNBx85jvoeLEosdpZjBodVX53QbWsiKj1rZFDnW2B7zbVqFc1abfh0380AhoBjYBGQCOwLBHQFvdl2Wxa6OWGwDPn83ecPjfxa6+ei3+kdyTbli/UqJLBrqbEd7ccfmzoTg6s52XxTLdUzpLNk6bTNHEX6/s0aRe/mXI2p5x8dDkt5XW6bPIuLjZiTDesgjKKF1RLQ7i0sbPmxU2r6764rsX5lHaRqSCqXzUCGgGNgEZAI7A8EdDEfXm2m5Z6GSKw/6K16ui58U/3DCXffepi/K6C5XXk2IzJLPtZoIr13elWLo8XVxeXSuVMXGNeJ+uymdKlqVAwOVlQDiun3KqgfBD4gLesAoSg8bnLKuxJ9a1urT9+99rmP1+11vl8i2FkLv29fq8R0AhoBDQCGgGNwPJDQBP35ddmWuJljMDuPqsmkSluOXpq4NcT6fKm4YnixtGJrJGYKqhyCbu7J8ThU74QrjLsnCRWdvFtl8WpinfY2u3ae3CDKeSTbIY6CX/PKL/DUNGAh5CP/lg44B7ecnvV362sC++JrPbv36hDPy7jHqNF1whoBDQCGgGNwOsIaOL+Ohb6nUbgTUNgb7/VOp4qbe0ZiP3ShYuj9w0MTrYlEnlvvujGVcatHIGGGdIOVa+4yLBQ1cCFRsh7QMKwW2nlxpAe8qlcY5V/cGVjzakVjbW7a6sCr3a2enaurjGmV7i+abXSBWkENAIaAY2ARkAjcCMR0MT9RqKr89YILIDA3gkI/HB869hEcnN8Ir9xMlVak86o6MiUWol7jFEyHGy46sTrnf2UJC67KsHcLavK6ZgM+tRUtLp8obnO90pbU/jltobgEU+9t69LR41ZAHV9WiOgEdAIaAQ0AssTAU3cl2e7aal/zhCwLMt5NKVqE5OqK5kptff35R8sOVxB3GR8nPLA2gn2aAppLzjL5fTKlf6fBUNqoCaozkWq1FCnYeR+ziDR1dEIaAQ0AhoBjYBG4DIENHG/DBD9USNwKyAAkZfVqHLIPXr5fVomrCPR23XSCGgENAIaAY2ARkAjoBHQCGgENAIaAY2ARkAjoBHQCGgENAIaAY2ARkAjoBHQCGgENAIaAY2ARkAjoBHQCGgENAIaAY2ARkAjoBHQCGgENAIaAY2ARkAjoBHQCGgENAIaAY2ARkAjoBHQCGgENAIaAY2ARkAjoBHQCGgENAIaAY2ARkAjoBHQCGgENAIaAY2ARkAjoBHQCGgENAIaAY2ARkAjoBHQCGgENAIaAY2ARkAjoBHQCGgENAIaAY2ARkAjoBHQCGgENAIaAY2ARkAjoBHQCGgENAIaAY2ARkAjoBHQCGgENAIaAY2ARkAjoBHQCGgENAIaAY2ARkAjoBHQCGgENAIaAY2ARkAjoBHQCGgEbjYC/z/5HrTMPiHWkAAAAABJRU5ErkJggg==;" parent="1" vertex="1">
          <mxGeometry x="160" y="140" width="188.39" height="104.5" as="geometry" />
        </mxCell>
        <mxCell id="OnwEWeLBaUcrGl3t1ZlW-34" style="edgeStyle=orthogonalEdgeStyle;rounded=0;orthogonalLoop=1;jettySize=auto;html=1;startArrow=none;startFill=0;endArrow=open;endFill=0;strokeWidth=2;strokeColor=#808080;" parent="1" source="OnwEWeLBaUcrGl3t1ZlW-39" target="OnwEWeLBaUcrGl3t1ZlW-23" edge="1">
          <mxGeometry relative="1" as="geometry">
            <Array as="points">
              <mxPoint x="140" y="520" />
              <mxPoint x="140" y="520" />
            </Array>
            <mxPoint x="114.45454545454572" y="520.0666666666666" as="sourcePoint" />
            <mxPoint x="160.00000000000023" y="519.5200000000002" as="targetPoint" />
          </mxGeometry>
        </mxCell>
        <mxCell id="OnwEWeLBaUcrGl3t1ZlW-7" style="edgeStyle=orthogonalEdgeStyle;rounded=0;orthogonalLoop=1;jettySize=auto;html=1;startArrow=open;startFill=0;endArrow=open;endFill=0;strokeWidth=2;strokeColor=#808080;" parent="1" source="OnwEWeLBaUcrGl3t1ZlW-5" target="OnwEWeLBaUcrGl3t1ZlW-23" edge="1">
          <mxGeometry relative="1" as="geometry">
            <Array as="points">
              <mxPoint x="254" y="410" />
              <mxPoint x="254" y="410" />
            </Array>
            <mxPoint x="259.9950000000001" y="154.5" as="sourcePoint" />
            <mxPoint x="259.9950000000001" y="480" as="targetPoint" />
          </mxGeometry>
        </mxCell>
        <mxCell id="OnwEWeLBaUcrGl3t1ZlW-39" value="AWS CLI" style="sketch=0;points=[[0,0,0],[0.25,0,0],[0.5,0,0],[0.75,0,0],[1,0,0],[0,1,0],[0.25,1,0],[0.5,1,0],[0.75,1,0],[1,1,0],[0,0.25,0],[0,0.5,0],[0,0.75,0],[1,0.25,0],[1,0.5,0],[1,0.75,0]];points=[[0,0,0],[0.25,0,0],[0.5,0,0],[0.75,0,0],[1,0,0],[0,1,0],[0.25,1,0],[0.5,1,0],[0.75,1,0],[1,1,0],[0,0.25,0],[0,0.5,0],[0,0.75,0],[1,0.25,0],[1,0.5,0],[1,0.75,0]];outlineConnect=0;fontColor=#232F3E;fillColor=#E7157B;strokeColor=#ffffff;dashed=0;verticalLabelPosition=bottom;verticalAlign=top;align=center;html=1;fontSize=12;fontStyle=0;aspect=fixed;shape=mxgraph.aws4.resourceIcon;resIcon=mxgraph.aws4.command_line_interface;" parent="1" vertex="1">
          <mxGeometry x="40" y="481" width="78" height="78" as="geometry" />
        </mxCell>
      </root>
    </mxGraphModel>
  </diagram>
</mxfile>
